---
layout: nil
---
<?xml version="1.0" encoding="UTF-8"?>
<svg width="480" height="480" version="1.1" viewBox="0 0 127 127" xmlns="http://www.w3.org/2000/svg" xmlns:xlink="http://www.w3.org/1999/xlink">
 <defs>
  <linearGradient id="linearGradient857" x1="30.295" x2="30.295" y1="120.88" y2="63.5" gradientTransform="scale(3.7795)" gradientUnits="userSpaceOnUse">
   <stop stop-color="{{ site.bg }}" offset="0"/>
   <stop stop-color="{{ site.bg }}" stop-opacity="0" offset="1"/>
  </linearGradient>
  <linearGradient id="linearGradient5491" x1="-1.7764e-15" x2="-1.7764e-15" y1="127" y2="-7.1054e-15" gradientTransform="matrix(1 0 0 .8654 0 17.094)" gradientUnits="userSpaceOnUse" xlink:href="#linearGradient857"/>
 </defs>
 <path transform="scale(.26458)" d="m4.7539 239.65-4.7539 4.7539v1.416l5.4629-5.4629-0.70898-0.70704zm5.1074 0-9.8613 9.8613v1.4082l10.562-10.562-0.70117-0.70704zm5.1016 0-14.963 14.963v1.416l15.672-15.672-0.70898-0.70704zm5.1094 0-20.072 20.072v1.4141l20.779-20.779-0.70703-0.70704zm5.1074 0-25.18 25.18v1.416l25.889-25.889-0.70898-0.70704zm5.1074 0-30.287 30.287v1.4082l30.988-30.988-0.70117-0.70704zm5.1016 0-35.389 35.389v1.416l36.098-36.098-0.70898-0.70704zm5.1074 0-40.496 40.496v1.416l41.205-41.205-0.70898-0.70704zm5.1094 0-45.605 45.605v1.416l46.314-46.314-0.70898-0.70704zm5.1074 0-50.713 50.713v1.4082l51.414-51.414-0.70117-0.70704zm5.1016 0-55.814 55.814v1.416l56.523-56.523-0.70898-0.70704zm5.1074 0-60.922 60.922v1.416l61.631-61.631-0.70898-0.70704zm5.1094 0-66.031 66.031v1.416l66.74-66.74-0.70898-0.70704zm5.1074 0-71.139 71.139v1.4082l71.84-71.84-0.70117-0.70704zm5.1016 0-76.24 76.24v1.416l76.949-76.949-0.70898-0.70704zm5.1074 0-81.348 81.348v1.416l82.057-82.057-0.70898-0.70704zm5.1094 0-86.457 86.457v1.416l87.166-87.166-0.70898-0.70704zm5.1074 0-91.564 91.564v1.4082l92.266-92.266-0.70117-0.70704zm5.1016 0-96.666 96.666v1.416l97.375-97.375-0.70898-0.70704zm5.1074 0-101.77 101.77v1.416l102.48-102.48-0.70898-0.70704zm5.1094 0-106.88 106.88v1.416l107.59-107.59-0.70899-0.70704zm5.0996 0-111.98 111.98v1.416l112.69-112.69-0.70899-0.70704zm5.1094 0-117.09 117.09v1.416l117.8-117.8-0.70898-0.70704zm5.1074 0-122.2 122.2v1.416l122.91-122.91-0.70898-0.70704zm5.1094 0-127.31 127.31v1.416l128.02-128.02-0.70899-0.70704zm5.0996 0-132.41 132.41v1.416l133.12-133.12-0.70899-0.70704zm5.1094 0-137.52 137.52v1.416l138.23-138.23-0.70898-0.70704zm5.1074 0-142.62 142.62v1.416l143.33-143.33-0.70898-0.70704zm5.1094 0-147.73 147.73v1.4082l148.44-148.44-0.70117-0.70704zm5.0996 0-152.83 152.83v1.416l153.54-153.54-0.70899-0.70704zm5.1094 0-157.94 157.94v1.416l158.65-158.65-0.70898-0.70704zm5.1074 0-163.05 163.05v1.416l163.76-163.76-0.70899-0.70704zm5.1094 0-168.16 168.16v1.4082l168.86-168.86-0.70117-0.70704zm5.0996 0-173.26 173.26v1.416l173.97-173.97-0.70898-0.70704zm5.1094 0-178.37 178.37v1.416l179.08-179.08-0.70898-0.70704zm5.1074 0-183.48 183.48v1.416l184.19-184.19-0.70899-0.70704zm5.1094 0-188.59 188.59v1.4082l189.29-189.29-0.70117-0.70704zm5.0996 0-193.69 193.69v1.416l194.39-194.39-0.70898-0.70704zm5.1094 0-198.79 198.79v1.416l199.5-199.5-0.70899-0.70704zm5.1074 0-203.9 203.9v1.416l204.61-204.61-0.70899-0.70704zm5.1094 0-32.83 32.83v-2.9258l-88.213 88.213v2.9258l-87.969 87.969v1.4082l87.969-87.969v3.6914l-87.969 87.969v1.416l87.969-87.969v3.6934l-87.969 87.969v1.4141l87.969-87.969v3.6934l-87.969 87.969v1.416l87.969-87.969v3.6914l-87.969 87.969v1.4102l87.969-87.969v3.6914l-87.969 87.969v1.416l87.969-87.969v3.6934l-87.969 87.969v0.70703l0.35352 0.35352 0.35352-0.35352h4.4023l0.35352 0.35352 0.35352-0.35352h4.3965l0.35156 0.35352 0.35352-0.35352h4.3984l0.35547 0.35352 0.35352-0.35352h4.4004l0.35352 0.35352 0.35352-0.35352h4.4023l0.35352 0.35352 0.35352-0.35352h4.3945l0.35156 0.35352 0.35352-0.35352h4.4004l0.35547 0.35352 0.35352-0.35352h4.4004l0.35352 0.35352 0.35352-0.35352h4.4023l0.35352 0.35352 0.35352-0.35352h4.3945l0.35156 0.35352 0.35352-0.35352h4.4004l0.35547 0.35352 0.35352-0.35352h4.4004l0.35352 0.35352 0.35352-0.35352h4.4023l0.35352 0.35352 0.35352-0.35352h4.3945l0.35156 0.35352 0.35352-0.35352h4.4004l0.35547 0.35352 0.35352-0.35352h4.4004l0.35352 0.35352 0.35352-0.35352h4.4023l0.35352 0.35352 0.35352-0.35352h4.3945l0.35156 0.35352 0.35352-0.35352h4.4004l0.35547 0.35352 0.35352-0.35352h4.4004l0.35351 0.35352 0.35352-0.35352h4.4023l0.35352 0.35352 0.35351-0.35352h4.3906l0.35547 0.35352 0.35351-0.35352h4.4004l0.35547 0.35352 0.35352-0.35352h4.4004l0.35351 0.35352 0.35352-0.35352h4.4023l0.35352 0.35352 0.35351-0.35352h4.3906l0.35547 0.35352 0.35351-0.35352h4.4004l0.35547 0.35352 0.35352-0.35352h4.4004l0.35351 0.35352 0.35352-0.35352h4.3984l0.34961 0.35352 0.35351-0.35352h4.3984l0.35547 0.35352 0.35351-0.35352h4.4004l0.35546 0.35352 0.35352-0.35352h4.4004l0.35352 0.35352 0.35351-0.35352h4.3984l0.34961 0.35352 0.35351-0.35352h4.3984l0.35547 0.35352 0.35352-0.35352h4.4004l0.35546 0.35352 0.35352-0.35352h4.4004l0.35352 0.35352 0.35351-0.35352h4.3984l0.34961 0.35352 0.35351-0.35352h4.3984l0.35547 0.35352 0.35352-0.35352h4.4004l0.35547 0.35352 0.35351-0.35352h4.4004l0.35352 0.35352 0.35351-0.35352h4.3984l0.34961 0.35352 0.35352-0.35352h4.3984l0.35547 0.35352 0.35352-0.35352h4.4004l0.35351 0.35352 0.35352-0.35352h4.4023l0.35352 0.35352 0.35351-0.35352h4.3965l0.35156 0.35352 0.35352-0.35352h4.3984l0.35547 0.35352 0.35352-0.35352h4.4004l0.35352 0.35352 0.35351-0.35352h4.4024l0.35351 0.35352 0.35352-0.35352h4.3965l0.35156 0.35352 0.35352-0.35352h4.3984l0.35547 0.35352 0.35351-0.35352h4.4004l0.35352 0.35352 0.35351-0.35352h4.4024l0.35351 0.35352 0.35352-0.35352h4.3945l0.35156 0.35352 0.35352-0.35352h4.4004l0.35547 0.35352 0.35351-0.35352h4.4004l0.35352 0.35352 0.35351-0.35352h4.4024l0.35351 0.35352 0.35352-0.35352h4.3945l0.35156 0.35352 0.35352-0.35352h4.4004l0.35547 0.35352 0.35351-0.35352h4.4004l0.35352 0.35352 0.35352-0.35352h4.4023l0.35351 0.35352 0.35352-0.35352h4.3945l0.35156 0.35352 0.35352-0.35352h4.4004l0.35547 0.35352 0.35351-0.35352h4.4004l0.35352 0.35352 0.35352-0.35352h4.4023l0.35352 0.35352 0.35351-0.35352h4.3945l0.35156 0.35352 0.35352-0.35352h4.4004l0.35547 0.35352 0.35352-0.35352h4.4004l0.35351 0.35352 0.35352-0.35352h4.4023l0.35352 0.35352 0.35351-0.35352h4.3906l0.35547 0.35352 0.35351-0.35352h4.4004l0.35547 0.35352 0.35352-0.35352h4.4004l0.35351 0.35352 0.35352-0.35352h4.4023l0.35352 0.35352 0.35351-0.35352h4.3906l0.35547 0.35352 0.35351-0.35352h4.4004l0.35547 0.35352 0.35352-0.35352h4.4004l0.35351 0.35352 0.35352-0.35352h4.3984l0.34961 0.35352 0.35156-0.35352h4.4004l0.35547 0.35352 0.35351-0.35352h4.4004l0.35351 0.35352 0.35352-0.35352h4.4004l0.35351 0.35352 0.35352-0.35352h4.3984l0.34961 0.35352 0.35351-0.35352h4.3984l0.35547 0.35352 0.35351-0.35352h4.4004l0.35547 0.35352 0.35352-0.35352h4.4004l0.35351 0.35352 0.35352-0.35352h4.3984l0.34961 0.35352 0.35351-0.35352h4.3984l0.35547 0.35352 0.35351-0.35352h4.4004l0.35547 0.35352 0.35352-0.35352h4.4004l0.35352 0.35352 0.35351-0.35352h4.3984l0.34961 0.35352 0.35351-0.35352h4.3984l0.35547 0.35352 0.35352-0.35352h4.4004l0.35351 0.35352 0.35156-0.35352h4.4024l0.35351 0.35352 0.35352-0.35352h4.3965l0.35157 0.35352 0.35351-0.35352h4.3984l0.35547 0.35352 0.35351-0.35352h4.4004v-0.70703l-0.35351 0.35351-1.8457-1.8457 2.1992-2.1992v-1.418l-2.9082 2.9082-1.8457-1.8457 4.7539-4.7539v-1.4102l-5.459 5.459-1.8457-1.8457 7.3047-7.3047v-1.4141l-8.0117 8.0117-1.8477-1.8477 9.8594-9.8594v-1.4141l-10.566 10.566-1.8477-1.8476 12.414-12.414v-1.4141l-13.121 13.121-1.8457-1.8457 14.967-14.967v-1.4102l-15.672 15.672-1.8457-1.8457 17.518-17.518v-1.418l-18.227 18.227-0.59765-0.59766v-2.4941l18.824-18.824v-1.416l-18.824 18.824v-3.6934l18.824-18.824v-1.416l-18.824 18.824v-3.6914l18.824-18.824v-1.4082l-18.824 18.824v-3.6934l18.824-18.824v-1.416l-18.824 18.824v-3.6914l18.824-18.824v-1.416l-18.824 18.824v-3.6934l18.824-18.824v-1.416l-18.824 18.824v-3.6914l18.824-18.824v-1.4082l-18.824 18.824v-3.6934l18.824-18.824v-1.416l-18.824 18.824v-3.6914l18.824-18.824v-1.416l-18.824 18.824v-3.6934l18.824-18.824v-1.416l-18.824 18.824v-3.6914l18.824-18.824v-1.4082l-18.824 18.824v-3.6934l18.824-18.824v-1.416l-18.824 18.824v-3.6914l18.824-18.824v-1.416l-18.824 18.824v-3.6934l18.824-18.824v-1.416l-18.824 18.824v-3.6836l18.824-18.824v-1.416l-18.824 18.824v-3.6934l18.824-18.824v-1.416l-18.824 18.824v-3.6914l18.824-18.824v-1.416l-18.824 18.824v-3.6934l18.824-18.824v-1.416l-18.824 18.824v-1.9668l-33.221 33.223v1.9648l-11.773 11.773v-3.6836l63.822-63.818v-1.416l-63.818 63.818v-3.6934l63.818-63.818v-1.416l-63.818 63.818v-3.6914l63.818-63.818v-1.416l-63.818 63.818v-3.6934l63.818-63.818v-1.4082l-63.818 63.818v-3.6914l63.818-63.818v-1.416l-63.818 63.818v-3.6934l63.818-63.818v-1.416l-63.818 63.818v-3.6914l63.818-63.818v-1.416l-63.818 63.818v-3.6934l63.818-63.818v-1.4082l-63.818 63.818v-3.6914l63.818-63.818v-1.416l-63.818 63.818v-3.6934l63.818-63.818v-1.416l-63.818 63.818v-3.6914l63.818-63.818v-1.416l-63.818 63.818v-3.6934l63.818-63.818v-1.4082l-63.818 63.818v-3.6914l63.818-63.818v-1.416l-63.818 63.818v-3.6934l63.818-63.818v-1.416l-63.818 63.818v-3.6914l63.818-63.818v-1.416l-63.818 63.818v-3.6934l63.818-63.818v-1.4082l-63.818 63.818v-3.6914l63.818-63.818v-1.416l-63.818 63.818v-3.6934l63.818-63.818v-1.4141l-63.818 63.818v-3.6934l63.818-63.818v-1.416l-63.818 63.818v-3.6914l63.818-63.818v-1.4102l-63.818 63.818v-3.6914l63.818-63.818v-1.416l-63.818 63.818v-3.6934l63.818-63.818v-0.70703l-0.35352-0.35352-63.465 63.465v-3.6934l59.064-59.064-0.70898-0.70704-58.355 58.355v-3.6914l53.957-53.957-0.70312-0.70704-53.254 53.254v-3.6914l48.855-48.855-0.70899-0.70704-48.146 48.146v-3.6934l43.746-43.746-0.70703-0.70704-43.039 43.039v-3.6934l38.639-38.639-0.70898-0.70704-37.93 37.93v-3.6914l33.531-33.531-0.70117-0.70704-32.83 32.83v-2.9258l-88.213 88.213v2.9258l-87.969 87.969-15.672 15.67-1.8457-1.8457 222.13-222.13-0.70899-0.70704-203.9 203.9-18.227 18.225-0.59766-0.59766v-2.4941l218.33-218.33-0.70899-0.70704-217.62 217.62v-3.6934l213.22-213.22-0.70898-0.70704-212.51 212.51v-3.6914l208.11-208.11-0.70117-0.70704-207.41 207.41v-3.6934l203.01-203.01-0.70899-0.70704-202.3 202.3v-3.6914l197.9-197.9-0.70898-0.70704-197.19 197.19v-3.6934l192.79-192.79-0.70898-0.70704-192.08 192.08v-3.6914l187.69-187.69-0.70117-0.70704-186.98 186.98v-3.6934l182.58-182.58-0.70899-0.70704-181.88 181.88v-3.6914l177.48-177.48-0.70898-0.70704-176.77 176.77v-3.6934l172.37-172.37-0.70899-0.70704-171.66 171.66v-3.6914l167.26-167.26-0.70117-0.70704-166.56 166.56v-3.6934l162.16-162.16-0.70898-0.70704-161.45 161.45v-3.6914l157.05-157.05-0.70898-0.70704-156.34 156.34v-3.6934l151.94-151.94-0.70899-0.70704-151.23 151.23v-3.6836l146.84-146.84-0.70899-0.70704-146.13 146.13v-3.6934l141.73-141.73-0.70898-0.70704-141.02 141.02v-3.6914l136.62-136.62-0.70898-0.70704-135.92 135.92v-3.6934l131.52-131.52-0.70899-0.70704-130.81 130.81v-1.9668l-33.221 33.223v1.9648l-11.773 11.773v-3.6836l171.41-171.41-0.70899-0.70704-170.7 170.7v-3.6934l166.3-166.3-0.70898-0.70704-165.59 165.59v-3.6914l161.19-161.19-0.70898-0.70704-160.48 160.48v-3.6934l156.08-156.08-0.70117-0.70704-155.38 155.38v-3.6914l150.98-150.98-0.70899-0.70704-150.28 150.28v-3.6934l145.88-145.88-0.70898-0.70704-145.17 145.17v-3.6914l140.77-140.77-0.70899-0.70704-140.06 140.06v-3.6934l135.66-135.66-0.70117-0.70704-134.96 134.96v-3.6914l130.56-130.56-0.70898-0.70704-129.85 129.85v-3.6934l125.45-125.45-0.70898-0.70704-124.74 124.74v-3.6914l120.34-120.34-0.70899-0.70704-119.63 119.63v-3.6934l115.23-115.23-0.70117-0.70704-114.53 114.53v-3.6914l110.13-110.13-0.70898-0.70704-109.42 109.42v-3.6934l105.02-105.02-0.70899-0.70704-104.31 104.31v-3.6914l99.916-99.916-0.70899-0.70704-99.207 99.207v-3.6934l94.807-94.807-0.70117-0.70704-94.105 94.105v-3.6914l89.707-89.707-0.70898-0.70704-88.998 88.998v-3.6934l84.598-84.598-0.70703-0.70704-83.891 83.891v-3.6934l79.49-79.49-0.70899-0.70704-78.781 78.781v-3.6914l63.818-63.818v-0.00195l10.562-10.562-0.70117-0.70704-73.68 73.68v-3.6914l69.281-69.281-0.70898-0.70704-68.572 68.572v-3.6934l63.818-63.818 0.35352-0.35351-0.70704-0.70704-63.465 63.465v-3.6934l59.064-59.064-0.70898-0.70704-58.355 58.355v-3.6914l53.957-53.957-0.70312-0.70704-53.254 53.254v-3.6914l48.855-48.855-0.70899-0.70704-48.146 48.146v-3.6934l43.746-43.746-0.70703-0.70704-43.039 43.039v-3.6934l38.639-38.639-0.70898-0.70704-37.93 37.93v-3.6914l33.531-33.531-0.70117-0.70704zm-209.01 0.35352v0.70703l0.35352-0.35351-0.35352-0.35352zm327.97 122.1v3.6914l-101.09 101.09-1.8457-1.8457 102.94-102.94zm0 5.1074v3.6934l-98.535 98.535-1.8476-1.8476 12.414-12.412v-0.00195l87.969-87.967zm0 5.1074v3.6934l-87.969 87.969v0.00195l-8.0117 8.0117-1.8477-1.8477 97.828-97.828zm0 5.1094v3.6914l-93.428 93.428-1.8457-1.8457 95.273-95.273zm0 5.1016v3.6914l-90.877 90.877-1.8457-1.8457 92.723-92.723zm0 5.1074v3.6934l-87.969 87.969-0.35352 0.35351-1.8457-1.8457 2.1992-2.1992v-0.00195l87.969-87.969zm-240 5.1074v3.6934l-77.557 77.557-8.7383 5.0449 86.295-86.295zm240 0v3.6934l-77.557 77.557-8.7383 5.0449 86.295-86.295zm-240 5.1094v3.6914l-65.473 65.473-8.7344 5.043 74.207-74.207zm240 0v3.6914l-65.473 65.473-8.7344 5.043 74.207-74.207zm-240 5.1016v3.6914l-53.402 53.402-8.7344 5.043 62.137-62.137zm240 0v3.6914l-53.402 53.402-8.7344 5.043 62.137-62.137zm-140.01 2.1406v3.6934l-11.773 11.773v-3.6934l11.773-11.773zm240 0v3.6934l-11.773 11.773v-3.6934l11.773-11.773zm-339.99 2.9668v3.6934l-41.312 41.312-8.7402 5.0469 50.053-50.053zm240 0v3.6934l-41.312 41.312-8.7402 5.0469 50.053-50.053zm-140.01 2.1426v3.6914l-11.773 11.773v-3.6914l11.773-11.773zm240 0v3.6914l-11.773 11.773v-3.6914l11.773-11.773zm-339.99 2.9648v3.6934l-29.229 29.229-8.7383 5.0449 37.967-37.967zm240 0v3.6934l-29.229 29.229-8.7383 5.0449 37.967-37.967zm-140.01 2.1426v3.6934l-11.773 11.773v-3.6934l11.773-11.773zm240 0v3.6934l-11.773 11.773v-3.6934l11.773-11.773zm-339.99 2.9668v3.6914l-17.145 17.145-8.7344 5.043 25.879-25.879zm240 0v3.6914l-17.145 17.145-8.7344 5.043 25.879-25.879zm-140.01 2.1426v3.6836l-29.666 29.666-2.9062-0.77734 32.572-32.572zm240 0v3.6836l-29.666 29.666-2.9062-0.77734 32.572-32.572zm-339.99 2.957v3.6934l-5.0742 5.0742-8.7383 5.0449 13.812-13.812zm240 0v3.6934l-5.0742 5.0742-8.7383 5.0449 13.812-13.812zm-140.01 2.1426v3.6934l-25.637 25.637-2.9121-0.78125 28.549-28.549zm240 0v3.6934l-25.637 25.637-2.9121-0.78125 28.549-28.549zm-339.99 2.9668v0.72852l-1.7246 0.99609 1.7246-1.7246zm240 0v0.72852l-1.7246 0.99609 1.7246-1.7246zm-140.01 2.1426v3.6914l-21.609 21.609-2.9102-0.78125 24.52-24.52zm240 0v3.6914l-21.609 21.609-2.9102-0.78125 24.52-24.52zm-252.29 0.66602-21.398 21.398-2.9121-0.78125 15.572-15.572 8.7383-5.0449zm240 0-21.398 21.398-2.9121-0.78125 15.572-15.572 8.7383-5.0449zm-227.71 4.4414v3.6934l-17.578 17.578-2.9141-0.7793 20.492-20.492zm240 0v3.6934l-17.578 17.578-2.9141-0.7793 20.492-20.492zm-264.38 2.5391-13.338 13.338-2.9102-0.78126 7.5137-7.5137 8.7344-5.043zm240 0-13.338 13.338-2.9102-0.78126 7.5137-7.5137 8.7344-5.043zm-215.62 2.5625v3.1133l0.28906 0.28906-13.846 13.846-2.9121-0.7793 16.469-16.469zm240 0v3.1133l0.28906 0.28906-13.846 13.846-2.9121-0.7793 16.469-16.469zm-239 4.1113 1.8477 1.8457-12.459 12.459-2.5801-0.80273-0.24415-0.06641 13.436-13.436zm240 0 1.8477 1.8457-12.459 12.459-2.5801-0.80273-0.24415-0.06641 13.436-13.436zm-277.46 0.30274-5.2812 5.2812-2.6406-0.70703 7.9219-4.5742zm240 0-5.2812 5.2812-2.6406-0.70703 7.9219-4.5742zm-199.98 2.252 1.8457 1.8457-11.115 11.115-2.8164-0.875 12.086-12.086zm240 0 1.8457 1.8457-11.115 11.115-2.8164-0.875 12.086-12.086zm-237.45 2.5527 1.8457 1.8477-9.7715 9.7715-2.8184-0.875 10.744-10.744zm240 0 1.8457 1.8477-9.7715 9.7715-2.8184-0.875 10.744-10.744zm-237.45 2.5508 1.8457 1.8457-8.4316 8.4316-2.8164-0.875 9.4024-9.4023zm240 0 1.8457 1.8457-8.4316 8.4316-2.8164-0.875 9.4024-9.4023zm-237.45 2.5547 1.8477 1.8457-7.0879 7.0879-2.8184-0.875 8.0586-8.0586zm240 0 1.8477 1.8457-7.0879 7.0879-2.8184-0.875 8.0586-8.0586zm-237.45 2.5547 1.8457 1.8457-5.7441 5.7441-2.8164-0.875 6.7148-6.7148zm240 0 1.8457 1.8457-5.7441 5.7441-2.8164-0.875 6.7148-6.7148zm-237.45 2.5527 1.8457 1.8477-4.4023 4.4023-2.8164-0.87695 5.373-5.373zm240 0 1.8457 1.8477-4.4023 4.4023-2.8164-0.87695 5.373-5.373zm-237.45 2.5508 1.8457 1.8457-3.0625 3.0625-2.8164-0.875 4.0332-4.0332zm240 0 1.8457 1.8457-3.0625 3.0625-2.8164-0.875 4.0332-4.0332zm-237.45 2.5547 1.8477 1.8457-1.7188 1.7188-2.8184-0.875 2.6894-2.6895zm240 0 1.8477 1.8457-1.7188 1.7188-2.8184-0.875 2.6894-2.6895zm-237.45 2.5547 1.8457 1.8457-0.375 0.375-2.8164-0.875 1.3457-1.3457zm240 0 1.8457 1.8457-0.375 0.375-2.8164-0.875 1.3457-1.3457zm-237.45 2.5527 0.0039 0.00586-0.00781-0.00196 0.00391-0.0039zm240 0 0.0039 0.00781-0.00781-0.00195 0.00391-0.00586z" fill="url(#linearGradient857)"/>
 <rect x="-1.7764e-15" y="17.094" width="127" height="109.91" fill="url(#linearGradient5491)" stop-color="#000000" style="paint-order:fill markers stroke"/>
</svg>
