---
layout: nil
---
<?xml version="1.0" encoding="UTF-8"?>
<svg width="480" height="480" version="1.1" viewBox="0 0 127 127" xmlns="http://www.w3.org/2000/svg" xmlns:xlink="http://www.w3.org/1999/xlink">
 <defs>
  <linearGradient id="linearGradient857" x1="30.295" x2="30.295" y1="120.88" y2="63.5" gradientTransform="matrix(1 0 0 -1 0 127)" gradientUnits="userSpaceOnUse">
   <stop style="stop-color:{{ site.data.colors.bg_color }}" offset="0"/>
   <stop style="stop-color:{{ site.data.colors.bg_color }};stop-opacity:0" offset="1"/>
  </linearGradient>
 </defs>
 <path d="m1.2578 63.594-1.2578-1.2578v-0.37466l1.4454 1.4454zm1.3513 0-2.6091-2.6091v-0.37259l2.7947 2.7947zm1.3498 0-3.9589-3.9589v-0.37465l4.1465 4.1465zm1.3519 0-5.3108-5.3108v-0.37414l5.4979 5.4978zm1.3513 0-6.6621-6.6621v-0.37466l6.8497 6.8497zm1.3513 0-8.0135-8.0135v-0.37259l8.199 8.199zm1.3498 0-9.3633-9.3632v-0.37465l9.5508 9.5508zm1.3513 0-10.715-10.715v-0.37465l10.902 10.902zm1.3519 0-12.066-12.066v-0.37466l12.254 12.254zm1.3513 0-13.418-13.418v-0.37259l13.603 13.603zm1.3498 0-14.768-14.768v-0.37465l14.955 14.955zm1.3513 0-16.119-16.119v-0.37466l16.306 16.306zm1.3519 0-17.471-17.471v-0.37466l17.658 17.658zm1.3513 0-18.822-18.822v-0.37259l19.008 19.008zm1.3498 0-20.172-20.172v-0.37466l20.359 20.359zm1.3513 0-21.523-21.523v-0.37466l21.711 21.711zm1.3519 0-22.875-22.875v-0.37465l23.063 23.063zm1.3513 0-24.226-24.226v-0.37258l24.412 24.412zm1.3498 0-25.576-25.576v-0.37466l25.764 25.764zm1.3513 0-26.928-26.928v-0.37466l27.115 27.115zm1.3519 0-28.279-28.279v-0.37465l28.467 28.467zm1.3493 0-29.629-29.629v-0.37465l29.816 29.816zm1.3519 0-30.981-30.981v-0.37466l31.168 31.168zm1.3513 0-32.332-32.332v-0.37466l32.519 32.519zm1.3519 0-33.684-33.684v-0.37465l33.871 33.871zm1.3493 0-35.033-35.033v-0.37465l35.221 35.221zm1.3519 0-36.385-36.385v-0.37466l36.572 36.572zm1.3513 0-37.736-37.736v-0.37466l37.924 37.924zm1.3519 0-39.088-39.088v-0.37259l39.274 39.274zm1.3493 0-40.437-40.437v-0.37465l40.625 40.625zm1.3519 0-41.789-41.789v-0.37466l41.977 41.977zm1.3513 0-43.141-43.141v-0.37465l43.328 43.328zm1.3519 0-44.492-44.492v-0.37259l44.678 44.678zm1.3493 0-45.842-45.842v-0.37466l46.029 46.029zm1.3519 0-47.194-47.193v-0.37466l47.381 47.381zm1.3513 0-48.545-48.545v-0.37465l48.732 48.732zm1.3519 0-49.897-49.897v-0.37259l50.082 50.082zm1.3493 0-51.246-51.246v-0.37466l51.434 51.434zm1.3519 0-52.598-52.598v-0.37465l52.785 52.785zm1.3513 0-53.949-53.949v-0.37465l54.137 54.137zm1.3519 0-8.6863-8.6863v0.77411l-23.34-23.34v-0.77411l-23.275-23.275v-0.37259l23.275 23.275v-0.97668l-23.275-23.275v-0.37465l23.275 23.275v-0.9772l-23.275-23.275v-0.37414l23.275 23.275v-0.9772l-23.275-23.275v-0.37465l23.275 23.275v-0.97668l-23.275-23.275v-0.3731l23.275 23.275v-0.97668l-23.275-23.275v-0.37466l23.275 23.275v-0.9772l-23.275-23.275v-0.18707c0.062356-0.18742 0.12471 0 0.18707 0h1.1648c0.062356-0.18742 0.12471 0 0.18707 0h1.1632c0.06204-0.18737 0.12422 0 0.18655 0h1.1638c0.062671-0.18747 0.1252 0 0.18758 0h1.1643c0.062356-0.18742 0.12471 0 0.18707 0h1.1648c0.062356-0.18742 0.12471 0 0.18707 0h1.1627c0.06204-0.18737 0.12422 0 0.18655 0h1.1643c0.062671-0.18747 0.1252 0 0.18758 0h1.1643c0.06235-0.18742 0.12471 0 0.18706 0h1.1648c0.06235-0.18742 0.12471 0 0.18706 0h1.1627c0.06204-0.18737 0.12422 0 0.18655 0h1.1643c0.06267-0.18747 0.1252 0 0.18758 0h1.1643l0.09353-0.09354 0.09353 0.09354h1.1648l0.09353-0.09354 0.09353 0.09354h1.1627l0.09302-0.09354 0.09353 0.09354h1.1643l0.09405-0.09354 0.09353 0.09354h1.1643l0.09353-0.09354 0.09353 0.09354h1.1648l0.09353-0.09354 0.09353 0.09354h1.1627l0.09302-0.09354 0.09353 0.09354h1.1643l0.09405-0.09354 0.09353 0.09354h1.1643l0.09353-0.09354 0.09353 0.09354h1.1648l0.09354-0.09354 0.09353 0.09354h1.1617l0.09405-0.09354 0.09353 0.09354h1.1643l0.09405-0.09354 0.09353 0.09354h1.1643l0.09353-0.09354 0.09354 0.09354h1.1648l0.09354-0.09354 0.09353 0.09354h1.1617l0.09405-0.09354 0.09353 0.09354h1.1643l0.09405-0.09354 0.09354 0.09354h1.1643l0.09353-0.09354 0.09353 0.09354h1.1638l0.0925-0.09354 0.09353 0.09354h1.1638l0.09405-0.09354 0.09353 0.09354h1.1643l0.09405-0.09354 0.09354 0.09354h1.1643l0.09354-0.09354 0.09353 0.09354h1.1638l0.0925-0.09354 0.09353 0.09354h1.1638l0.09405-0.09354 0.09354 0.09354h1.1643l0.09405-0.09354 0.09354 0.09354h1.1643l0.09353-0.09354 0.09353 0.09354h1.1638l0.0925-0.09354 0.09353 0.09354h1.1638l0.09405-0.09354 0.09354 0.09354h1.1643l0.09405-0.09354 0.09353 0.09354h1.1643l0.09354-0.09354 0.09353 0.09354h1.1638l0.0925-0.09354 0.09353 0.09354h1.1638l0.09405-0.09354 0.09353 0.09354h1.1643l0.09353-0.09354 0.09354 0.09354h1.1648l0.09354-0.09354 0.09353 0.09354h1.1632l0.09302-0.09354 0.09354 0.09354h1.1638l0.09405-0.09354 0.09354 0.09354h1.1643l0.09354-0.09354 0.09353 0.09354h1.1648l0.09353-0.09354 0.09353 0.09354h1.1632l0.09302-0.09354 0.09354 0.09354h1.1638l0.09405-0.09354 0.09353 0.09354h1.1643l0.09354-0.09354 0.09353 0.09354h1.1648l0.09353-0.09354 0.09354 0.09354h1.1627l0.09302-0.09354 0.09354 0.09354h1.1643l0.09405-0.09354 0.09353 0.09354h1.1643l0.09354-0.09354 0.09353 0.09354h1.1648l0.09353-0.09354 0.09354 0.09354h1.1627l0.09302-0.09354 0.09354 0.09354h1.1643l0.09405-0.09354 0.09353 0.09354h1.1643l0.09353-0.09354 0.09354 0.09354h1.1648l0.09353-0.09354 0.09354 0.09354h1.1627l0.09302-0.09354 0.09354 0.09354h1.1643l0.09405-0.09354 0.09353 0.09354h1.1643l0.09354-0.09354 0.09354 0.09354h1.1648l0.09354-0.09354 0.09353 0.09354h1.1627l0.09302-0.09354 0.09354 0.09354h1.1643l0.09405-0.09354 0.09354 0.09354h1.1643l0.09353-0.09354 0.09354 0.09354h1.1648l0.09354-0.09354 0.09353 0.09354h1.1617l0.09405-0.09354 0.09353 0.09354h1.1643l0.09405-0.09354 0.09354 0.09354h1.1643l0.09353-0.09354 0.09354 0.09354h1.1648l0.09354-0.09354 0.09353 0.09354h1.1617l0.09405-0.09354 0.09353 0.09354h1.1643l0.094051-0.09354 0.0935 0.09354h1.1643l0.0935-0.09354 0.0935 0.09354h1.1638l0.0925-0.09354 0.093 0.09354h1.1643l0.094-0.09354 0.0935 0.09354h1.1643l0.0935-0.09354 0.0935 0.09354h1.1643l0.0935-0.09354 0.0935 0.09354h1.1638l0.0925-0.09354 0.0935 0.09354h1.1638l0.0941-0.09354 0.0935 0.09354h1.1643l0.0941-0.09354 0.0935 0.09354h1.1643l0.0935-0.09354 0.0935 0.09354h1.1638l0.0925-0.09354 0.0935 0.09354h1.1638l0.0941-0.09354 0.0935 0.09354h1.1643l0.0941-0.09354 0.0935 0.09354h1.1643l0.0935-0.09354 0.0935 0.09354h1.1638l0.0925-0.09354 0.0935 0.09354h1.1638l0.0941-0.09354 0.0935 0.09354h1.1643l0.0935-0.09354 0.093 0.09354h1.1648l0.0935-0.09354 0.0935 0.09354h1.1632l0.093-0.09354 0.0935 0.09354h1.1638l0.094-0.09354 0.0935 0.09354h1.1643v0.18707l-0.0935-0.09353-0.48834 0.48834 0.58187 0.58188v0.37517l-0.76946-0.76946-0.48834 0.48834 1.2578 1.2578v0.3731l-1.4444-1.4444-0.48834 0.48834 1.9327 1.9327v0.37414l-2.1198-2.1198-0.48886 0.48886 2.6086 2.6086v0.37414l-2.7957-2.7957-0.48886 0.48886 3.2846 3.2846v0.37414l-3.4716-3.4716-0.48834 0.48834 3.96 3.96v0.3731l-4.1465-4.1465-0.48834 0.48834 4.6348 4.6349v0.37517l-4.8224-4.8224-0.15813 0.15813v0.65991l4.9806 4.9806v0.37465l-4.9806-4.9806v0.9772l4.9806 4.9806v0.37466l-4.9806-4.9806v0.97669l4.9806 4.9806v0.37259l-4.9806-4.9806v0.9772l4.9806 4.9806v0.37465l-4.9806-4.9806v0.97669l4.9806 4.9806v0.37466l-4.9806-4.9806v0.9772l4.9806 4.9806v0.37466l-4.9806-4.9806v0.97669l4.9806 4.9806v0.37259l-4.9806-4.9806v0.9772l4.9806 4.9806v0.37465l-4.9806-4.9806v0.97668l4.9806 4.9806v0.37466l-4.9806-4.9806v0.9772l4.9806 4.9806v0.37465l-4.9806-4.9806v0.97669l4.9806 4.9806v0.37259l-4.9806-4.9806v0.9772l4.9806 4.9806v0.37466l-4.9806-4.9806v0.97668l4.9806 4.9806v0.37466l-4.9798-4.9806v0.9772l4.9806 4.9806v0.37465l-4.9806-4.9806v0.97462l4.9806 4.9806v0.37465l-4.9806-4.9806v0.9772l4.9806 4.9806v0.37466l-4.9806-4.9806v0.97668l4.9806 4.9806v0.37466l-4.9806-4.9806v0.9772l4.9806 4.9806v0.37465l-4.9806-4.9806v0.52038l-8.7896-8.7902v-0.51987l-3.1151-3.1151v0.97462l16.886 16.885v0.37465l-16.885-16.885v0.9772l16.885 16.885v0.37466l-16.885-16.885v0.97668l16.885 16.885v0.37466l-16.885-16.885v0.9772l16.885 16.885v0.37258l-16.885-16.885v0.97669l16.885 16.885v0.37465l-16.885-16.885v0.9772l16.885 16.885v0.37466l-16.885-16.885v0.97668l16.885 16.885v0.37466l-16.885-16.885v0.9772l16.885 16.885v0.37259l-16.885-16.885v0.97668l16.885 16.885v0.37466l-16.885-16.885v0.9772l16.885 16.885v0.37466l-16.885-16.885v0.97668l16.885 16.885v0.37465l-16.885-16.885v0.9772l16.885 16.885v0.37259l-16.885-16.885v0.97668l16.885 16.885v0.37466l-16.885-16.885v0.9772l16.885 16.885v0.37465l-16.885-16.885v0.97668l16.885 16.885v0.37465l-16.885-16.885v0.97721l16.885 16.885v0.37259l-16.885-16.885v0.97668l16.885 16.885v0.37466l-16.885-16.885v0.9772l16.885 16.885v0.37414l-16.885-16.885v0.9772l16.885 16.885v0.37465l-16.885-16.885v0.97668l16.885 16.885v0.3731l-16.885-16.885v0.97668l16.885 16.885v0.37466l-16.885-16.885v0.97721l16.885 16.885v0.18707l-0.0935 0.0935-16.792-16.792v0.9772l15.627 15.627-0.18758 0.18707-15.44-15.44v0.97668l14.276 14.276-0.18603 0.18707-14.09-14.09v0.97668l12.926 12.926-0.18759 0.18707-12.739-12.739v0.9772l11.574 11.574-0.18707 0.18707-11.387-11.387v0.9772l10.223 10.223-0.18758 0.18707-10.036-10.036v0.97668l8.8718 8.8718-0.18551 0.18707-8.6863-8.6863v0.77411l-23.34-23.34v-0.77411l-23.275-23.275-4.1465-4.146-0.48834 0.48834 58.772 58.772-0.18759 0.18707-53.949-53.949-4.8224-4.8219-0.15813 0.15813v0.65991l57.766 57.766-0.18759 0.18707-57.578-57.578v0.9772l56.414 56.414-0.18758 0.18707-56.227-56.227v0.97669l55.063 55.063-0.18551 0.18707-54.877-54.877v0.9772l53.713 53.713-0.18759 0.18707-53.525-53.525v0.97669l52.362 52.362-0.18758 0.18707-52.174-52.174v0.9772l51.01 51.01-0.18758 0.18707-50.822-50.822v0.97669l49.658 49.658-0.18552 0.18707-49.473-49.473v0.9772l48.309 48.309-0.18758 0.18707-48.121-48.121v0.97668l46.957 46.957-0.18758 0.18707-46.77-46.77v0.9772l45.605 45.605-0.18759 0.18707-45.418-45.418v0.97669l44.254 44.254-0.18552 0.18707-44.069-44.069v0.9772l42.904 42.904-0.18758 0.18707-42.717-42.717v0.97668l41.553 41.553-0.18758 0.18707-41.365-41.365v0.9772l40.201 40.201-0.18759 0.18707-40.014-40.014v0.97462l38.852 38.852-0.18759 0.18707-38.664-38.664v0.9772l37.5 37.5-0.18758 0.18707-37.312-37.312v0.97668l36.149 36.149-0.18758 0.18707-35.961-35.961v0.9772l34.797 34.797-0.18759 0.18707-34.609-34.609v0.52038l-8.7896-8.7902v-0.51987l-3.1151-3.1151v0.97462l45.352 45.352-0.18759 0.18707-45.165-45.165v0.9772l44 44-0.18758 0.18707-43.813-43.813v0.97668l42.649 42.649-0.18758 0.18707-42.461-42.461v0.9772l41.297 41.297-0.18552 0.18707-41.112-41.112v0.97669l39.948 39.948-0.18759 0.18707-39.76-39.76v0.9772l38.596 38.596-0.18758 0.18707-38.409-38.409v0.97668l37.245 37.245-0.18759 0.18707-37.057-37.057v0.9772l35.893 35.893-0.18552 0.18707-35.707-35.707v0.97668l34.544 34.544-0.18758 0.18707-34.356-34.356v0.9772l33.192 33.192-0.18758 0.18707-33.004-33.004v0.97668l31.84 31.84-0.18759 0.18707-31.653-31.653v0.9772l30.489 30.489-0.18552 0.18707-30.303-30.303v0.97668l29.139 29.139-0.18758 0.18707-28.952-28.952v0.9772l27.787 27.787-0.18759 0.18707-27.6-27.6v0.97668l26.436 26.436-0.18759 0.18707-26.249-26.249v0.97721l25.084 25.084-0.18552 0.18707-24.899-24.899v0.97668l23.735 23.735-0.18758 0.18707-23.547-23.547v0.9772l22.383 22.383-0.18707 0.18707-22.196-22.196v0.9772l21.032 21.032-0.18759 0.18707-20.844-20.844v0.97668l16.885 16.885v5.1e-4l2.7947 2.7947-0.18552 0.18707-19.494-19.494v0.97668l18.331 18.331-0.18758 0.18707-1.2578-1.2578-16.885-16.885v0.97721l16.885 16.885 0.09354 0.0935-0.18708 0.187-16.792-16.792v0.9772l15.627 15.627-0.18758 0.18707-15.44-15.44v0.97668l14.276 14.276-0.18603 0.18707-14.09-14.09v0.97668l12.926 12.926-0.18759 0.18707-12.739-12.739v0.9772l11.574 11.574-0.18707 0.18707-11.387-11.387v0.9772l10.223 10.223-0.18758 0.18707-10.036-10.036v0.97668l8.8718 8.8718zm-55.301-0.09353v-0.18707l0.093534 0.0935zm86.775-32.305v-0.97668l-26.747-26.747-0.48834 0.48834 3.96 3.96zm0-1.3513v-0.9772l-26.071-26.071-0.48886 0.48886 3.2846 3.284v5.16e-4zm0-1.3513v-0.9772l-23.275-23.275v-5.16e-4l-2.1198-2.1198-0.48886 0.48886 2.6086 2.6086zm0-1.3519v-0.97668l-24.719-24.719-0.48834 0.48834 1.9327 1.9327zm0-1.3498v-0.97668l-24.045-24.045-0.48834 0.48834 1.2578 1.2578zm0-1.3513v-0.9772l-23.275-23.275-0.09354-0.09353-0.48834 0.48834 0.58188 0.58188v5.16e-4zm-63.5-1.3513v-0.9772l-20.52-20.52-2.312-1.3348zm63.5 0v-0.9772l-20.52-20.52-2.312-1.3348zm-63.5-1.3519v-0.97668l-17.323-17.323-2.311-1.3343zm63.5 0v-0.97668l-17.323-17.323-2.311-1.3343zm-63.5-1.3498v-0.97668l-14.129-14.129-2.311-1.3343zm63.5 0v-0.97668l-14.129-14.129-2.311-1.3343zm-37.045-0.56637v-0.9772l-3.1151-3.1151v0.9772zm63.5 0v-0.9772l-3.1151-3.1151v0.9772zm-89.955-0.78497v-0.9772l-10.931-10.931-2.3125-1.3353zm63.5 0v-0.9772l-10.931-10.931-2.3125-1.3353zm-37.045-0.56689v-0.97668l-3.1151-3.1151v0.97668zm63.5 0v-0.97668l-3.1151-3.1151v0.97668zm-89.955-0.78445v-0.9772l-7.7334-7.7334-2.312-1.3348zm63.5 0v-0.9772l-7.7334-7.7334-2.312-1.3348zm-37.045-0.56689v-0.9772l-3.1151-3.1151v0.9772zm63.5 0v-0.9772l-3.1151-3.1151v0.9772zm-89.955-0.78497v-0.97668l-4.5362-4.5362-2.311-1.3343zm63.5 0v-0.97668l-4.5362-4.5362-2.311-1.3343zm-37.045-0.56689v-0.97462l-7.8491-7.8491-0.76895 0.20567zm63.5 0v-0.97462l-7.8491-7.8491-0.76895 0.20567zm-89.955-0.78238v-0.9772l-1.3426-1.3426-2.312-1.3348zm63.5 0v-0.9772l-1.3426-1.3426-2.312-1.3348zm-37.045-0.56689v-0.9772l-6.783-6.783-0.7705 0.2067zm63.5 0v-0.9772l-6.783-6.783-0.77049 0.2067zm-89.955-0.78497v-0.19275l-0.4563-0.26355zm63.5 0v-0.19275l-0.4563-0.26355zm-37.045-0.56689v-0.97668l-5.7175-5.7175-0.76998 0.20671zm63.5 0v-0.97668l-5.7175-5.7175-0.76998 0.20671zm-66.752-0.17622-5.6617-5.6617-0.77049 0.20671 4.1202 4.1202zm63.5 0-5.6617-5.6617-0.77049 0.20671 4.1202 4.1202zm-60.248-1.1751v-0.9772l-4.6509-4.6509-0.77101 0.20619zm63.5 0v-0.9772l-4.6509-4.6509-0.77101 0.20619zm-69.951-0.67179-3.529-3.529-0.76998 0.20671 1.988 1.988zm63.5 0-3.529-3.529-0.76998 0.20671 1.988 1.988zm-57.049-0.678v-0.82372l0.07648-0.07648-3.6633-3.6633-0.7705 0.20619zm63.5 0v-0.82372l0.0765-0.07648-3.6633-3.6633-0.7705 0.20619zm-63.236-1.0878 0.48886-0.48834-3.2964-3.2964-0.68264 0.21239-0.0646 0.01757zm63.5 0 0.48886-0.48834-3.2964-3.2964-0.68265 0.21239-0.0646 0.01757zm-73.412-0.0801-1.3973-1.3973-0.69866 0.18707zm63.5 0-1.3973-1.3973-0.69867 0.18707zm-52.913-0.59583 0.48834-0.48834-2.9409-2.9409-0.74518 0.23151zm63.5 0 0.48834-0.48834-2.9409-2.9409-0.74517 0.23151zm-62.824-0.67541 0.48834-0.48886-2.5854-2.5854-0.74569 0.23151zm63.5 0 0.48834-0.48886-2.5854-2.5854-0.74569 0.23151zm-62.825-0.6749 0.48834-0.48834-2.2309-2.2309-0.74518 0.23151zm63.5 0 0.48834-0.48834-2.2309-2.2309-0.74518 0.23151zm-62.825-0.67593 0.48886-0.48834-1.8753-1.8753-0.74569 0.23151zm63.5 0 0.48886-0.48834-1.8753-1.8753-0.74569 0.23151zm-62.824-0.67593 0.48834-0.48834-1.5198-1.5198-0.74517 0.23151zm63.5 0 0.48834-0.48834-1.5198-1.5198-0.74518 0.23151zm-62.824-0.67541 0.48834-0.48886-1.1648-1.1648-0.74518 0.23203zm63.5 0 0.48834-0.48886-1.1648-1.1648-0.74517 0.23203zm-62.825-0.6749 0.48834-0.48834-0.81029-0.81029-0.74517 0.23151zm63.5 0 0.48834-0.48834-0.81028-0.81029-0.74518 0.23151zm-62.825-0.67593 0.48886-0.48834-0.45475-0.45475-0.74569 0.23151zm63.5 0 0.48886-0.48834-0.45475-0.45475-0.74569 0.23151zm-62.824-0.67593 0.48834-0.48834-0.09922-0.09922-0.74517 0.23151zm63.5 0 0.48834-0.48834-0.0992-0.09922-0.74517 0.23151zm-62.824-0.67541 1e-3 -0.0015-0.0021 5.18e-4zm63.5 0 1e-3 -0.0021-2e-3 5.16e-4z" style="fill:url(#linearGradient857)"/>
</svg>
