<?xml version="1.0" encoding="UTF-8"?>
<svg width="483.7" height="247.9" version="1.1" viewBox="0 0 128 65.59" xmlns="http://www.w3.org/2000/svg">
 <defs>
  <filter id="filter1159" x="-.002114" y="-.004409" width="1.004" height="1.009" color-interpolation-filters="sRGB">
   <feGaussianBlur stdDeviation="0.11184803"/>
  </filter>
 </defs>
 <g transform="matrix(1.004 0 0 .9816 -19.06 -61.64)" fill="#0c0f0a" filter="url(#filter1159)" opacity=".8">
  <g transform="matrix(7.879,0,0,7.879,-132.2,-452.6)" fill="#0c0f0a" stroke-width=".1269" style="shape-inside:url(#rect12);white-space:pre" aria-label=".sh">
   <path d="m19.22 72.48q0-0.4762 0.2752-0.7514 0.2857-0.2857 0.7514-0.2857 0.4762 0 0.7514 0.2857 0.2752 0.2752 0.2752 0.7514 0 0.4657-0.2752 0.7514t-0.7514 0.2857q-0.4657 0-0.7514-0.2857-0.2752-0.2857-0.2752-0.7514z" style="font-variant-caps:normal;font-variant-east-asian:normal;font-variant-ligatures:normal;font-variant-numeric:normal"/>
   <path d="m24.04 71.91h1.355q0.0635 0.2752 0.3281 0.4339 0.2646 0.1482 0.6562 0.1482h0.4233q0.4974 0 0.762-0.1905 0.2752-0.2011 0.2752-0.5397 0-0.5821-0.8996-0.7091l-0.8255-0.09525q-0.9948-0.127-1.471-0.5503t-0.4762-1.217q0-0.8255 0.5715-1.27 0.5821-0.4445 1.662-0.4445h0.4339q0.9631 0 1.545 0.4127 0.5927 0.4022 0.6985 1.132h-1.355q-0.05292-0.2434-0.2963-0.381-0.2328-0.1482-0.5927-0.1482h-0.4339q-0.9313 0-0.9313 0.6562 0 0.5609 0.7832 0.6562l0.8572 0.1164q1.037 0.127 1.535 0.5715 0.4974 0.4339 0.4974 1.228 0 0.8572-0.6032 1.323t-1.736 0.4657h-0.4233q-1.027 0-1.64-0.4127-0.6032-0.4233-0.6985-1.185z" style="font-variant-caps:normal;font-variant-east-asian:normal;font-variant-ligatures:normal;font-variant-numeric:normal"/>
   <path d="m30.53 65.79h1.323v1.799q0 0.1587-0.01058 0.3387-0.01058 0.1693-0.03175 0.3175-0.01058 0.1482-0.02117 0.254-0.01058 0.09525-0.01058 0.09525h0.1058q0.09525-0.5292 0.4974-0.8149 0.4022-0.2963 1.037-0.2963 0.8784 0 1.397 0.5715t0.5186 1.545v3.81h-1.323v-3.651q0-0.5292-0.2857-0.8255-0.2857-0.3069-0.7832-0.3069-0.508 0-0.8043 0.3175-0.2857 0.3069-0.2857 0.8467v3.619h-1.323z" style="font-variant-caps:normal;font-variant-east-asian:normal;font-variant-ligatures:normal;font-variant-numeric:normal"/>
  </g>
 </g>
</svg>
