<?xml version="1.0" encoding="UTF-8" standalone="no"?>
<svg
   xmlns:dc="http://purl.org/dc/elements/1.1/"
   xmlns:cc="http://creativecommons.org/ns#"
   xmlns:rdf="http://www.w3.org/1999/02/22-rdf-syntax-ns#"
   xmlns:svg="http://www.w3.org/2000/svg"
   xmlns="http://www.w3.org/2000/svg"
   version="1.1"
   id="svg3764"
   xml:space="preserve"
   width="373.78516"
   height="454.4458"
   viewBox="0 0 373.78515 454.4458"><metadata
     id="metadata3770"><rdf:RDF><cc:Work
         rdf:about=""><dc:format>image/svg+xml</dc:format><dc:type
           rdf:resource="http://purl.org/dc/dcmitype/StillImage" /><dc:title></dc:title></cc:Work></rdf:RDF></metadata><defs
     id="defs3768" /><g
     transform="translate(-2.5084473e-6,-20.000021)"
     style="display:inline"
     id="layer2"><path
       id="path4700-3"
       d="m 182.35938,22.666021 c -5.24001,0 -10.10547,1.641406 -14.10547,4.441406 0,0 -85.48139,74.266533 -90.386722,78.533193 v 0.75977 h -8.292969 -0.107422 c -24.465333,0 -44.294922,19.83998 -44.294922,44.30664 -1.4e-5,9.2 2.815234,17.75984 7.615234,24.83985 0,0 37.028048,46.52026 74.748051,93.93359 l -0.0156,0.0137 h -8.560546 c -6.32,0 -11.905625,3.14565 -15.265625,7.95898 L 11,393.375 c -5.2666794,7.97334 -8.3339844,17.51883 -8.3339844,27.79883 0,27.86666 22.5995104,50.46679 50.4648434,50.46679 89.175141,1.1e-4 178.350281,-1.5e-4 267.525421,-1.5e-4 27.86667,0 50.46484,-22.60013 50.46484,-50.46679 0,-10.28 -3.06538,-19.82549 -8.33203,-27.79883 l -72.6914,-115.92188 c -3.36,-4.81333 -8.94758,-7.95898 -15.26758,-7.95898 h -8.56055 l -0.24023,-0.19922 c 30.12,-37.86666 59.77473,-75.12148 70.4414,-88.52148 2.38665,-3 3.82547,-4.80016 4.10547,-5.16016 0.0387,-0.04 0.0547,-0.0664 0.0547,-0.0664 4.812,-7.08001 7.625,-15.63985 7.625,-24.83985 0,-24.46665 -19.83863,-44.30664 -44.30664,-44.30664 h -5.33594 -0.002 v -1.12098 L 196.59961,27.212896 c -4.01333,-2.865334 -8.93357,-4.546875 -14.24023,-4.546875 z"
       style="fill:#ffffff;fill-opacity:1;fill-rule:nonzero;stroke:none;stroke-width:0.13333333" /></g><g
     transform="translate(-2.5084473e-6,-20.000021)"
     style="display:inline"
     id="layer1"><path
       d="m 182.35983,22.666687 c 5.30667,0 10.22667,1.679999 14.24,4.545333 l 102.012,78.068 v 1.12 H 77.866501 v -0.76 c 4.905333,-4.26666 90.386669,-78.533334 90.386669,-78.533334 4,-2.8 8.86666,-4.439999 14.10666,-4.439999"
       style="fill:#000000;fill-opacity:0.83977902;fill-rule:nonzero;stroke:none;stroke-width:0.13333333"
       id="path4700" /><path
       id="path4702"
       d="m 69.465821,106.4004 c -24.465333,0 -44.292972,19.83997 -44.292972,44.30663 -1.4e-5,9.2 2.815226,17.75984 7.615226,24.83984 0,0 37.026106,46.52027 74.746105,93.9336 l -0.0137,0.0137 h -8.560523 c -6.32,0 -11.905626,3.14564 -15.265626,7.95898 L 11.000942,393.37504 c -5.2666794,7.97334 -8.333986,17.51883 -8.333986,27.79883 0,27.86666 22.599506,50.46678 50.464839,50.46678 h 127.416005 2.7461 c -4.38658,-0.41382 -8.48133,-1.83352 -12.04296,-4.04881 -11.50667,-7.98533 -20.18555,-13.78516 -20.18555,-13.78516 -6.04,-4.012 -7.69497,-12.17351 -3.68164,-18.21484 0.25334,-0.38667 0.53346,-0.75747 0.82812,-1.10547 l 0.5879,-0.87892 -9.25391,-6.17382 c -6.05333,-4.01467 -7.69364,-12.17423 -3.68164,-18.21289 1.32133,-1.97334 3.06739,-3.49514 5.05273,-4.48047 l -6.71874,-4.42773 c -5.48,-3.64 -7.34596,-10.69319 -4.64063,-16.47852 0.268,-0.58667 0.58627,-1.1607 0.96093,-1.7207 1.87135,-2.82908 4.66004,-4.67734 7.70508,-5.44726 -0.20242,-0.26262 -0.3541,-0.5607 -0.44726,-0.87891 l -7.82618,-26.08008 -0.23046,-0.76563 h -28.08204 c 11.97333,7.94668 21.8125,14 21.8125,14 6.04134,4.012 7.69366,12.15894 3.68166,18.21094 -0.32135,0.48133 -0.6534,0.921 -1.0254,1.34766 -4.25334,4.91867 -11.61452,6.02831 -17.20118,2.32031 0,0 -7.3861,-4.49275 -18.43945,-11.74609 10.092,6.70534 17.05273,11.3457 17.05273,11.3457 6.03866,4.01466 7.69435,12.16056 3.6797,18.19922 -4.012,6.05334 -12.17295,7.69269 -18.238283,3.66602 0,0 -2.575533,-1.58594 -7.2422,-4.58594 5.506667,4.05334 8.49436,12.94764 4.679693,18.70898 -4.013333,6.03865 -12.172933,7.69269 -18.238279,3.66601 0,0 -10.90792,-6.56216 -23.919919,-15.18749 0,0 -23.106187,-12.83866 -7.880867,-35.63868 l 22.107426,-32.54882 c 4.918667,-7.75866 14.467026,-16.82686 24.345706,-16.85352 l -0.03907,-1.45312 c 5.413346,-8.05334 11.466799,-18 11.466799,-18 2.507514,-3.77418 6.629484,-5.83574 10.843754,-5.8711 2.52856,-0.0212 5.08997,0.68786 7.35548,2.19336 6.05332,4.012 7.69462,12.17294 3.66796,18.23828 0,0 -1.77538,3.66615 -2.08204,4.13282 l -0.0137,1 c 4.85847,0.0539 8.75036,0.0935 12.22656,0.13093 l 0.47462,-1.06251 1.89257,-4.21289 h 4.09961 l 6.29298,-12.8496 -0.1328,-0.11333 c 0.1228,-0.14315 0.25793,-0.27814 0.38281,-0.41994 l 6.76367,-15.17773 1.48241,-3.90039 c -19.41532,-5.76438 -35.9674,-16.76981 -47.24413,-31.03125 l -0.004,-0.004 C 95.807874,246.18195 88.964674,235.45098 84.112101,223.68746 l -0.111334,0.0273 c -0.05507,-0.22212 -0.1028,-0.44721 -0.15624,-0.66992 -4.23424,-10.45536 -6.881346,-21.71684 -7.66016,-33.49024 l -0.09773,-0.007 c 0.01347,-0.2407 0.03773,-0.47848 0.05267,-0.71875 -0.129067,-2.16809 -0.2168,-4.34653 -0.2168,-6.54688 0,-1.09732 0.01653,-2.19163 0.0488,-3.28125 0.0053,-0.17576 0.01733,-0.34982 0.02333,-0.52539 0.03013,-0.87183 0.06467,-1.7428 0.1152,-2.60937 0.03027,-0.52076 0.07373,-1.03786 0.111333,-1.55664 0.0412,-0.56702 0.07707,-1.13463 0.126934,-1.69922 0.03373,-0.3823 0.0776,-0.76142 0.1152,-1.14258 0.06773,-0.68464 0.134466,-1.36988 0.21484,-2.05078 0.04533,-0.38362 0.1012,-0.76409 0.150386,-1.14649 0.08493,-0.65972 0.168854,-1.32056 0.265627,-1.97656 0.06413,-0.43516 0.137693,-0.86729 0.20704,-1.30077 0.09693,-0.60582 0.191947,-1.21202 0.298813,-1.81446 0.0728,-0.41061 0.155,-0.81754 0.232427,-1.22657 0.119867,-0.63345 0.238267,-1.26695 0.369147,-1.89648 0.08613,-0.41429 0.180653,-0.82572 0.27148,-1.23828 0.1284,-0.58312 0.256826,-1.16652 0.394533,-1.74609 0.109467,-0.46091 0.22644,-0.91834 0.3418,-1.37696 0.141293,-0.56178 0.281627,-1.12336 0.43164,-1.68164 0.120667,-0.4491 0.248733,-0.895 0.375,-1.34179 0.151013,-0.53441 0.303933,-1.06857 0.46288,-1.59961 0.142427,-0.47582 0.29072,-0.94883 0.439453,-1.42188 0.161067,-0.51223 0.32184,-1.02427 0.49024,-1.5332 0.155307,-0.46936 0.317014,-0.93584 0.478507,-1.40235 0.171493,-0.49533 0.34308,-0.99036 0.521493,-1.48241 0.17564,-0.48441 0.35676,-0.96608 0.539067,-1.44727 0.186013,-0.49098 0.37352,-0.9812 0.5664,-1.46874 0.17412,-0.44011 0.353533,-0.87719 0.5332,-1.31447 0.209093,-0.50885 0.420173,-1.01653 0.63672,-1.52148 0.1886,-0.43973 0.380027,-0.87772 0.574227,-1.31444 0.221173,-0.49741 0.44544,-0.99291 0.673826,-1.48633 0.19916,-0.4303 0.402814,-0.85795 0.607427,-1.28516 0.03093,-0.0648 0.06053,-0.13054 0.09173,-0.19531 h -8.384773 c -0.157187,0.0145 -0.31536,0.0153 -0.472667,0.001 0.0093,8e-4 -0.01507,-0.001 -0.148426,-0.001 -11.665267,0 -21.066413,9.4 -21.066413,21.08008 0,5.30376 1.947573,10.11584 5.171866,13.82616 1.53384,1.71753 0.316414,4.44089 -1.986319,4.44336 -0.78576,6.8e-4 -1.531827,-0.3452 -2.039067,-0.94531 -4.029013,-4.63633 -6.478507,-10.708 -6.478507,-17.32421 0,-13.74612 10.563133,-25.07473 23.986333,-26.29884 0.258893,-0.0787 0.52824,-0.1176 0.798813,-0.1152 h 1.613294 216.878899 c 0.14319,-10e-4 0.28623,0.009 0.42774,0.0312 0.3163,-0.0133 0.61174,-0.0312 0.95898,-0.0312 14.54807,0 26.40039,11.85396 26.40039,26.41408 0,6.61621 -2.45179,12.68873 -6.49806,17.32616 -0.52548,0.62128 -1.30584,0.96865 -2.11913,0.94336 -2.26777,-0.0717 -3.41585,-2.7624 -1.89843,-4.44922 3.2364,-3.70925 5.18164,-8.51654 5.18164,-13.8203 0,-11.67991 -9.40113,-21.08008 -21.06641,-21.08008 -0.4584,0 -0.94558,0.0259 -1.48046,0.0527 -0.22075,0.0107 -0.44184,-0.008 -0.6582,-0.0527 h -11.1797 c 0.012,0.0241 0.0236,0.0481 0.0352,0.0723 0.22195,0.46186 0.44847,0.92125 0.66406,1.38672 0.21361,0.46125 0.4177,0.92785 0.625,1.39258 0.20276,0.45447 0.4088,0.9075 0.60548,1.36524 0.21509,0.50068 0.41918,1.00716 0.62694,1.51171 0.18519,0.44968 0.37538,0.89693 0.5547,1.34961 0.20216,0.51047 0.39326,1.02679 0.58788,1.54102 0.16438,0.43426 0.33324,0.86584 0.4922,1.30273 0.2086,0.5734 0.40433,1.15261 0.6035,1.73047 0.13672,0.39661 0.27792,0.79078 0.41016,1.18946 0.16091,0.48515 0.31256,0.97472 0.4668,1.46288 0.16376,0.51828 0.33016,1.03504 0.48632,1.55664 0.12947,0.43228 0.24888,0.86821 0.37306,1.30273 0.15664,0.54818 0.3166,1.09483 0.46484,1.6465 0.15352,0.57137 0.29506,1.1476 0.43945,1.72265 0.10627,0.42315 0.21708,0.84444 0.31836,1.26952 0.12867,0.54039 0.24655,1.08545 0.36719,1.62892 0.10906,0.49153 0.22374,0.9806 0.32617,1.4746 0.11053,0.53316 0.20784,1.07145 0.31055,1.60743 0.0923,0.4817 0.18946,0.96137 0.27538,1.4453 0.10307,0.58014 0.19335,1.1648 0.28711,1.74806 0.0745,0.46345 0.15404,0.92524 0.22267,1.39062 0.1124,0.76247 0.21012,1.52936 0.30664,2.29687 0.0325,0.25835 0.0728,0.51455 0.10346,0.77344 0.0971,0.81903 0.17716,1.64235 0.25586,2.4668 0.0231,0.24153 0.0527,0.48067 0.0743,0.72265 0.0571,0.64186 0.0969,1.28863 0.14259,1.93359 0.0315,0.44433 0.0715,0.88628 0.0977,1.33204 4.7e-4,0.008 0.001,0.0156 0.003,0.0233 0.0621,1.06507 0.10933,2.13406 0.14063,3.20704 0.0313,1.07295 0.0469,2.15004 0.0469,3.23047 0,2.17109 -0.0853,4.32121 -0.21095,6.46093 0.003,0.0509 0.009,0.10134 0.012,0.15235 l -0.0215,0.003 c -1.00467,16.70892 -5.78128,32.3982 -13.49804,46.23437 -0.12987,0.32708 -0.25703,0.65704 -0.39063,0.98241 l -0.1308,-0.0547 h -0.001 c -13.68134,23.97454 -36.2145,42.23809 -63.16407,50.32225 l 5.6582,10.08204 3.85939,6.87696 h 0.003 c 0.12427,0.1232 0.2562,0.24082 0.37891,0.36522 l -0.0977,0.0977 8.56836,13.29884 c 0.0607,0.0557 0.11586,0.11386 0.17578,0.16992 0.007,0.007 0.0161,0.0133 0.0235,0.0195 0.28021,0.26292 0.55165,0.52944 0.81445,0.79883 0.14756,0.15068 0.28782,0.30413 0.42968,0.45704 0.12107,0.13067 0.24628,0.2604 0.36328,0.39257 h 2.47658 l 7.22656,14.54298 c 0.15784,0.22341 0.28036,0.46977 0.36328,0.73045 l 0.23437,0.47072 -0.1152,0.5078 c -0.0187,0.28583 -0.0833,0.56677 -0.19141,0.83204 l -4.66602,20.36913 c 6.99875,0.30268 12.5879,6.04999 12.5879,13.14454 0,0 0.35965,10.14836 0.34765,33.06836 5.51868,5.09198 9.46484,12.37214 9.46484,20.46679 0,4.74535 -1.18436,9.22748 -3.29101,13.13282 l -17.09571,24.01366 c -4.55437,6.32163 -11.70969,10.63994 -19.89844,11.41992 h 97.1543 c 27.86667,0 50.46484,-22.60012 50.46484,-50.46678 0,-10.28 -3.06537,-19.82549 -8.33202,-27.79883 l -72.6914,-115.92189 c -3.36,-4.81333 -8.94759,-7.95897 -15.26759,-7.95897 h -8.56054 l -0.24023,-0.19923 c 30.12,-37.86666 59.77473,-75.12148 70.4414,-88.52148 2.38665,-3 3.82546,-4.80016 4.10546,-5.16016 0.0387,-0.04 0.0547,-0.0664 0.0547,-0.0664 4.812,-7.08001 7.625,-15.63985 7.625,-24.83985 0,-24.46665 -19.83864,-44.30664 -44.30665,-44.30664 H 298.6142 77.868114 69.575141 Z M 223.49902,471.64061 h -30.25782 -9.94726 c 0.87,0.0821 1.74714,0.13868 2.63868,0.13868 h 0.39842 34.49415 0.17188 c 0.84467,-0.005 1.67676,-0.0601 2.50195,-0.13868 z m 4.47266,-71.53905 -1.61718,-1.08789 c 0.18958,1.26527 1.25096,2.21763 2.52929,2.26953 1.29655,0.0511 2.44167,-0.83852 2.71289,-2.10742 -1.50286,0.88746 -2.28416,0.30112 -3.625,0.92578 z m -1.61718,-1.08789 c -0.0519,-0.34212 -0.0365,-0.69105 0.0449,-1.02733 l 9.74415,-42.61526 4.05273,-17.68553 H 131.91313 l 3.14453,10.48828 7.82812,26.08008 c 0.20981,0.68233 0.13735,1.42032 -0.20117,2.04881 2.10156,0.19352 4.18509,0.8943 6.07228,2.14259 l 2.25389,1.49609 c -6,-4.01466 -7.62695,-12.13544 -3.62695,-18.1621 4.01334,-6.05334 12.16122,-7.69268 18.22656,-3.66602 z m -83.66993,-22.71095 c -0.74926,-0.0691 -1.50003,-0.0772 -2.24608,-0.0176 -0.7488,0.0568 -1.48699,0.19683 -2.21486,0.38087 1.1796,1.53051 3.54454,1.33791 4.46094,-0.36329 z m -51.406243,-241.1035 0.082,0.0411 c -0.317333,0.62781 -0.620853,1.26345 -0.925787,1.89844 -0.226413,0.47145 -0.450413,0.94459 -0.66992,1.41992 -0.193333,0.41865 -0.382386,0.84009 -0.570306,1.26172 -0.206374,0.46297 -0.411547,0.92609 -0.611334,1.39257 -0.180213,0.42083 -0.356426,0.84395 -0.531253,1.26759 -0.20676,0.50103 -0.41216,1.00291 -0.61132,1.50781 -0.163506,0.41452 -0.32216,0.83096 -0.48048,1.24804 -0.18304,0.4822 -0.36492,0.9656 -0.541013,1.45118 -0.16144,0.44526 -0.31712,0.89374 -0.472653,1.3418 -0.17164,0.49438 -0.34148,0.98858 -0.505854,1.48632 -0.148666,0.45018 -0.29092,0.90261 -0.4336,1.35546 -0.14952,0.47448 -0.30048,0.9484 -0.44336,1.4258 -0.13652,0.4562 -0.266053,0.91616 -0.39648,1.375 -0.147626,0.51921 -0.2958,1.03804 -0.43556,1.56053 -0.09787,0.36562 -0.187346,0.73439 -0.28124,1.10156 0.02587,-0.0643 0.05027,-0.12906 0.07613,-0.19336 0.209573,-0.51998 0.43668,-1.03092 0.65428,-1.54686 0.267413,-0.63399 0.527253,-1.27266 0.80664,-1.90039 0.20812,-0.46764 0.4318,-0.92652 0.646493,-1.39064 0.309133,-0.66817 0.61096,-1.33927 0.933587,-2 0.20636,-0.42262 0.428826,-0.83632 0.64064,-1.25584 0.34936,-0.69192 0.69452,-1.38705 1.058586,-2.07032 0.226053,-0.4243 0.46756,-0.83885 0.699213,-1.25976 0.36396,-0.66125 0.721987,-1.3258 1.099614,-1.97852 0.318746,-0.55101 0.654053,-1.0919 0.982426,-1.63672 0.307387,-0.50996 0.606147,-1.02486 0.92188,-1.52929 0.34996,-0.55923 0.71804,-1.10591 1.07812,-1.65821 0.31816,-0.48794 0.62716,-0.98238 0.95312,-1.46484 0.240347,-0.3558 0.493734,-0.70192 0.73828,-1.0547 -0.01067,-0.0468 -0.03627,-0.15116 -0.04693,-0.1953 z m 7.800773,0 c 0.02027,0.0849 0.04893,0.20512 0.07027,0.29492 l 0.484373,0.35352 c -0.101733,0.13962 -0.197786,0.28368 -0.298826,0.42382 0.771293,3.22884 1.521333,6.36757 2.244133,9.39258 0.16941,-0.21129 0.33852,-0.42289 0.50977,-0.63281 0.25527,-0.31292 0.51607,-0.62179 0.77539,-0.93164 0.26456,-0.31613 0.52813,-0.63241 0.79688,-0.94531 0.23712,-0.27609 0.4784,-0.54872 0.71874,-0.82226 0.32992,-0.3755 0.66018,-0.75044 0.9961,-1.1211 0.17164,-0.18938 0.34633,-0.37634 0.51953,-0.56446 0.37175,-0.40376 0.74419,-0.80724 1.12304,-1.20507 0.22949,-0.24097 0.46325,-0.47803 0.69532,-0.7168 0.34279,-0.35269 0.6868,-0.70489 1.03515,-1.05273 0.24328,-0.24291 0.49038,-0.48216 0.73633,-0.72266 0.33616,-0.3287 0.67255,-0.65628 1.01367,-0.98046 0.26464,-0.2515 0.5332,-0.49932 0.80078,-0.74806 0.008,-0.007 0.0157,-0.0143 0.0233,-0.0215 z m 17.74609,0 0.38868,0.45508 c -0.42146,0.35978 -0.83546,0.72731 -1.25,1.09375 -0.25128,0.22213 -0.50326,0.44343 -0.75196,0.66797 -0.38782,0.35014 -0.77082,0.70458 -1.15234,1.06054 -0.18316,0.17092 -0.36714,0.34144 -0.54883,0.51368 -0.37653,0.35692 -0.74897,0.7175 -1.11913,1.08008 -0.20756,0.2033 -0.41558,0.40626 -0.6211,0.61132 -0.35805,0.35722 -0.71066,0.71953 -1.0625,1.08204 -0.1927,0.19854 -0.38731,0.39557 -0.57812,0.5957 -0.36948,0.38746 -0.73139,0.78056 -1.09376,1.17382 -0.16635,0.18056 -0.33516,0.35928 -0.5,0.54102 -0.32952,0.36332 -0.65315,0.7315 -0.97656,1.09962 -0.21516,0.24492 -0.43208,0.48734 -0.64452,0.73436 -0.30376,0.35317 -0.60032,0.71096 -0.89844,1.06836 -0.1924,0.23068 -0.3881,0.459 -0.57812,0.69141 -0.32728,0.40023 -0.64858,0.80559 -0.96876,1.21095 -0.1646,0.20838 -0.33142,0.41525 -0.49415,0.625 -0.32621,0.42043 -0.64431,0.8457 -0.96289,1.27147 l 5.31641,11.53516 c 0.0968,-0.1048 0.18967,-0.21208 0.28711,-0.31641 7.72789,-8.274 17.36564,-15.20384 28.32422,-20.35742 -0.23869,-1.0732 -0.59564,-2.67991 -1.31054,-5.89648 -0.0617,-0.27788 -0.0559,-0.25646 -0.1192,-0.54102 z m 23.05666,0 c 0.51961,2.33922 0.79184,3.56711 1.03709,4.67187 0.36041,-0.15096 0.71125,-0.31571 1.07423,-0.46289 4.07025,-1.65034 8.30316,-3.05808 12.66796,-4.20898 z m 71.14647,0 c 4.60122,1.21299 9.04799,2.72174 13.32031,4.48828 0.25307,-1.04798 0.54323,-2.25028 1.08203,-4.48828 z m 18.79298,0 c -0.7451,3.0899 -1.09696,4.54898 -1.3965,5.78906 -0.0224,0.0929 -0.0872,0.36378 -0.10546,0.43945 11.80748,5.48312 22.09428,13.02769 30.14453,22.08398 0.0617,0.0695 0.12013,0.14135 0.18164,0.21095 l 6.31445,-11.95313 c -0.11906,-0.16372 -0.23526,-0.32922 -0.35546,-0.49219 -0.122,-0.16545 -0.24596,-0.32947 -0.36915,-0.49415 -0.34735,-0.4643 -0.69824,-0.92676 -1.05469,-1.38475 -0.14372,-0.18467 -0.29036,-0.36716 -0.43554,-0.55078 -0.33298,-0.42114 -0.66718,-0.84024 -1.00782,-1.25586 -0.16634,-0.20296 -0.33575,-0.40384 -0.5039,-0.60547 -0.33985,-0.40752 -0.68214,-0.81479 -1.0293,-1.2168 -0.1763,-0.20415 -0.35503,-0.40665 -0.5332,-0.60937 -0.3342,-0.38026 -0.66904,-0.75962 -1.00976,-1.13476 -0.18367,-0.20222 -0.37111,-0.40086 -0.55664,-0.60156 -0.37508,-0.40578 -0.75211,-0.80944 -1.13476,-1.209 -0.11774,-0.12294 -0.237,-0.2448 -0.35548,-0.36718 -0.42699,-0.44101 -0.85682,-0.87929 -1.29296,-1.3125 -0.14434,-0.14335 -0.29024,-0.28526 -0.43556,-0.42774 -0.41547,-0.40738 -0.83428,-0.81262 -1.2578,-1.21289 -0.17499,-0.16536 -0.35296,-0.32805 -0.52931,-0.49219 -0.38981,-0.36285 -0.78133,-0.72328 -1.17773,-1.08006 -0.21744,-0.19571 -0.43686,-0.39015 -0.65624,-0.584 -0.44894,-0.39668 -0.89844,-0.79275 -1.35548,-1.18164 l 0.30469,-0.35742 z m 26.0996,0 c 0.2576,0.2393 0.51468,0.47886 0.76953,0.7207 0.30452,0.28894 0.60373,0.58246 0.90431,0.875 0.28013,0.27269 0.5612,0.54452 0.83788,0.82032 0.31846,0.3174 0.63148,0.63946 0.94532,0.96093 0.26698,0.27353 0.53522,0.54583 0.79882,0.82227 0.29203,0.30622 0.57936,0.61602 0.86718,0.92578 0.27698,0.2981 0.55509,0.59515 0.82813,0.89648 0.28428,0.31372 0.56377,0.63204 0.84375,0.94922 0.26176,0.29657 0.52525,0.59106 0.7832,0.89064 0.28954,0.3362 0.57272,0.67764 0.85742,1.01756 0.24098,0.28776 0.48324,0.57485 0.72071,0.86524 0.30133,0.36844 0.59692,0.74064 0.89259,1.11328 0.16773,0.21144 0.33996,0.42004 0.50584,0.63281 1.0237,-4.16341 2.44094,-9.92825 2.82422,-11.49023 z m 16.3789,0 0.36719,0.0899 0.12693,-0.0899 z m 2.04102,0 c 0.41212,0.59166 0.82046,1.18694 1.2207,1.78711 0.098,0.147 0.20151,0.28999 0.29883,0.43751 0.62923,0.95376 1.24105,1.91809 1.83984,2.89257 0.0287,0.0465 0.0593,0.092 0.0879,0.13867 0.61574,1.00552 1.21422,2.02205 1.79688,3.04884 0.009,0.0169 0.0197,0.0339 0.0293,0.0508 0.41027,0.72396 0.80179,1.46108 1.19531,2.1953 0.18081,0.33732 0.3716,0.66838 0.54884,1.00782 0.35882,0.68729 0.69893,1.38617 1.04296,2.08202 0.18236,0.36882 0.37458,0.73235 0.55273,1.10352 0.39144,0.81561 0.76191,1.64197 1.13281,2.46875 0.12267,0.27346 0.25458,0.54174 0.375,0.81641 0.44851,1.02308 0.8783,2.05637 1.29494,3.09569 -0.0364,-0.14234 -0.0704,-0.28561 -0.10747,-0.42773 -0.0628,-0.24112 -0.12107,-0.48417 -0.18553,-0.7246 -0.16106,-0.60067 -0.33443,-1.19667 -0.50587,-1.79297 -0.10547,-0.36694 -0.20507,-0.7363 -0.31445,-1.10158 -0.16162,-0.5396 -0.33579,-1.07348 -0.50587,-1.60936 -0.1312,-0.4134 -0.2564,-0.82909 -0.39256,-1.24023 -0.16397,-0.495 -0.33864,-0.98487 -0.50977,-1.47656 -0.15579,-0.4476 -0.30902,-0.89699 -0.47071,-1.3418 -0.16656,-0.45819 -0.34285,-0.91203 -0.51563,-1.36719 -0.17745,-0.46752 -0.3512,-0.93611 -0.53514,-1.40039 -0.18458,-0.46585 -0.37927,-0.92613 -0.57032,-1.38868 -0.18144,-0.43925 -0.35963,-0.88018 -0.54687,-1.3164 -0.20627,-0.48054 -0.42155,-0.95678 -0.63477,-1.4336 -0.18852,-0.42152 -0.37443,-0.84512 -0.56836,-1.26366 -0.19547,-0.42191 -0.3987,-0.83898 -0.59962,-1.25782 -0.26176,-0.54562 -0.52009,-1.09246 -0.79101,-1.63281 l 0.69727,-0.34961 z m -89.41798,0.69531 -0.36718,25.35742 c 10.68037,0.37935 20.82104,2.59187 29.9668,6.30078 0.24156,0.098 0.47468,0.20858 0.71484,0.3086 l 7.95508,-24.04101 c -11.54332,-4.84206 -24.51132,-7.66487 -38.26954,-7.92579 z m -4.26757,0.001 c -13.92445,0.27739 -27.0345,3.18374 -38.67773,8.14844 l 6.87695,23.19923 c 9.58608,-3.77351 20.23148,-5.92016 31.43359,-6.04103 z m 91.83789,4.18164 c -1.11552,4.5391 -2.46694,10.03167 -2.7285,11.09571 0.143,0.20736 0.28054,0.42044 0.42186,0.6289 0.24068,0.35504 0.48302,0.70822 0.71875,1.06642 0.24011,0.3648 0.47405,0.73352 0.70899,1.10156 0.21977,0.34429 0.44104,0.68806 0.65625,1.03516 0.22111,0.3566 0.43609,0.71665 0.65235,1.07616 0.18985,0.31564 0.38228,0.62942 0.56836,0.94728 0.25781,0.44037 0.50729,0.88548 0.7578,1.33008 0.15385,0.27302 0.31184,0.54376 0.46289,0.81834 0.24091,0.4379 0.47327,0.88046 0.70703,1.32227 0.1492,0.28195 0.30101,0.56219 0.44728,0.84571 0.23128,0.44833 0.45382,0.9013 0.67772,1.35352 0.14209,0.28694 0.2867,0.57284 0.4258,0.86132 0.1826,0.37877 0.35774,0.76118 0.53514,1.14257 0.17814,0.38299 0.3584,0.76484 0.53126,1.1504 0.16032,0.35761 0.31301,0.71831 0.46874,1.07812 0.1629,0.37635 0.33046,0.7502 0.48828,1.12891 0.18646,0.44738 0.36364,0.89896 0.54298,1.34961 0.1236,0.31057 0.25089,0.61955 0.37109,0.93164 0.19275,0.50052 0.37663,1.00539 0.56055,1.50976 0.0953,0.26128 0.19421,0.52091 0.2871,0.78321 0.1613,0.45546 0.31275,0.91456 0.4668,1.37304 0.11574,0.34439 0.23606,0.68715 0.34766,1.03322 0.11773,0.36524 0.22669,0.73448 0.33984,1.10156 0.13026,0.42276 0.26257,0.84436 0.38672,1.26952 0.10173,0.34829 0.19544,0.69896 0.29297,1.04884 0.1256,0.4507 0.25439,0.90022 0.37304,1.3535 0.0815,0.3111 0.15429,0.62522 0.23243,0.9375 0.1236,0.49425 0.24993,0.98721 0.36524,1.48438 0.0107,0.0475 0.0223,0.0949 0.0332,0.14258 l 3.16406,-8.21484 c -0.0503,-0.23383 -0.1044,-0.466 -0.15626,-0.69923 -0.14368,-0.64569 -0.27952,-1.29445 -0.43554,-1.93553 -0.003,-0.0133 -0.007,-0.026 -0.009,-0.0391 -0.27512,-1.12851 -0.57004,-2.24964 -0.88281,-3.36328 -0.86206,-3.06923 -1.87555,-6.07485 -3.01367,-9.02148 -0.11453,-0.29649 -0.22067,-0.59741 -0.33789,-0.89257 -0.82995,-2.08967 -1.73042,-4.14352 -2.69336,-6.16407 -0.0289,-0.0607 -0.0549,-0.12293 -0.084,-0.1836 -0.82167,-1.71532 -1.70114,-3.39866 -2.61523,-5.06053 -0.20257,-0.36827 -0.39651,-0.74189 -0.60352,-1.10743 -0.41083,-0.7255 -0.83945,-1.43969 -1.26757,-2.15429 -0.1525,-0.25452 -0.29652,-0.51448 -0.45118,-0.76759 -0.47698,-0.78065 -0.97332,-1.54937 -1.4707,-2.31641 -0.0819,-0.12627 -0.15978,-0.25499 -0.24219,-0.38085 z m -176.40234,0.98047 c -0.167533,0.26233 -0.342626,0.51931 -0.507813,0.78321 -0.242,0.3867 -0.47012,0.78183 -0.707027,1.17187 -0.37928,0.62439 -0.76288,1.24608 -1.128906,1.87892 -0.261707,0.45253 -0.508814,0.91429 -0.763667,1.37108 -0.32288,0.5786 -0.653093,1.153 -0.964853,1.73828 -0.301747,0.5666 -0.585734,1.14407 -0.876947,1.7168 -0.246867,0.48546 -0.503,0.96528 -0.7422,1.45508 -3.142853,6.43585 -5.62188,13.24365 -7.3496,20.33789 -0.23848,0.97936 -0.45444,1.96695 -0.664066,2.95703 l 1.91016,5.26368 c 0.08067,-0.30716 0.171933,-0.61006 0.255866,-0.91602 0.130934,-0.47746 0.25972,-0.95516 0.398427,-1.42969 0.07573,-0.25901 0.15832,-0.51531 0.236333,-0.77344 0.15636,-0.51737 0.313,-1.03508 0.47852,-1.54883 0.0984,-0.3053 0.203107,-0.6081 0.30468,-0.9121 0.164147,-0.49132 0.327534,-0.98284 0.5,-1.47071 0.09693,-0.27401 0.19936,-0.54545 0.298827,-0.81836 0.1774,-0.48669 0.3554,-0.97391 0.541013,-1.45703 0.1136,-0.29562 0.23296,-0.58856 0.349614,-0.88281 0.191666,-0.48357 0.382173,-0.96744 0.582026,-1.44727 0.118133,-0.28346 0.242373,-0.56357 0.36328,-0.8457 0.193493,-0.45152 0.38524,-0.90348 0.585947,-1.35156 0.149026,-0.33271 0.306013,-0.6614 0.458973,-0.99219 0.19964,-0.43172 0.397227,-0.86459 0.60352,-1.29297 0.112133,-0.23296 0.2296,-0.46335 0.34376,-0.69531 0.24936,-0.50677 0.499173,-1.01369 0.7578,-1.51563 0.124533,-0.24153 0.25428,-0.4803 0.380867,-0.7207 0.25064,-0.476 0.500853,-0.95235 0.759773,-1.42383 0.139933,-0.25483 0.285387,-0.50627 0.42772,-0.75976 0.26276,-0.46797 0.52604,-0.93509 0.79688,-1.39844 0.149547,-0.2558 0.303093,-0.50931 0.45508,-0.76367 0.258067,-0.43194 0.516187,-0.86326 0.78124,-1.29102 0.183907,-0.29675 0.37332,-0.59004 0.56056,-0.88476 0.258707,-0.40726 0.516227,-0.81544 0.78124,-1.21875 0.181787,-0.27661 0.369973,-0.54949 0.554693,-0.82421 0.264147,-0.39288 0.526747,-0.7868 0.796867,-1.17579 0.19628,-0.28265 0.398267,-0.56125 0.597667,-0.8418 -0.188507,-0.78878 -1.183467,-4.95033 -2.156254,-9.02149 z m 131.01758,4.50783 -7.95508,24.05077 c 8.16864,3.91248 15.42534,9.03662 21.38672,15.11524 0.65002,0.6628 1.27356,1.34456 1.89258,2.02929 l 13.9082,-19.14453 c -7.66808,-9.01936 -17.64363,-16.57416 -29.23242,-22.05077 z m -89.05663,0.25585 c -10.87351,5.22152 -20.31955,12.2694 -27.72852,20.65234 l 12.27538,17.70898 c 6.2187,-6.19916 13.77727,-11.40086 22.30078,-15.27539 z m -37.88478,8.97852 c -0.10066,0.15109 -0.202983,0.30144 -0.30273,0.45312 -0.262346,0.39892 -0.517613,0.80217 -0.77344,1.20508 -0.162973,0.25668 -0.32992,0.51124 -0.49024,0.76953 -0.264306,0.42585 -0.520333,0.85695 -0.777333,1.28711 -0.143467,0.24014 -0.28852,0.47924 -0.429693,0.7207 -0.249374,0.42652 -0.492227,0.85652 -0.734374,1.28711 -0.138013,0.24543 -0.278413,0.48959 -0.414053,0.73633 -0.27028,0.4916 -0.532187,0.98766 -0.792973,1.48438 -0.09853,0.18781 -0.19964,0.37396 -0.29688,0.56249 -0.244307,0.47367 -0.481174,0.95155 -0.716787,1.42969 -0.115333,0.23407 -0.23444,0.46604 -0.347667,0.70118 -0.192746,0.40018 -0.377826,0.8038 -0.564453,1.20702 -0.147213,0.31811 -0.298027,0.63512 -0.4414,0.95508 -0.190587,0.42526 -0.372907,0.85471 -0.55664,1.2832 -0.1176,0.27424 -0.23876,0.54674 -0.35352,0.82227 -0.165347,0.39695 -0.321027,0.79765 -0.480467,1.19727 -0.141466,0.35454 -0.285093,0.70784 -0.42188,1.06445 -0.113866,0.29681 -0.22144,0.59631 -0.332026,0.89453 -0.158574,0.42764 -0.318894,0.85466 -0.470707,1.28515 -0.124667,0.35363 -0.2412,0.71089 -0.36132,1.06641 -0.129333,0.38278 -0.262773,0.76351 -0.38672,1.14844 -0.148093,0.45984 -0.28736,0.92386 -0.427747,1.38672 -0.08413,0.27747 -0.172546,0.55348 -0.253893,0.83203 -0.13916,0.47641 -0.26752,0.95607 -0.39844,1.43555 -0.07893,0.2892 -0.162347,0.57689 -0.23828,0.86718 -0.124133,0.47459 -0.239413,0.95222 -0.35548,1.4297 -0.06907,0.28408 -0.142826,0.56648 -0.208973,0.85156 -0.119333,0.51444 -0.227987,1.03312 -0.337893,1.55077 -0.05547,0.26072 -0.115067,0.51975 -0.167974,0.78125 -0.09787,0.48382 -0.1858,0.97054 -0.275386,1.45703 l 3.865226,5.98633 c 0.153,-0.54918 0.308267,-1.09792 0.474613,-1.64257 2.82708,-9.25632 7.578627,-17.84472 13.85743,-25.46289 z m 167.52149,0.9414 -6.08985,11.52734 c 6.54641,8.32279 11.2976,17.74718 13.76172,27.89258 0.0951,0.39149 0.17931,0.78609 0.26759,1.17969 l 5.00194,-6.72071 c -0.0917,-0.60696 -0.18441,-1.21337 -0.28906,-1.8164 -0.0511,-0.29418 -0.11,-0.58568 -0.16406,-0.8789 -0.0879,-0.47647 -0.17362,-0.95386 -0.26953,-1.42774 -0.066,-0.32616 -0.14117,-0.6497 -0.21093,-0.97461 -0.10134,-0.47172 -0.19942,-0.94501 -0.3086,-1.41405 -0.003,-0.0143 -0.007,-0.0285 -0.009,-0.0429 -0.1782,-0.76374 -0.36754,-1.52286 -0.56641,-2.2793 -0.003,-0.0107 -0.005,-0.0223 -0.008,-0.0332 -0.19517,-0.74118 -0.40049,-1.47899 -0.61523,-2.2129 -0.0707,-0.24134 -0.148,-0.48016 -0.22072,-0.7207 -0.15669,-0.51838 -0.31408,-1.03619 -0.48046,-1.55078 -0.0583,-0.18036 -0.12014,-0.35918 -0.17968,-0.53906 -0.19118,-0.57806 -0.38462,-1.15544 -0.5879,-1.72852 -0.007,-0.0155 -0.0107,-0.0315 -0.0156,-0.0469 -0.25592,-0.7202 -0.52208,-1.43633 -0.79686,-2.14844 -0.0704,-0.18246 -0.14518,-0.363 -0.2168,-0.54492 -0.21126,-0.53648 -0.42268,-1.07184 -0.64454,-1.60352 -0.10813,-0.25912 -0.22338,-0.51548 -0.33398,-0.77344 -0.19714,-0.45976 -0.39264,-0.92092 -0.59766,-1.37696 -0.0996,-0.22149 -0.20524,-0.43953 -0.30664,-0.66014 -0.23665,-0.5148 -0.47408,-1.0292 -0.7207,-1.53907 -0.0617,-0.1276 -0.12707,-0.25351 -0.18946,-0.38087 -0.27664,-0.56488 -0.55694,-1.12884 -0.84569,-1.68749 -0.0969,-0.18775 -0.19849,-0.37351 -0.29688,-0.56055 -0.26419,-0.50216 -0.52885,-1.00306 -0.80273,-1.5 -0.1028,-0.18644 -0.20842,-0.37094 -0.3125,-0.55664 -0.28416,-0.50684 -0.57108,-1.01245 -0.86524,-1.51366 -0.0903,-0.15395 -0.18412,-0.30559 -0.2754,-0.45899 -0.30868,-0.51875 -0.62013,-1.03631 -0.93944,-1.54883 -0.0868,-0.13929 -0.17612,-0.2772 -0.26368,-0.41601 -0.19956,-0.31641 -0.40384,-0.6294 -0.60741,-0.94336 z m -87.4629,9.73048 c -10.76835,0.12853 -20.94461,2.20036 -30.06249,5.82225 l 7.33789,20.70899 c 6.87325,-2.49756 14.44959,-3.90428 22.39648,-3.95118 z m 4.26758,0.0449 -0.32812,22.64844 c 7.31667,0.40731 14.27328,1.95165 20.58594,4.44531 l 8.98046,-20.77148 c -8.85164,-3.70316 -18.74236,-5.94127 -29.23828,-6.32227 z m -76.99999,4.36328 c -6.48896,8.25164 -11.101363,17.61747 -13.316403,27.67187 l 12.798813,11.88477 c 2.53755,-8.10067 6.87439,-15.56877 12.62696,-22.08593 z m 151.61523,1.18751 -13.83789,19.04492 c 5.38695,6.814 9.29923,14.539 11.32031,22.86524 0.0409,0.16836 0.0681,0.34089 0.10746,0.50976 l 15.42578,-12.81836 c -1.81432,-10.75128 -6.35896,-20.78387 -13.01562,-29.60156 z m -112.87499,1.91016 c -8.10283,3.7422 -15.2536,8.7351 -21.07814,14.666 l 12.92383,16.01758 c 0.19409,-0.17976 0.37876,-0.36574 0.57617,-0.54297 4.2605,-3.8246 9.29042,-7.05433 14.87891,-9.53125 z m 71.38671,0.61913 -8.96289,20.72656 c 5.74355,2.74392 10.85955,6.28655 15.08984,10.46875 0.56701,0.56056 1.11548,1.13412 1.65039,1.7168 l 14.35938,-16.3418 c -5.9161,-6.71048 -13.45418,-12.36456 -22.13672,-16.57031 z m 70.55274,8.76367 -0.8711,2.26172 -2.24805,5.83008 v 0.003 c 0.0733,0.54658 0.14959,1.09315 0.21289,1.64258 0.0403,0.35024 0.0712,0.70332 0.10747,1.05468 0.0516,0.49977 0.1072,0.99801 0.1504,1.5 2.3e-4,0.003 -2.3e-4,0.005 0,0.008 0.0707,0.8228 0.12987,1.64798 0.17773,2.47656 0.0297,0.51401 0.0475,1.03073 0.0684,1.54686 0.0141,0.35095 0.0349,0.70084 0.0449,1.05275 0.0244,0.85192 0.0371,1.70709 0.0371,2.56445 0,1.48826 -0.0383,2.96956 -0.11133,4.4414 -0.0339,0.68172 -0.0757,1.36111 -0.12493,2.03907 1.68612,-6.44803 2.76045,-13.14183 3.18164,-20.01367 -0.0707,-1.07674 -0.15168,-2.15138 -0.25586,-3.21876 -0.10426,-1.06805 -0.23181,-2.12932 -0.36914,-3.18749 z M 80.958007,183.0381 c -0.122533,0.99687 -0.24084,1.99449 -0.333986,3 -4.14e-4,0.005 -0.0027,0.009 -0.0027,0.0137 -0.0856,0.92522 -0.144693,1.85883 -0.20508,2.79102 0.139653,2.25149 0.3274,4.49069 0.607427,6.70117 0.129066,1.01841 0.291106,2.02613 0.449213,3.03516 0.04333,-1.0412 0.1044,-2.07899 0.1836,-3.11133 0.02093,-0.2739 0.03507,-0.54902 0.05853,-0.82227 0.05947,-0.69197 0.1316,-1.38063 0.207027,-2.06836 0.0156,-0.14223 0.02853,-0.28569 0.04493,-0.42773 0.04947,-0.43191 0.110267,-0.86086 0.166014,-1.29102 0.05493,-0.4241 0.105066,-0.84912 0.166013,-1.27148 0.02227,-0.15425 0.0492,-0.30692 0.07227,-0.46094 0.0764,-0.5103 0.155133,-1.01966 0.240226,-1.52734 z m 41.291013,7.79883 c -5.47531,6.38936 -9.49703,13.69222 -11.68164,21.57228 l 15.39063,9.58006 c 0.16868,-0.50336 0.33288,-1.0078 0.52148,-1.5039 1.91076,-5.02588 4.83874,-9.66898 8.57228,-13.78124 z m 57.58789,1.48242 c -7.40446,0.0529 -14.41018,1.34998 -20.74022,3.63086 l 10.12304,22.31056 c 3.20349,-1.08754 6.66255,-1.74895 10.26757,-1.9004 z m 4.26563,0.11334 -0.3457,23.9121 c 3.09392,0.074 6.08635,0.52048 8.91015,1.29298 l 10.30275,-21.1582 c -5.76143,-2.24935 -12.12904,-3.65658 -18.8672,-4.04688 z m -97.972653,0.94921 c -0.05667,0.53723 -0.1156,1.07336 -0.16212,1.61328 -10e-4,0.012 -0.0027,0.0235 -0.004,0.0352 -0.13624,1.59101 -0.228973,3.19348 -0.275386,4.80664 -2.27e-4,0.008 2.26e-4,0.0156 0,0.0233 -0.02307,0.81038 -0.0352,1.6239 -0.0352,2.43946 0,6.68465 0.792586,13.19182 2.275386,19.46289 0.09427,0.2306 0.19128,0.45969 0.28712,0.68945 0.01067,0.0243 0.02107,0.0481 0.0312,0.0723 l 1.42968,1.82813 c -0.20348,-1.0415 -0.385827,-2.08958 -0.541013,-3.14454 -0.478307,-3.25151 -0.724614,-6.56604 -0.724614,-9.92968 0,-4.27427 0.401587,-8.4657 1.166027,-12.55274 l -2.941413,-4.56054 z m 156.363273,0.13535 -14.32812,16.30858 c 3.67634,4.82644 6.29404,10.2594 7.59375,16.0918 l 17.15625,-9.69726 c -0.1499,-0.76052 -0.30281,-1.5205 -0.48633,-2.27148 -1.80337,-7.37982 -5.23033,-14.27527 -9.93555,-20.43164 z m 38.8379,2.30858 -4.66798,6.27736 c 0.31715,2.34051 0.51972,4.71192 0.5918,7.11132 0.0205,0.6864 0.0312,1.37368 0.0312,2.06446 0,5.44134 -0.6449,10.7519 -1.87305,15.88086 -0.13067,0.54572 -0.28588,1.08343 -0.42968,1.625 l 2.30273,-1.96876 0.88672,-0.75781 c 2.21678,-7.57267 3.41406,-15.53271 3.41406,-23.75781 0,-2.17788 -0.0929,-4.33534 -0.25586,-6.47462 z m -126.19921,1.7129 c -5.40723,2.4149 -10.20986,5.58513 -14.21486,9.32032 l 17.33594,17.66014 c 2.05402,-1.8126 4.41857,-3.37564 7.01758,-4.63672 z m 51.74999,0.65038 -5.81641,11.94532 -4.32813,8.88868 c 3.20368,1.31438 6.10285,3.06902 8.57618,5.17772 l 10.27343,-8.86328 6.75,-5.82616 c -4.14179,-4.55426 -9.39707,-8.41576 -15.45507,-11.32228 z m -113.59766,4.35744 c -0.30936,2.23798 -0.508773,4.50348 -0.578133,6.79492 -0.01947,0.64412 -0.02933,1.2896 -0.02933,1.9375 0,6.80506 1.095293,13.40154 3.121093,19.68358 h 0.0013 l 9.42577,4.57618 c -0.0984,-0.57256 -0.19865,-1.14328 -0.27929,-1.7207 -0.35236,-2.52292 -0.53516,-5.0919 -0.53516,-7.69728 0,-4.10936 0.47063,-8.11889 1.33008,-12.00976 z m 179.48633,3.13476 -15.18164,12.61719 c 0.36361,2.56481 0.57227,5.17125 0.57227,7.82225 0,4.79191 -0.61591,9.45712 -1.7793,13.94728 l 12.53906,-6.28712 c 2.65504,-7.11454 4.09765,-14.67112 4.09765,-22.50194 0,-1.88227 -0.0855,-3.74878 -0.24804,-5.59766 z m -134.83789,4.23242 c -3.75173,4.22797 -6.55889,9.0265 -8.16993,14.19336 l 21.6543,9.9336 c 0.9245,-2.32374 2.22847,-4.49642 3.85938,-6.46486 z m 87.11914,2.89258 -16.70313,14.41016 c 2.05953,2.39535 3.63828,5.09988 4.61328,8.02734 l 18.83985,-7.4082 c -1.04884,-5.40616 -3.38218,-10.48971 -6.75,-15.0293 z m -115.51563,3.98632 c -0.3786,2.0437 -0.63816,4.11931 -0.76562,6.22266 -0.0623,1.02877 -0.0937,2.06442 -0.0937,3.10546 0,3.95254 0.45824,7.81914 1.32423,11.56642 l 14.77538,4.67969 c -0.0719,-0.33792 -0.14808,-0.67515 -0.21093,-1.01563 -0.42165,-2.28385 -0.64064,-4.62444 -0.64064,-7.00976 0,-2.75273 0.30781,-5.43945 0.86328,-8.05274 l -1.00976,-0.6289 z m 74.15625,3.90235 -0.20703,14.28516 -0.009,0.68945 c 0.88961,0.0935 1.76216,0.23263 2.61329,0.42578 l 4.74804,-14.04687 c -2.24409,-0.69689 -4.63877,-1.16236 -7.14453,-1.35352 z m 69.9043,0.0431 -8.08008,4.56641 -9.03125,5.10351 c 0.0519,0.50897 0.10893,1.01744 0.14063,1.53125 0.0492,0.79565 0.0741,1.59583 0.0741,2.40235 0,3.86005 -0.57732,7.60236 -1.65624,11.17773 l 16.21093,-3.16407 h 0.003 c 1.71475,-5.17249 2.63867,-10.61604 2.63867,-16.23437 0,-1.81416 -0.1112,-3.60743 -0.29883,-5.38281 z m -74.17384,0.0312 c -2.9892,0.30173 -5.8153,0.9887 -8.39843,2 l 4.83985,13.37694 c 0.51574,-0.1228 1.0373,-0.23573 1.56836,-0.32225 0.58354,-0.0951 1.17629,-0.16547 1.77538,-0.21484 z m 15.39259,2.83008 -4.67969,13.84961 c 0.38094,0.17185 0.76172,0.34439 1.12694,0.53711 0.34136,0.1801 0.66564,0.38048 0.9922,0.57812 l 9.14258,-10.57227 c -1.87994,-1.72499 -4.09856,-3.21216 -6.58203,-4.39257 z m -27.65625,1.02733 c -2.00603,1.1538 -3.80417,2.51808 -5.3418,4.05275 l 7.82813,10.05273 c 0.69518,-0.43703 1.4288,-0.82904 2.1914,-1.1836 z m -38.42577,3.70117 c -0.22814,1.27491 -0.3945,2.5662 -0.47656,3.87306 -0.0445,0.70988 -0.0664,1.42262 -0.0664,2.14062 0,3.15375 0.43309,6.2314 1.2539,9.19531 l 20.58594,1.33789 c -0.11347,-0.89417 -0.18164,-1.80053 -0.18164,-2.72069 0,-1.35415 0.1264,-2.68053 0.36524,-3.97267 z m 75.55273,2.84767 -8.6543,10.01172 c 0.2524,0.2506 0.5103,0.49763 0.74414,0.76172 0.27098,0.30607 0.51704,0.62981 0.76172,0.95312 l 10.31249,-5.30079 c -0.62265,-2.28789 -1.69971,-4.45488 -3.16405,-6.42577 z m -45.25001,0.875 c -1.10651,1.66033 -1.94068,3.44657 -2.47656,5.31444 2.25321,1.82792 5.25128,4.26036 7.88281,6.39455 0.54577,-0.83355 1.17709,-1.61642 1.88477,-2.34571 l -5.04297,-6.47656 z m 73.33009,0.15039 -18.44336,7.25194 c 0.11013,0.88663 0.16796,1.78731 0.16796,2.70119 0,1.37587 -0.13826,2.72361 -0.38867,4.03905 h 16.625 c 1.36975,-3.76545 2.10547,-7.74354 2.10547,-11.85156 0,-0.71798 -0.0217,-1.43076 -0.0664,-2.14062 z m 42.82421,2.02149 -2.77344,2.37108 c -0.89961,2.26824 -1.92449,4.489 -3.05273,6.66016 0.24346,-0.33791 0.49877,-0.66689 0.73828,-1.00781 1.81798,-2.58775 3.50625,-5.27031 5.08789,-8.02343 z m -177.216796,2.53711 c 2.413466,5.62438 5.603116,10.9404 9.464856,15.86132 2.59992,2.85092 5.35578,5.55737 8.25389,8.10546 l 0.67775,0.18164 c -0.3928,-0.52189 -0.78464,-1.0442 -1.16016,-1.57617 -3.42415,-4.85055 -6.12344,-10.11348 -7.9668,-15.68359 -0.26334,-0.79573 -0.51027,-1.59829 -0.73828,-2.40625 -0.0363,-0.12853 -0.0641,-0.25979 -0.0996,-0.38867 z m 168.337886,3.1035 -11.73633,5.88672 c -2.3388,6.23623 -5.74939,12.06334 -10.06053,17.31836 -0.3872,0.47196 -0.78806,0.93576 -1.18947,1.39844 l 3.81641,-0.30468 c 8.15023,-6.93417 14.6997,-15.17208 19.16992,-24.29884 z m -87.16601,0.0449 c -0.85269,0.0888 -1.68232,0.22397 -2.47657,0.42188 v 11.25 c 0.49542,-0.0939 0.99368,-0.18292 1.5,-0.25 0.26714,-0.0353 0.54064,-0.0523 0.81054,-0.0801 l 0.0527,-3.62694 z m 4.26757,0.0449 -0.1621,11.18165 c 0.81433,0.0397 1.62062,0.0993 2.4121,0.20703 0.1828,0.0249 0.3596,0.0653 0.54102,0.0937 l -0.50586,-11.04884 c -0.73458,-0.19214 -1.49896,-0.33488 -2.28516,-0.4336 z m -11.00975,2.10743 c -0.3892,0.22716 -0.7634,0.46772 -1.1211,0.72265 l -0.67188,10.73047 c 0.58322,-0.26974 1.18087,-0.51874 1.79298,-0.74608 z m 35.6621,0.0215 -6.59961,3.39258 6.1582,0.56445 c 0.28716,-1.26261 0.44336,-2.55961 0.44336,-3.88476 0,-0.0243 -0.001,-0.0481 -0.001,-0.0723 z m -18.01172,0.14063 0.30664,6.70507 0.16211,3.55274 c 0.72442,0.24152 1.43798,0.50126 2.125,0.80078 0.0172,0.008 0.0336,0.0159 0.0508,0.0235 l -0.74219,-4.54688 -0.96289,-5.90428 -0.003,-0.001 c -0.30181,-0.21885 -0.61265,-0.42983 -0.93749,-0.62891 z m -34.17578,0.082 c 0.012,1.35971 0.18456,2.68984 0.49805,3.98243 l 6.06251,2.24022 c 0.004,-0.0184 0.009,-0.0363 0.0137,-0.0547 0.0513,-0.23502 0.10067,-0.47043 0.16407,-0.70118 v -0.003 c -1.74824,-1.41746 -3.96388,-3.21452 -6.73828,-5.46484 z m -44.48047,0.30079 c 2.20983,6.55457 5.69959,12.66801 10.24805,18.13085 0.50303,0.60416 1.02036,1.20108 1.54883,1.78907 l 5.16407,-0.3047 6.57812,-0.38672 c -3.89312,-4.32662 -6.89444,-9.23688 -8.77344,-14.55273 z m 138.05273,4.45116 -16.14648,3.14844 c -2.10317,4.73736 -5.12128,9.10164 -8.86328,12.96094 l 12.79101,1.61915 c 5.11195,-5.15741 9.22378,-11.02249 12.07814,-17.39455 0.0493,-0.11026 0.0919,-0.22334 0.14061,-0.33398 z m -118.4785,0.85742 c 0.0151,0.0356 0.0279,0.0719 0.0431,0.10747 2.03715,4.77485 5.11356,9.17248 9.02539,13.00783 0.0632,0.062 0.12973,0.12186 0.19336,0.18358 0.95243,-0.37437 3.92643,-1.54581 7.88672,-3.06641 2.29465,-0.88105 4.59705,-1.75529 6.35937,-2.39843 0.0149,-0.005 0.0221,-0.008 0.0371,-0.0137 -1.496,-2.00157 -2.67765,-4.18885 -3.47656,-6.51759 z m 35.61132,1.62306 c -0.0917,0.44225 -0.16331,0.88876 -0.1875,1.3418 l -0.1016,-0.007 -0.92577,5.96092 c 0.25836,-0.21955 0.52641,-0.43003 0.79688,-0.63867 z m 33.34179,0.0781 c 0.0353,0.27008 0.0843,0.53575 0.10347,0.81055 l -0.0879,0.007 1.59766,5.76759 c 1.92984,-1.78819 3.48866,-3.81304 4.5957,-6.01367 z m 12.50782,0.84375 c -1.07388,2.61654 -2.63584,5.03496 -4.58399,7.18556 l 11.43555,4.60156 c 3.82645,-3.47182 6.93693,-7.44947 9.17188,-11.78712 z m -53.78711,1.21485 c 0.25163,0.40737 0.51978,0.80819 0.80274,1.20117 0.0863,-0.084 0.14989,-0.13993 0.23632,-0.22461 0.21752,-0.21309 0.22024,-0.22393 0.43164,-0.43359 z m 24.72851,3.73047 0.86718,12.70898 c 1.40774,9.6e-4 2.79664,0.0705 4.16212,0.20508 0.40488,0.0399 0.80251,0.0972 1.20312,0.14844 l -2.92578,-12.61328 c -1.06527,-0.22572 -2.17096,-0.3769 -3.30664,-0.44922 z m -4.27539,0.12106 c -0.89791,0.10667 -1.77003,0.26683 -2.61915,0.47071 l -0.91014,13.01172 c 0.31225,-0.0656 0.62402,-0.1328 0.93945,-0.1914 1.12775,-0.2094 2.27713,-0.36939 3.4414,-0.48633 z m 12.33593,1.93555 2.33204,10.05079 0.41796,1.79882 c 1.37146,0.3368 2.70954,0.73643 4.00587,1.20508 0.0845,0.0307 0.16577,0.0665 0.25,0.0977 l -4.64844,-11.83595 c -0.5154,-0.33732 -1.0452,-0.66084 -1.60547,-0.95507 -0.24374,-0.128 -0.50026,-0.24205 -0.75196,-0.36133 z m -19.33983,0.0957 c -0.69192,0.33752 -1.35067,0.70987 -1.97852,1.11134 l -3,13.13281 c 1.31429,-0.61052 2.68088,-1.15179 4.0918,-1.61915 l 0.0763,-1.08593 z m -14.50391,1.61914 c -0.45639,0.1554 -0.95921,0.32856 -1.64844,0.58008 -1.71805,0.627 -4.00945,1.49628 -6.29297,2.37305 -2.90488,1.11536 -4.07132,1.57765 -5.79296,2.25196 3.49801,2.76132 7.481,5.13533 11.85156,7.02733 0.43045,0.18635 0.86882,0.36408 1.30664,0.54103 l 2.85742,-7.52149 0.45898,-2.95703 c -0.96935,-0.71303 -1.88132,-1.48312 -2.74023,-2.29493 z m 46.8125,1.67969 c -0.42544,0.33544 -0.85789,0.66432 -1.30469,0.97852 l 0.57617,2.08204 3.47266,6.45897 c 3.00613,-1.45977 5.80852,-3.15321 8.37109,-5.04688 l -0.97656,-0.39257 z m -40.09961,4.0918 c -0.13226,0.27117 -0.26365,0.54308 -0.375,0.82032 l -0.001,10e-4 v 0.001 l -3.96875,10.44336 c 0.68507,-0.54902 1.39548,-1.07376 2.1328,-1.57423 z m -25.29102,0.91992 -11.83788,0.69923 c 5.17992,4.83561 11.27466,8.98337 18.07812,12.23828 0.65421,0.31297 1.31737,0.61373 1.98437,0.91014 l 6.50391,-4.51561 c -2.86266,-1.25813 -5.58372,-2.71369 -8.13086,-4.34961 -0.52528,-0.33738 -1.0443,-0.6809 -1.55469,-1.0332 -1.77875,-1.2279 -3.45913,-2.55019 -5.04297,-3.94923 z m 81.33594,1.07812 c -3.34209,2.76883 -7.09491,5.19289 -11.17773,7.19336 l 3.17384,5.9004 1.33397,0.38281 c 7.28619,-3.04136 13.86199,-7.06045 19.48243,-11.85352 z m 20.62891,1.98828 -2.07422,0.16603 c -1.50877,1.44257 -3.08264,2.83497 -4.73438,4.1582 -0.0748,0.0599 -0.1534,0.11613 -0.22851,0.17577 2.43769,-1.40455 4.78252,-2.90768 7.03711,-4.5 z m -56.44531,3.45313 1.05859,15.49609 c 2.97085,0.0107 5.88489,0.21818 8.7207,0.6211 0.2176,0.0309 0.4298,0.0743 0.64648,0.10746 l -4.25781,-15.66406 c -1.98971,-0.34748 -4.0506,-0.54284 -6.16796,-0.56055 z m -4.29883,0.20118 c -1.76629,0.1853 -3.47214,0.50916 -5.125,0.92577 l -2.10742,15.49805 c 2.6677,-0.50444 5.42726,-0.83297 8.25781,-1 z m 15.20312,1.51562 4.18555,15.40235 c 1.99608,0.46564 3.94812,1.01898 5.83984,1.66992 0.83815,0.2884 1.66307,0.5988 2.47852,0.92188 l -0.54883,-1.20704 -6.61133,-14.57227 c -1.67405,-0.8702 -3.46039,-1.61517 -5.34375,-2.21484 z m -24.83398,0.86523 c -1.70429,0.68648 -3.30812,1.50069 -4.8086,2.41797 l -4.19921,14.99805 c 2.22452,-0.92238 4.55264,-1.69702 6.95898,-2.34374 z m -16.77344,5.36133 -1.73828,1.20703 c 0.37917,0.12413 0.76347,0.23559 1.14453,0.35548 z m 53.8672,0.90235 6.1914,13.64648 c 0.51872,0.2802 1.04113,0.55458 1.54688,0.84961 0.41468,0.24191 0.81308,0.50224 1.21874,0.75391 l -7.46874,-13.3086 -0.50392,-0.93749 c -0.3178,-0.34094 -0.64448,-0.67646 -0.98436,-1.00391 z m -47.59572,0.6582 c -2.99809,3.0966 -5.08295,6.761 -5.94335,10.70508 l -0.42188,-0.0917 -2.5293,5.68164 c 1.66664,-1.21408 3.42304,-2.3334 5.26758,-3.34572 z m 104.29297,1.50196 c 1.32093,0 2.64319,0.87804 2.66797,2.63085 0,7.36837 5.92332,13.28907 13.29688,13.28907 3.50563,0.0496 3.50563,5.28245 0,5.33202 -7.37302,0 -13.29688,5.92386 -13.29688,13.29688 -0.0208,1.50322 -1.27928,2.69348 -2.78125,2.6289 -1.41277,-0.0608 -2.53317,-1.21495 -2.55273,-2.6289 0,-7.37384 -5.91872,-13.29688 -13.28711,-13.29688 -3.50561,-0.0496 -3.50561,-5.28245 0,-5.33202 7.36892,0 13.28711,-5.9199 13.28711,-13.28907 0.0248,-1.75281 1.34508,-2.63085 2.66601,-2.63085 z m -78.51171,8.76366 0.79296,11.60938 c 0.0893,-2e-4 0.1762,-0.004 0.26563,-0.004 4.87519,0 9.5824,0.30032 14.07031,0.84569 l -4.54102,-11.16015 -0.11133,-0.27344 c -3.36532,-0.6416 -6.87292,-0.98628 -10.47656,-1.01758 z m -4.33985,0.12307 c -3.1616,0.20295 -6.23123,0.6584 -9.18554,1.33397 l -1.69922,11.26759 c 0.12374,-0.0177 0.25286,-0.0296 0.37695,-0.0469 0.0288,-0.004 0.0591,-0.007 0.0879,-0.009 1.2094,-0.16753 2.43344,-0.3188 3.67772,-0.44726 0.4899,-0.0508 0.99331,-0.0843 1.48827,-0.12894 0.79936,-0.0717 1.5925,-0.15153 2.40431,-0.20702 1.07333,-0.0737 2.16431,-0.12134 3.25781,-0.16602 0.122,-0.005 0.24108,-0.0149 0.36328,-0.0195 z m 19.92188,2.11913 4.44727,10.91798 c 3.89774,0.66696 7.58076,1.53841 10.98437,2.6035 l -6.14453,-9.86522 c -2.86607,-1.45564 -5.93375,-2.68163 -9.17383,-3.62696 -0.0372,-0.0107 -0.076,-0.0185 -0.11333,-0.0293 z m -33.60546,0.42968 c -2.81042,0.89604 -5.48399,2.00419 -8,3.29103 l -4.45118,10.32421 c 2.61547,-0.88792 5.39876,-1.66329 8.34179,-2.30858 0.003,-5.8e-4 0.005,-10e-4 0.008,-0.003 0.81064,-0.17767 1.63417,-0.34348 2.46679,-0.50195 z m -14.56642,7.32423 c -2.39266,1.75228 -4.54945,3.69801 -6.45312,5.79688 l -2.85742,5.83593 c 0.51496,-0.33282 1.06092,-0.65065 1.60742,-0.96874 0.0639,-0.0371 0.13107,-0.0725 0.19531,-0.10934 0.7634,-0.439 1.55169,-0.86552 2.37305,-1.27538 0.0567,-0.0283 0.1168,-0.0539 0.17382,-0.082 0.31012,-0.15326 0.6254,-0.30408 0.94336,-0.45314 z m 65.90625,1.34571 4.30664,6.87304 c 0.66202,0.2916 1.28776,0.6032 1.91798,0.9121 l -0.87696,-1.36132 -2.51172,-3.89649 c -0.90215,-0.87263 -1.84084,-1.72125 -2.83594,-2.52733 z m -32.23242,4.53125 0.52344,7.67187 -0.11134,0.008 0.21484,3.23242 h 19.25198 l -3.94336,-9.69153 c -3.77967,-0.58872 -7.76502,-0.98781 -11.9004,-1.14453 -0.007,-2.2e-4 -0.012,2.1e-4 -0.0176,0 -1.32522,-0.05 -2.66467,-0.0759 -4.01758,-0.0763 z m -4.36914,0.0957 c -0.22544,0.009 -0.44537,0.0247 -0.66992,0.0352 -0.99628,0.0469 -1.99108,0.0943 -2.96876,0.16796 -0.27425,0.0205 -0.5398,0.0536 -0.81249,0.0761 -1.02247,0.0852 -2.04179,0.17586 -3.04103,0.28906 -0.21462,0.0243 -0.42125,0.0567 -0.63475,0.082 -1.53291,0.18356 -3.028,0.40284 -4.49804,0.64844 l -1.13478,7.52344 -0.008,-10e-4 -0.30273,1.99609 h 14.78906 z m 25.29492,2.05079 2.30078,5.64844 -0.008,0.004 1.22461,3.00585 -0.26367,0.10747 h 12.61718 l -3.04882,-4.89257 c -3.75134,-1.546 -8.07309,-2.86539 -12.82226,-3.87306 z m -42.37109,0.10547 c -4.65766,1.01629 -8.89396,2.33164 -12.57226,3.86718 l -2.06446,4.79298 h 13.32618 z m -18.4707,6.77538 c -0.66955,0.39696 -1.30452,0.8023 -1.90626,1.21484 -0.0929,0.064 -0.18013,0.12907 -0.27148,0.19336 -0.22318,0.15667 -0.42166,0.31792 -0.63477,0.47658 h 2 z m 81.06445,0.80079 0.67578,1.08399 h 0.87304 c -0.3137,-0.23375 -0.60786,-0.47182 -0.94334,-0.70119 -0.005,-0.003 -0.009,-0.007 -0.0137,-0.0107 -0.18585,-0.12693 -0.39938,-0.24756 -0.59178,-0.37304 z m -92.0586,6.41796 -0.47656,1.06251 -3.13476,7.01562 h 106.79688 l -4.01368,-8.07813 z m 132.9375,17.5506 c 1.32094,0 2.64124,0.87609 2.66602,2.62891 0,2.85001 2.25469,5.1035 5.10937,5.1035 3.50563,0.0496 3.50563,5.28443 0,5.334 -2.85357,0 -5.10937,2.25758 -5.10937,5.10936 -0.0223,1.50219 -1.28028,2.68956 -2.78124,2.625 -1.41179,-0.0607 -2.52987,-1.21206 -2.55079,-2.625 0,-2.85233 -2.25724,-5.10936 -5.10547,-5.10936 -3.50562,-0.0496 -3.50562,-5.28442 0,-5.334 2.84934,0 5.10547,-2.25294 5.10547,-5.1035 0.0248,-1.75282 1.34507,-2.62891 2.66601,-2.62891 z m 31.82227,11.78321 c 1.32095,0 2.64319,0.87608 2.66797,2.6289 0,14.51658 11.71673,26.24024 26.24609,26.24024 3.50562,0.0496 3.50562,5.28441 0,5.33398 -14.52966,0 -26.24609,11.71938 -26.24609,26.25195 -0.0221,1.50325 -1.2832,2.69108 -2.78516,2.625 -1.41078,-0.062 -2.52798,-1.21303 -2.54882,-2.625 0,-14.53227 -11.72416,-26.25195 -26.24219,-26.25195 -3.50563,-0.0496 -3.50563,-5.28441 0,-5.33398 14.51773,0 26.24219,-11.72396 26.24219,-26.24024 0.0248,-1.75282 1.34508,-2.6289 2.66601,-2.6289 z M 41.026368,414.914 c 1.320947,0 2.643174,0.8761 2.667974,2.62891 0,4.8143 3.845333,8.66016 8.664053,8.66014 3.50564,0.0496 3.50564,5.28248 0,5.33204 -4.816813,0 -8.664053,3.85366 -8.664053,8.66796 -0.02067,1.5043 -1.282187,2.69306 -2.78516,2.62696 -1.41176,-0.0621 -2.52936,-1.21396 -2.548827,-2.62696 0,-4.81468 -3.847946,-8.66796 -8.6582,-8.66796 -3.505626,-0.0496 -3.505626,-5.28245 0,-5.33204 4.812147,0 8.658187,-3.84546 8.6582,-8.66014 0.0248,-1.75281 1.34508,-2.62891 2.666013,-2.62891 z m 292.820312,4.94336 c 1.32095,0 2.64319,0.87609 2.66797,2.62891 0,2.85056 2.2547,5.1035 5.10938,5.1035 3.50561,0.0496 3.50561,5.28443 0,5.334 -2.85303,0 -5.10938,2.25686 -5.10938,5.10742 -0.0208,1.50322 -1.27926,2.69153 -2.78125,2.62694 -1.41277,-0.0608 -2.5332,-1.213 -2.55273,-2.62694 0,-2.85056 -2.2539,-5.10742 -5.10156,-5.10742 -3.50563,-0.0496 -3.50563,-5.28442 0,-5.334 2.84933,0 5.10156,-2.25294 5.10156,-5.1035 0.0248,-1.75282 1.34508,-2.62891 2.66601,-2.62891 z m -222.21875,1.52344 c 1.32094,0 2.6432,0.87609 2.66797,2.62891 0,8.24437 6.63237,14.86914 14.88281,14.86914 3.50563,0.0496 3.50563,5.2844 0,5.33398 -8.24849,0 -14.88281,6.6369 -14.88281,14.88281 -0.0208,1.50321 -1.27927,2.69155 -2.78125,2.62696 -1.41278,-0.0608 -2.5332,-1.21303 -2.55274,-2.62696 0,-8.2464 -6.63137,-14.88281 -14.869143,-14.88281 -3.505627,-0.0496 -3.505627,-5.28442 0,-5.33398 8.239723,0 14.869143,-6.62428 14.869143,-14.86914 0.0248,-1.75282 1.3451,-2.62891 2.66602,-2.62891 z m 171.39649,4.84765 c 1.32092,0 2.64124,0.87804 2.66601,2.63087 0,6.302 5.05435,11.35545 11.36328,11.35545 3.50563,0.0496 3.50563,5.28443 0,5.334 -6.30772,0 -11.36328,5.05886 -11.36328,11.36719 -0.0221,1.50325 -1.28124,2.69108 -2.7832,2.625 -1.41077,-0.062 -2.52799,-1.21303 -2.54883,-2.625 0,-6.30803 -5.05957,-11.36719 -11.35938,-11.36719 -3.50563,-0.0496 -3.50563,-5.28442 0,-5.334 6.30104,0 11.35938,-5.05376 11.35938,-11.35545 0.0248,-1.75283 1.34507,-2.63087 2.66602,-2.63087 z"
       style="fill:#000000;fill-opacity:0.83977902;fill-rule:nonzero;stroke:none;stroke-width:0.13333331" /><path
       d="m 33.613169,176.73335 c -0.28,-0.38666 -0.56,-0.78666 -0.826667,-1.18666 -4.8,-7.08 -7.613333,-15.64 -7.613333,-24.84 0,-24.46667 19.826666,-44.30667 44.291999,-44.30667"
       style="fill:none;stroke:#000000;stroke-width:5.33333302;stroke-linecap:round;stroke-linejoin:miter;stroke-miterlimit:10;stroke-dasharray:none;stroke-opacity:1"
       id="path4704" /><path
       d="m 340.57316,175.61335 c -1.22667,1.82667 -2.6,3.54667 -4.10667,5.16 -0.25333,0.29334 -0.52133,0.57334 -0.80133,0.85334"
       style="fill:none;stroke:#000000;stroke-width:5.33333302;stroke-linecap:round;stroke-linejoin:miter;stroke-miterlimit:10;stroke-dasharray:none;stroke-opacity:1"
       id="path4706" /><path
       d="m 303.94516,106.40002 c 24.468,0 44.308,19.84 44.308,44.30667 0,9.2 -2.81467,17.76 -7.62667,24.84"
       style="fill:none;stroke:#000000;stroke-width:5.33333302;stroke-linecap:round;stroke-linejoin:miter;stroke-miterlimit:10;stroke-dasharray:none;stroke-opacity:1"
       id="path4708" /><path
       d="M 69.465168,106.40002 H 303.94516"
       style="fill:none;stroke:#000000;stroke-width:5.33333302;stroke-linecap:round;stroke-linejoin:miter;stroke-miterlimit:10;stroke-dasharray:none;stroke-opacity:1"
       id="path4710" /><path
       d="m 313.65316,172.01335 c -0.0413,0.0533 -0.0947,0.12 -0.148,0.17334"
       style="fill:none;stroke:#ffffff;stroke-width:5.33333302;stroke-linecap:round;stroke-linejoin:miter;stroke-miterlimit:10;stroke-dasharray:none;stroke-opacity:1"
       id="path4714" /><path
       d="m 59.759835,171.89335 c 0.573333,0.74667 1.590626,1.68751 13.777293,17.20751"
       style="fill:none;stroke:#000000;stroke-width:5.33333302;stroke-linecap:round;stroke-linejoin:miter;stroke-miterlimit:10;stroke-dasharray:none;stroke-opacity:1"
       id="path4720" /><path
       d="m 313.65316,172.01335 c -1.16,1.50667 -5.70508,6.5306 -18.63708,23.1306"
       style="fill:none;stroke:#000000;stroke-width:5.33333302;stroke-linecap:round;stroke-linejoin:miter;stroke-miterlimit:10;stroke-dasharray:none;stroke-opacity:1"
       id="path4724" /><path
       d="m 196.59983,27.21202 102.012,78.068"
       style="fill:none;stroke:#000000;stroke-width:5.33333302;stroke-linecap:round;stroke-linejoin:miter;stroke-miterlimit:10;stroke-dasharray:none;stroke-opacity:1"
       id="path4728" /><path
       d="m 53.131835,471.64001 c -27.865333,0 -50.4653324,-22.6 -50.4653324,-50.46666 0,-10.28 3.0666666,-19.82667 8.3333334,-27.8"
       style="fill:none;stroke:#000000;stroke-width:5.33300018;stroke-linecap:round;stroke-linejoin:miter;stroke-miterlimit:10;stroke-dasharray:none;stroke-opacity:1"
       id="path4732" /><path
       d="M 180.5465,471.64001 H 53.131835"
       style="fill:none;stroke:#000000;stroke-width:5.33333302;stroke-linecap:round;stroke-linejoin:miter;stroke-miterlimit:10;stroke-dasharray:none;stroke-opacity:1"
       id="path4734" /><path
       d="m 107.51983,269.49335 h -8.559996 c -6.32,0 -11.906667,3.14667 -15.266667,7.96 l -72.693331,115.92"
       style="fill:none;stroke:#000000;stroke-width:5.33333302;stroke-linecap:round;stroke-linejoin:miter;stroke-miterlimit:10;stroke-dasharray:none;stroke-opacity:1"
       id="path4736" /><path
       d="m 320.65316,471.64001 c 27.86667,0 50.46533,-22.6 50.46533,-50.46666 0,-10.28 -3.06666,-19.82667 -8.33333,-27.8"
       style="fill:none;stroke:#000000;stroke-width:5.33333302;stroke-linecap:round;stroke-linejoin:miter;stroke-miterlimit:10;stroke-dasharray:none;stroke-opacity:1"
       id="path4740" /><path
       d="M 180.5465,471.64001 H 320.65316"
       style="fill:none;stroke:#000000;stroke-width:5.33333302;stroke-linecap:round;stroke-linejoin:miter;stroke-miterlimit:10;stroke-dasharray:none;stroke-opacity:1"
       id="path4742" /><path
       d="m 266.2665,269.49335 h 8.56 c 6.32,0 11.90666,3.14667 15.26666,7.96 l 72.692,115.92"
       style="fill:none;stroke:#000000;stroke-width:5.33333302;stroke-linecap:round;stroke-linejoin:miter;stroke-miterlimit:10;stroke-dasharray:none;stroke-opacity:1"
       id="path4744" /><path
       d="m 77.866501,105.64002 c 4.905333,-4.26666 90.386669,-78.533334 90.386669,-78.533334 4,-2.8 8.86666,-4.439999 14.10666,-4.439999 5.30667,0 10.22667,1.679999 14.24,4.545333 0.0133,0 0.04,0.01467 0.0533,0.028"
       style="fill:none;stroke:#000000;stroke-width:5.33333302;stroke-linecap:round;stroke-linejoin:miter;stroke-miterlimit:10;stroke-dasharray:none;stroke-opacity:1"
       id="path4746" /><path
       d="m 244.4665,296.38668 c 7.03866,-8.85333 14.31866,-17.98666 21.56,-27.09333 30.12,-37.86666 59.77333,-75.12 70.43999,-88.52 2.38667,-3 3.82667,-4.8 4.10667,-5.16 0.0387,-0.04 0.0533,-0.0667 0.0533,-0.0667"
       style="fill:none;stroke:#000000;stroke-width:5.33333302;stroke-linecap:round;stroke-linejoin:miter;stroke-miterlimit:10;stroke-dasharray:none;stroke-opacity:1"
       id="path4748" /><path
       d="m 32.786502,175.54669 c 0,0 37.026666,46.52 74.746668,93.93333 6.34666,7.97333 12.70666,15.97333 18.92,23.77333"
       style="fill:none;stroke:#000000;stroke-width:5.33333302;stroke-linecap:round;stroke-linejoin:miter;stroke-miterlimit:10;stroke-dasharray:none;stroke-opacity:1"
       id="path4750" /><path
       d="m 127.37253,348.94002 c -3.13898,0 -17.25818,0 -26.14876,0"
       style="fill:none;stroke:#000000;stroke-width:4.90884638;stroke-linecap:round;stroke-linejoin:miter;stroke-miterlimit:10;stroke-dasharray:none;stroke-opacity:1"
       id="path4956" /><path
       d="m 87.197301,323.81886 c 6.221559,0 17.307789,0.13689 26.801469,0.27076 5.23493,0.0752 9.99513,0.13538 13.1744,0.18202 0.15089,0.0136 0.30294,0.0136 0.45268,0.0136"
       style="fill:none;stroke:#000000;stroke-width:5.28550911;stroke-linecap:round;stroke-linejoin:miter;stroke-miterlimit:10;stroke-dasharray:none;stroke-opacity:1"
       id="path4958" /><path
       d="m 177.8785,453.02001 -29.08,-19.41333 -9.25333,-6.17333 c -6.05334,-4.01467 -7.69334,-12.17467 -3.68134,-18.21333 1.32134,-1.97334 3.068,-3.49467 5.05334,-4.48 0.0147,0 0.0147,-0.0147 0.0267,-0.0147"
       style="fill:none;stroke:#000000;stroke-width:5.33333302;stroke-linecap:round;stroke-linejoin:miter;stroke-miterlimit:10;stroke-dasharray:none;stroke-opacity:1"
       id="path4960" /><path
       d="m 101.63717,348.94002 c 11.97333,7.94666 21.81333,14 21.81333,14 6.04133,4.012 7.69333,12.16 3.68133,18.212 -0.32133,0.48133 -0.65466,0.92133 -1.02666,1.348 -4.25334,4.91866 -11.61334,6.02666 -17.2,2.31866 0,0 -7.38667,-4.492 -18.440003,-11.74533"
       style="fill:none;stroke:#000000;stroke-width:5.33333302;stroke-linecap:round;stroke-linejoin:miter;stroke-miterlimit:10;stroke-dasharray:none;stroke-opacity:1"
       id="path4962" /><path
       d="m 85.663834,401.66002 c -3.44,-2.21467 -8,-5.17467 -13.505333,-8.81467"
       style="fill:none;stroke:#000000;stroke-width:5.33333302;stroke-linecap:round;stroke-linejoin:miter;stroke-miterlimit:10;stroke-dasharray:none;stroke-opacity:1"
       id="path4964" /><path
       d="m 86.917167,370.72535 c 1.214667,0.81333 2.4,1.60133 3.548,2.348 10.092003,6.70533 17.053333,11.34533 17.053333,11.34533 6.03867,4.01467 7.69333,12.16134 3.67867,18.2 -4.012,6.05334 -12.173336,7.69334 -18.23867,3.66667 0,0 -2.574666,-1.58667 -7.241333,-4.58667"
       style="fill:none;stroke:#000000;stroke-width:5.33333302;stroke-linecap:round;stroke-linejoin:miter;stroke-miterlimit:10;stroke-dasharray:none;stroke-opacity:1"
       id="path4966" /><path
       d="m 84.890501,401.12668 c 0.268,0.15867 0.52,0.34534 0.773333,0.53334 0.01333,0.012 0.04,0.0267 0.05333,0.0387 5.506667,4.05334 8.494667,12.94667 4.68,18.708 -4.013333,6.03867 -12.173333,7.69333 -18.238666,3.66667 0,0 -10.908,-6.56134 -23.919999,-15.18667 0,0 -23.106667,-12.84 -7.881334,-35.64 l 22.108,-32.548"
       style="fill:none;stroke:#000000;stroke-width:5.33333302;stroke-linecap:round;stroke-linejoin:miter;stroke-miterlimit:10;stroke-dasharray:none;stroke-opacity:1"
       id="path4968" /><path
       d="m 62.465168,340.69868 c 4.918666,-7.75866 14.466666,-16.82666 24.345333,-16.85333 0.01467,0 0.04133,0 0.05333,0 0.12,0 0.241333,0 0.36,0"
       style="fill:none;stroke:#000000;stroke-width:5.33333302;stroke-linecap:round;stroke-linejoin:miter;stroke-miterlimit:10;stroke-dasharray:none;stroke-opacity:1"
       id="path4970" /><path
       d="m 185.93183,471.77868 c -5.38667,0 -10.41333,-1.532 -14.68133,-4.18667 -11.50667,-7.98533 -20.18667,-13.78666 -20.18667,-13.78666 -6.04,-4.012 -7.69333,-12.172 -3.68,-18.21334 0.25334,-0.38666 0.53334,-0.75866 0.828,-1.10666"
       style="fill:none;stroke:#000000;stroke-width:5.33333302;stroke-linecap:round;stroke-linejoin:miter;stroke-miterlimit:10;stroke-dasharray:none;stroke-opacity:1"
       id="path4972" /><path
       d="m 243.39716,460.22001 c -5.01333,6.95867 -13.17333,11.50534 -22.4,11.55867"
       style="fill:none;stroke:#000000;stroke-width:5.33333302;stroke-linecap:round;stroke-linejoin:miter;stroke-miterlimit:10;stroke-dasharray:none;stroke-opacity:1"
       id="path4974" /><path
       d="m 244.3026,356.7119 c 7.25467,0.0147 9.66923,5.54678 9.66923,12.82678 0,0 0.35867,10.148 0.34667,33.068 5.51866,5.092 9.46533,12.372 9.46533,20.46667 0,4.74533 -1.18533,9.22666 -3.292,13.132 -0.028,0.0533 -0.0533,0.10666 -0.0813,0.16"
       style="fill:none;stroke:#000000;stroke-width:5.33333302;stroke-linecap:round;stroke-linejoin:miter;stroke-miterlimit:10;stroke-dasharray:none;stroke-opacity:1"
       id="path4976" /><path
       d="m 185.93183,471.77868 h 34.89333"
       style="fill:none;stroke:#000000;stroke-width:5.33333302;stroke-linecap:round;stroke-linejoin:miter;stroke-miterlimit:10;stroke-dasharray:none;stroke-opacity:1"
       id="path4978" /><path
       d="m 243.39716,460.22001 17.09467,-24.01466 0.0653,-0.0933"
       style="fill:none;stroke:#000000;stroke-width:5.33333302;stroke-linecap:round;stroke-linejoin:miter;stroke-miterlimit:10;stroke-dasharray:none;stroke-opacity:1"
       id="path4980" /><path
       d="m 151.0105,379.94002 c -6,-4.01467 -7.62667,-12.13467 -3.62667,-18.16134 4.01334,-6.05333 12.16134,-7.69333 18.22667,-3.66666 l 62.36133,41.988 7.98533,5.372"
       style="fill:none;stroke:#000000;stroke-width:5.33333302;stroke-linecap:round;stroke-linejoin:miter;stroke-miterlimit:10;stroke-dasharray:none;stroke-opacity:1"
       id="path4984" /><path
       d="m 192.7305,407.63335 -2.34667,-1.56"
       style="fill:none;stroke:#000000;stroke-width:5.33333302;stroke-linecap:round;stroke-linejoin:miter;stroke-miterlimit:10;stroke-dasharray:none;stroke-opacity:1"
       id="path4986" /><path
       d="m 183.21183,432.58001 -42.29466,-27.83999 -6.72,-4.428 c -5.48,-3.64 -7.34534,-10.69334 -4.64,-16.47867 0.268,-0.58667 0.58666,-1.16133 0.96133,-1.72133 2.31867,-3.50534 6.03867,-5.532 9.92,-5.82667 2.83867,-0.22667 5.75867,0.46667 8.31867,2.16 l 2.25333,1.49467 39.37333,26.13333"
       style="fill:none;stroke:#000000;stroke-width:5.33333302;stroke-linecap:round;stroke-linejoin:miter;stroke-miterlimit:10;stroke-dasharray:none;stroke-opacity:1"
       id="path4988" /><path
       d="m 86.771834,322.39202 c 5.413333,-8.05334 11.466666,-18 11.466666,-18 4.012,-6.03867 12.15867,-7.69334 18.2,-3.67867 6.05333,4.012 7.69333,12.17333 3.66667,18.23867 0,0 -1.77467,3.66666 -2.08134,4.13333"
       style="fill:none;stroke:#110000;stroke-width:5.33333302;stroke-linecap:round;stroke-linejoin:round;stroke-miterlimit:4;stroke-dasharray:none;stroke-opacity:1"
       id="path4990" /></g></svg>