<?xml version="1.0" encoding="UTF-8"?>
<svg width="373.79" height="494.45" version="1.1" viewBox="0 0 373.79 494.45" xml:space="preserve" xmlns="http://www.w3.org/2000/svg"><path d="m182.36 22.667c5.3067 0 10.227 1.68 14.24 4.5453l102.01 78.068v1.12h-220.75v-0.76c4.9053-4.2667 90.387-78.533 90.387-78.533 4-2.8 8.8667-4.44 14.107-4.44" fill="#8d3ed8"/><path d="m69.466 106.4c-24.465 0-44.293 19.84-44.293 44.307-1.4e-5 9.2 2.8152 17.76 7.6152 24.84 0 0 37.026 46.52 74.746 93.934l-0.0137 0.0137h-8.5605c-6.32 0-11.906 3.1456-15.266 7.959l-72.693 115.92c-5.2667 7.9733-8.334 17.519-8.334 27.799 0 27.867 22.6 50.467 50.465 50.467h130.16c-4.3866-0.41382-8.4813-1.8335-12.043-4.0488-11.507-7.9853-20.186-13.785-20.186-13.785-6.04-4.012-7.695-12.174-3.6816-18.215 0.25334-0.38667 0.53346-0.75747 0.82812-1.1055l0.5879-0.87892-9.2539-6.1738c-6.0533-4.0147-7.6936-12.174-3.6816-18.213 1.3213-1.9733 3.0674-3.4951 5.0527-4.4805l-6.7187-4.4277c-5.48-3.64-7.346-10.693-4.6406-16.479 0.268-0.58667 0.58627-1.1607 0.96093-1.7207 1.8714-2.8291 4.66-4.6773 7.7051-5.4473-0.20242-0.26262-0.3541-0.5607-0.44726-0.87891l-7.8262-26.08-0.23046-0.76563h-28.082c11.973 7.9467 21.812 14 21.812 14 6.0413 4.012 7.6937 12.159 3.6817 18.211-0.32135 0.48133-0.6534 0.921-1.0254 1.3477-4.2533 4.9187-11.615 6.0283-17.201 2.3203 0 0-7.3861-4.4928-18.439-11.746 10.092 6.7053 17.053 11.346 17.053 11.346 6.0387 4.0147 7.6944 12.161 3.6797 18.199-4.012 6.0533-12.173 7.6927-18.238 3.666 0 0-2.5755-1.5859-7.2422-4.5859 5.5067 4.0533 8.4944 12.948 4.6797 18.709-4.0133 6.0386-12.173 7.6927-18.238 3.666 0 0-10.908-6.5622-23.92-15.187 0 0-23.106-12.839-7.8809-35.639l22.107-32.549c4.9187-7.7587 14.467-16.827 24.346-16.854l-0.03907-1.4531c5.4133-8.0533 11.467-18 11.467-18 2.5075-3.7742 6.6295-5.8357 10.844-5.8711 2.5286-0.0212 5.09 0.68786 7.3555 2.1934 6.0533 4.012 7.6946 12.173 3.668 18.238 0 0-1.7754 3.6662-2.082 4.1328l-0.0137 1c4.8585 0.0539 8.7504 0.0935 12.227 0.13093l0.47462-1.0625 1.8926-4.2129h4.0996l6.293-12.85-0.1328-0.11333c0.1228-0.14315 0.25793-0.27814 0.38281-0.41994l6.7637-15.178 1.4824-3.9004c-19.415-5.7644-35.967-16.77-47.244-31.031l-4e-3 -4e-3c-8.4371-9.2633-15.28-19.994-20.133-31.758l-0.11133 0.0273c-0.05507-0.22212-0.1028-0.44721-0.15624-0.66992-4.2342-10.455-6.8813-21.717-7.6602-33.49l-0.09773-7e-3c0.01347-0.2407 0.03773-0.47848 0.05267-0.71875-0.12907-2.1681-0.2168-4.3465-0.2168-6.5469 0-1.0973 0.01653-2.1916 0.0488-3.2812 0.0053-0.17576 0.01733-0.34982 0.02333-0.52539 0.03013-0.87183 0.06467-1.7428 0.1152-2.6094 0.03027-0.52076 0.07373-1.0379 0.11133-1.5566 0.0412-0.56702 0.07707-1.1346 0.12693-1.6992 0.03373-0.3823 0.0776-0.76142 0.1152-1.1426 0.06773-0.68464 0.13447-1.3699 0.21484-2.0508 0.04533-0.38362 0.1012-0.76409 0.15039-1.1465 0.08493-0.65972 0.16885-1.3206 0.26563-1.9766 0.06413-0.43516 0.13769-0.86729 0.20704-1.3008 0.09693-0.60582 0.19195-1.212 0.29881-1.8145 0.0728-0.41061 0.155-0.81754 0.23243-1.2266 0.11987-0.63345 0.23827-1.267 0.36915-1.8965 0.08613-0.41429 0.18065-0.82572 0.27148-1.2383 0.1284-0.58312 0.25683-1.1665 0.39453-1.7461 0.10947-0.46091 0.22644-0.91834 0.3418-1.377 0.14129-0.56178 0.28163-1.1234 0.43164-1.6816 0.12067-0.4491 0.24873-0.895 0.375-1.3418 0.15101-0.53441 0.30393-1.0686 0.46288-1.5996 0.14243-0.47582 0.29072-0.94883 0.43945-1.4219 0.16107-0.51223 0.32184-1.0243 0.49024-1.5332 0.15531-0.46936 0.31701-0.93584 0.47851-1.4024 0.17149-0.49533 0.34308-0.99036 0.52149-1.4824 0.17564-0.48441 0.35676-0.96608 0.53907-1.4473 0.18601-0.49098 0.37352-0.9812 0.5664-1.4687 0.17412-0.44011 0.35353-0.87719 0.5332-1.3145 0.20909-0.50885 0.42017-1.0165 0.63672-1.5215 0.1886-0.43973 0.38003-0.87772 0.57423-1.3144 0.22117-0.49741 0.44544-0.99291 0.67383-1.4863 0.19916-0.4303 0.40281-0.85795 0.60743-1.2852 0.03093-0.0648 0.06053-0.13054 0.09173-0.19531h-8.3848c-0.15719 0.0145-0.31536 0.0153-0.47267 1e-3 0.0093 8e-4 -0.01507-1e-3 -0.14843-1e-3 -11.665 0-21.066 9.4-21.066 21.08 0 5.3038 1.9476 10.116 5.1719 13.826 1.5338 1.7175 0.31641 4.4409-1.9863 4.4434-0.78576 6.8e-4 -1.5318-0.3452-2.0391-0.94531-4.029-4.6363-6.4785-10.708-6.4785-17.324 0-13.746 10.563-25.075 23.986-26.299 0.25889-0.0787 0.52824-0.1176 0.79881-0.1152h218.49c0.14319-1e-3 0.28623 9e-3 0.42774 0.0312 0.3163-0.0133 0.61174-0.0312 0.95898-0.0312 14.548 0 26.4 11.854 26.4 26.414 0 6.6162-2.4518 12.689-6.4981 17.326-0.52548 0.62128-1.3058 0.96865-2.1191 0.94336-2.2678-0.0717-3.4158-2.7624-1.8984-4.4492 3.2364-3.7092 5.1816-8.5165 5.1816-13.82 0-11.68-9.4011-21.08-21.066-21.08-0.4584 0-0.94558 0.0259-1.4805 0.0527-0.22075 0.0107-0.44184-8e-3 -0.6582-0.0527h-11.18c0.012 0.0241 0.0236 0.0481 0.0352 0.0723 0.22195 0.46186 0.44847 0.92125 0.66406 1.3867 0.21361 0.46125 0.4177 0.92785 0.625 1.3926 0.20276 0.45447 0.4088 0.9075 0.60548 1.3652 0.21509 0.50068 0.41918 1.0072 0.62694 1.5117 0.18519 0.44968 0.37538 0.89693 0.5547 1.3496 0.20216 0.51047 0.39326 1.0268 0.58788 1.541 0.16438 0.43426 0.33324 0.86584 0.4922 1.3027 0.2086 0.5734 0.40433 1.1526 0.6035 1.7305 0.13672 0.39661 0.27792 0.79078 0.41016 1.1895 0.16091 0.48515 0.31256 0.97472 0.4668 1.4629 0.16376 0.51828 0.33016 1.035 0.48632 1.5566 0.12947 0.43228 0.24888 0.86821 0.37306 1.3027 0.15664 0.54818 0.3166 1.0948 0.46484 1.6465 0.15352 0.57137 0.29506 1.1476 0.43945 1.7226 0.10627 0.42315 0.21708 0.84444 0.31836 1.2695 0.12867 0.54039 0.24655 1.0854 0.36719 1.6289 0.10906 0.49153 0.22374 0.9806 0.32617 1.4746 0.11053 0.53316 0.20784 1.0714 0.31055 1.6074 0.0923 0.4817 0.18946 0.96137 0.27538 1.4453 0.10307 0.58014 0.19335 1.1648 0.28711 1.7481 0.0745 0.46345 0.15404 0.92524 0.22267 1.3906 0.1124 0.76247 0.21012 1.5294 0.30664 2.2969 0.0325 0.25835 0.0728 0.51455 0.10346 0.77344 0.0971 0.81903 0.17716 1.6424 0.25586 2.4668 0.0231 0.24153 0.0527 0.48067 0.0743 0.72265 0.0571 0.64186 0.0969 1.2886 0.14259 1.9336 0.0315 0.44433 0.0715 0.88628 0.0977 1.332 4.7e-4 8e-3 1e-3 0.0156 3e-3 0.0233 0.0621 1.0651 0.10933 2.1341 0.14063 3.207 0.0313 1.073 0.0469 2.15 0.0469 3.2305 0 2.1711-0.0853 4.3212-0.21095 6.4609 3e-3 0.0509 9e-3 0.10134 0.012 0.15235l-0.0215 3e-3c-1.0047 16.709-5.7813 32.398-13.498 46.234-0.12987 0.32708-0.25703 0.65704-0.39063 0.98241l-0.1308-0.0547h-1e-3c-13.681 23.975-36.214 42.238-63.164 50.322l5.6582 10.082 3.8594 6.877h3e-3c0.12427 0.1232 0.2562 0.24082 0.37891 0.36522l-0.0977 0.0977 8.5684 13.299c0.0607 0.0557 0.11586 0.11386 0.17578 0.16992 7e-3 7e-3 0.0161 0.0133 0.0235 0.0195 0.28021 0.26292 0.55165 0.52944 0.81445 0.79883 0.14756 0.15068 0.28782 0.30413 0.42968 0.45704 0.12107 0.13067 0.24628 0.2604 0.36328 0.39257h2.4766l7.2266 14.543c0.15784 0.22341 0.28036 0.46977 0.36328 0.73045l0.23437 0.47072-0.1152 0.5078c-0.0187 0.28583-0.0833 0.56677-0.19141 0.83204l-4.666 20.369c6.9988 0.30268 12.588 6.05 12.588 13.145 0 0 0.35965 10.148 0.34765 33.068 5.5187 5.092 9.4648 12.372 9.4648 20.467 0 4.7454-1.1844 9.2275-3.291 13.133l-17.096 24.014c-4.5544 6.3216-11.71 10.64-19.898 11.42h97.154c27.867 0 50.465-22.6 50.465-50.467 0-10.28-3.0654-19.825-8.332-27.799l-72.691-115.92c-3.36-4.8133-8.9476-7.959-15.268-7.959h-8.5605l-0.24023-0.19923c30.12-37.867 59.775-75.121 70.441-88.521 2.3866-3 3.8255-4.8002 4.1055-5.1602 0.0387-0.04 0.0547-0.0664 0.0547-0.0664 4.812-7.08 7.625-15.64 7.625-24.84 0-24.467-19.839-44.307-44.307-44.307h-234.37zm154.03 365.24h-40.205c0.87 0.0821 1.7471 0.13868 2.6387 0.13868h35.064c0.84467-5e-3 1.6768-0.0601 2.502-0.13868zm4.4727-71.539-1.6172-1.0879c0.18958 1.2653 1.251 2.2176 2.5293 2.2695 1.2966 0.0511 2.4417-0.83852 2.7129-2.1074-1.5029 0.88746-2.2842 0.30112-3.625 0.92578zm-1.6172-1.0879c-0.0519-0.34212-0.0365-0.69105 0.0449-1.0273l9.7442-42.615 4.0527-17.686h-108.28l3.1445 10.488 7.8281 26.08c0.20981 0.68233 0.13735 1.4203-0.20117 2.0488 2.1016 0.19352 4.1851 0.8943 6.0723 2.1426l2.2539 1.4961c-6-4.0147-7.627-12.135-3.627-18.162 4.0133-6.0533 12.161-7.6927 18.227-3.666zm-83.67-22.711c-0.74926-0.0691-1.5-0.0772-2.2461-0.0176-0.7488 0.0568-1.487 0.19683-2.2149 0.38087 1.1796 1.5305 3.5445 1.3379 4.4609-0.36329zm-51.406-241.1 0.082 0.0411c-0.31733 0.62781-0.62085 1.2634-0.92579 1.8984-0.22641 0.47145-0.45041 0.94459-0.66992 1.4199-0.19333 0.41865-0.38239 0.84009-0.57031 1.2617-0.20637 0.46297-0.41155 0.92609-0.61133 1.3926-0.18021 0.42083-0.35643 0.84395-0.53125 1.2676-0.20676 0.50103-0.41216 1.0029-0.61132 1.5078-0.16351 0.41452-0.32216 0.83096-0.48048 1.248-0.18304 0.4822-0.36492 0.9656-0.54101 1.4512-0.16144 0.44526-0.31712 0.89374-0.47265 1.3418-0.17164 0.49438-0.34148 0.98858-0.50585 1.4863-0.14867 0.45018-0.29092 0.90261-0.4336 1.3555-0.14952 0.47448-0.30048 0.9484-0.44336 1.4258-0.13652 0.4562-0.26605 0.91616-0.39648 1.375-0.14763 0.51921-0.2958 1.038-0.43556 1.5605-0.09787 0.36562-0.18735 0.73439-0.28124 1.1016 0.02587-0.0643 0.05027-0.12906 0.07613-0.19336 0.20957-0.51998 0.43668-1.0309 0.65428-1.5469 0.26741-0.63399 0.52725-1.2727 0.80664-1.9004 0.20812-0.46764 0.4318-0.92652 0.64649-1.3906 0.30913-0.66817 0.61096-1.3393 0.93359-2 0.20636-0.42262 0.42883-0.83632 0.64064-1.2558 0.34936-0.69192 0.69452-1.387 1.0586-2.0703 0.22605-0.4243 0.46756-0.83885 0.69921-1.2598 0.36396-0.66125 0.72199-1.3258 1.0996-1.9785 0.31875-0.55101 0.65405-1.0919 0.98243-1.6367 0.30739-0.50996 0.60615-1.0249 0.92188-1.5293 0.34996-0.55923 0.71804-1.1059 1.0781-1.6582 0.31816-0.48794 0.62716-0.98238 0.95312-1.4648 0.24035-0.3558 0.49373-0.70192 0.73828-1.0547-0.01067-0.0468-0.03627-0.15116-0.04693-0.1953zm7.8008 0c0.02027 0.0849 0.04893 0.20512 0.07027 0.29492l0.48437 0.35352c-0.10173 0.13962-0.19779 0.28368-0.29883 0.42382 0.77129 3.2288 1.5213 6.3676 2.2441 9.3926 0.16941-0.21129 0.33852-0.42289 0.50977-0.63281 0.25527-0.31292 0.51607-0.62179 0.77539-0.93164 0.26456-0.31613 0.52813-0.63241 0.79688-0.94531 0.23712-0.27609 0.4784-0.54872 0.71874-0.82226 0.32992-0.3755 0.66018-0.75044 0.9961-1.1211 0.17164-0.18938 0.34633-0.37634 0.51953-0.56446 0.37175-0.40376 0.74419-0.80724 1.123-1.2051 0.22949-0.24097 0.46325-0.47803 0.69532-0.7168 0.34279-0.35269 0.6868-0.70489 1.0352-1.0527 0.24328-0.24291 0.49038-0.48216 0.73633-0.72266 0.33616-0.3287 0.67255-0.65628 1.0137-0.98046 0.26464-0.2515 0.5332-0.49932 0.80078-0.74806 8e-3 -7e-3 0.0157-0.0143 0.0233-0.0215zm17.746 0 0.38868 0.45508c-0.42146 0.35978-0.83546 0.72731-1.25 1.0938-0.25128 0.22213-0.50326 0.44343-0.75196 0.66797-0.38782 0.35014-0.77082 0.70458-1.1523 1.0605-0.18316 0.17092-0.36714 0.34144-0.54883 0.51368-0.37653 0.35692-0.74897 0.7175-1.1191 1.0801-0.20756 0.2033-0.41558 0.40626-0.6211 0.61132-0.35805 0.35722-0.71066 0.71953-1.0625 1.082-0.1927 0.19854-0.38731 0.39557-0.57812 0.5957-0.36948 0.38746-0.73139 0.78056-1.0938 1.1738-0.16635 0.18056-0.33516 0.35928-0.5 0.54102-0.32952 0.36332-0.65315 0.7315-0.97656 1.0996-0.21516 0.24492-0.43208 0.48734-0.64452 0.73436-0.30376 0.35317-0.60032 0.71096-0.89844 1.0684-0.1924 0.23068-0.3881 0.459-0.57812 0.69141-0.32728 0.40023-0.64858 0.80559-0.96876 1.211-0.1646 0.20838-0.33142 0.41525-0.49415 0.625-0.32621 0.42043-0.64431 0.8457-0.96289 1.2715l5.3164 11.535c0.0968-0.1048 0.18967-0.21208 0.28711-0.31641 7.7279-8.274 17.366-15.204 28.324-20.357-0.23869-1.0732-0.59564-2.6799-1.3105-5.8965-0.0617-0.27788-0.0559-0.25646-0.1192-0.54102zm23.057 0c0.51961 2.3392 0.79184 3.5671 1.0371 4.6719 0.36041-0.15096 0.71125-0.31571 1.0742-0.46289 4.0702-1.6503 8.3032-3.0581 12.668-4.209zm71.146 0c4.6012 1.213 9.048 2.7217 13.32 4.4883 0.25307-1.048 0.54323-2.2503 1.082-4.4883zm18.793 0c-0.7451 3.0899-1.097 4.549-1.3965 5.7891-0.0224 0.0929-0.0872 0.36378-0.10546 0.43945 11.807 5.4831 22.094 13.028 30.145 22.084 0.0617 0.0695 0.12013 0.14135 0.18164 0.21095l6.3144-11.953c-0.11906-0.16372-0.23526-0.32922-0.35546-0.49219-0.122-0.16545-0.24596-0.32947-0.36915-0.49415-0.34735-0.4643-0.69824-0.92676-1.0547-1.3848-0.14372-0.18467-0.29036-0.36716-0.43554-0.55078-0.33298-0.42114-0.66718-0.84024-1.0078-1.2559-0.16634-0.20296-0.33575-0.40384-0.5039-0.60547-0.33985-0.40752-0.68214-0.81479-1.0293-1.2168-0.1763-0.20415-0.35503-0.40665-0.5332-0.60937-0.3342-0.38026-0.66904-0.75962-1.0098-1.1348-0.18367-0.20222-0.37111-0.40086-0.55664-0.60156-0.37508-0.40578-0.75211-0.80944-1.1348-1.209-0.11774-0.12294-0.237-0.2448-0.35548-0.36718-0.42699-0.44101-0.85682-0.87929-1.293-1.3125-0.14434-0.14335-0.29024-0.28526-0.43556-0.42774-0.41547-0.40738-0.83428-0.81262-1.2578-1.2129-0.17499-0.16536-0.35296-0.32805-0.52931-0.49219-0.38981-0.36285-0.78133-0.72328-1.1777-1.0801-0.21744-0.19571-0.43686-0.39015-0.65624-0.584-0.44894-0.39668-0.89844-0.79275-1.3555-1.1816l0.30469-0.35742zm26.1 0c0.2576 0.2393 0.51468 0.47886 0.76953 0.7207 0.30452 0.28894 0.60373 0.58246 0.90431 0.875 0.28013 0.27269 0.5612 0.54452 0.83788 0.82032 0.31846 0.3174 0.63148 0.63946 0.94532 0.96093 0.26698 0.27353 0.53522 0.54583 0.79882 0.82227 0.29203 0.30622 0.57936 0.61602 0.86718 0.92578 0.27698 0.2981 0.55509 0.59515 0.82813 0.89648 0.28428 0.31372 0.56377 0.63204 0.84375 0.94922 0.26176 0.29657 0.52525 0.59106 0.7832 0.89064 0.28954 0.3362 0.57272 0.67764 0.85742 1.0176 0.24098 0.28776 0.48324 0.57485 0.72071 0.86524 0.30133 0.36844 0.59692 0.74064 0.89259 1.1133 0.16773 0.21144 0.33996 0.42004 0.50584 0.63281 1.0237-4.1634 2.4409-9.9282 2.8242-11.49zm16.379 0 0.36719 0.0899 0.12693-0.0899zm2.041 0c0.41212 0.59166 0.82046 1.1869 1.2207 1.7871 0.098 0.147 0.20151 0.28999 0.29883 0.43751 0.62923 0.95376 1.241 1.9181 1.8398 2.8926 0.0287 0.0465 0.0593 0.092 0.0879 0.13867 0.61574 1.0055 1.2142 2.022 1.7969 3.0488 9e-3 0.0169 0.0197 0.0339 0.0293 0.0508 0.41027 0.72396 0.80179 1.4611 1.1953 2.1953 0.18081 0.33732 0.3716 0.66838 0.54884 1.0078 0.35882 0.68729 0.69893 1.3862 1.043 2.082 0.18236 0.36882 0.37458 0.73235 0.55273 1.1035 0.39144 0.81561 0.76191 1.642 1.1328 2.4688 0.12267 0.27346 0.25458 0.54174 0.375 0.81641 0.44851 1.0231 0.8783 2.0564 1.2949 3.0957-0.0364-0.14234-0.0704-0.28561-0.10747-0.42773-0.0628-0.24112-0.12107-0.48417-0.18553-0.7246-0.16106-0.60067-0.33443-1.1967-0.50587-1.793-0.10547-0.36694-0.20507-0.7363-0.31445-1.1016-0.16162-0.5396-0.33579-1.0735-0.50587-1.6094-0.1312-0.4134-0.2564-0.82909-0.39256-1.2402-0.16397-0.495-0.33864-0.98487-0.50977-1.4766-0.15579-0.4476-0.30902-0.89699-0.47071-1.3418-0.16656-0.45819-0.34285-0.91203-0.51563-1.3672-0.17745-0.46752-0.3512-0.93611-0.53514-1.4004-0.18458-0.46585-0.37927-0.92613-0.57032-1.3887-0.18144-0.43925-0.35963-0.88018-0.54687-1.3164-0.20627-0.48054-0.42155-0.95678-0.63477-1.4336-0.18852-0.42152-0.37443-0.84512-0.56836-1.2637-0.19547-0.42191-0.3987-0.83898-0.59962-1.2578-0.26176-0.54562-0.52009-1.0925-0.79101-1.6328l0.69727-0.34961zm-89.418 0.69531-0.36718 25.357c10.68 0.37935 20.821 2.5919 29.967 6.3008 0.24156 0.098 0.47468 0.20858 0.71484 0.3086l7.9551-24.041c-11.543-4.8421-24.511-7.6649-38.27-7.9258zm-4.2676 1e-3c-13.924 0.27739-27.034 3.1837-38.678 8.1484l6.877 23.199c9.5861-3.7735 20.231-5.9202 31.434-6.041zm91.838 4.1816c-1.1155 4.5391-2.4669 10.032-2.7285 11.096 0.143 0.20736 0.28054 0.42044 0.42186 0.6289 0.24068 0.35504 0.48302 0.70822 0.71875 1.0664 0.24011 0.3648 0.47405 0.73352 0.70899 1.1016 0.21977 0.34429 0.44104 0.68806 0.65625 1.0352 0.22111 0.3566 0.43609 0.71665 0.65235 1.0762 0.18985 0.31564 0.38228 0.62942 0.56836 0.94728 0.25781 0.44037 0.50729 0.88548 0.7578 1.3301 0.15385 0.27302 0.31184 0.54376 0.46289 0.81834 0.24091 0.4379 0.47327 0.88046 0.70703 1.3223 0.1492 0.28195 0.30101 0.56219 0.44728 0.84571 0.23128 0.44833 0.45382 0.9013 0.67772 1.3535 0.14209 0.28694 0.2867 0.57284 0.4258 0.86132 0.1826 0.37877 0.35774 0.76118 0.53514 1.1426 0.17814 0.38299 0.3584 0.76484 0.53126 1.1504 0.16032 0.35761 0.31301 0.71831 0.46874 1.0781 0.1629 0.37635 0.33046 0.7502 0.48828 1.1289 0.18646 0.44738 0.36364 0.89896 0.54298 1.3496 0.1236 0.31057 0.25089 0.61955 0.37109 0.93164 0.19275 0.50052 0.37663 1.0054 0.56055 1.5098 0.0953 0.26128 0.19421 0.52091 0.2871 0.78321 0.1613 0.45546 0.31275 0.91456 0.4668 1.373 0.11574 0.34439 0.23606 0.68715 0.34766 1.0332 0.11773 0.36524 0.22669 0.73448 0.33984 1.1016 0.13026 0.42276 0.26257 0.84436 0.38672 1.2695 0.10173 0.34829 0.19544 0.69896 0.29297 1.0488 0.1256 0.4507 0.25439 0.90022 0.37304 1.3535 0.0815 0.3111 0.15429 0.62522 0.23243 0.9375 0.1236 0.49425 0.24993 0.98721 0.36524 1.4844 0.0107 0.0475 0.0223 0.0949 0.0332 0.14258l3.1641-8.2148c-0.0503-0.23383-0.1044-0.466-0.15626-0.69923-0.14368-0.64569-0.27952-1.2944-0.43554-1.9355-3e-3 -0.0133-7e-3 -0.026-9e-3 -0.0391-0.27512-1.1285-0.57004-2.2496-0.88281-3.3633-0.86206-3.0692-1.8756-6.0748-3.0137-9.0215-0.11453-0.29649-0.22067-0.59741-0.33789-0.89257-0.82995-2.0897-1.7304-4.1435-2.6934-6.1641-0.0289-0.0607-0.0549-0.12293-0.084-0.1836-0.82167-1.7153-1.7011-3.3987-2.6152-5.0605-0.20257-0.36827-0.39651-0.74189-0.60352-1.1074-0.41083-0.7255-0.83945-1.4397-1.2676-2.1543-0.1525-0.25452-0.29652-0.51448-0.45118-0.76759-0.47698-0.78065-0.97332-1.5494-1.4707-2.3164-0.0819-0.12627-0.15978-0.25499-0.24219-0.38085zm-176.4 0.98047c-0.16753 0.26233-0.34263 0.51931-0.50781 0.78321-0.242 0.3867-0.47012 0.78183-0.70703 1.1719-0.37928 0.62439-0.76288 1.2461-1.1289 1.8789-0.26171 0.45253-0.50881 0.91429-0.76367 1.3711-0.32288 0.5786-0.65309 1.153-0.96485 1.7383-0.30175 0.5666-0.58573 1.1441-0.87695 1.7168-0.24687 0.48546-0.503 0.96528-0.7422 1.4551-3.1429 6.4358-5.6219 13.244-7.3496 20.338-0.23848 0.97936-0.45444 1.967-0.66407 2.957l1.9102 5.2637c0.08067-0.30716 0.17193-0.61006 0.25587-0.91602 0.13093-0.47746 0.25972-0.95516 0.39843-1.4297 0.07573-0.25901 0.15832-0.51531 0.23633-0.77344 0.15636-0.51737 0.313-1.0351 0.47852-1.5488 0.0984-0.3053 0.20311-0.6081 0.30468-0.9121 0.16415-0.49132 0.32753-0.98284 0.5-1.4707 0.09693-0.27401 0.19936-0.54545 0.29883-0.81836 0.1774-0.48669 0.3554-0.97391 0.54101-1.457 0.1136-0.29562 0.23296-0.58856 0.34961-0.88281 0.19167-0.48357 0.38217-0.96744 0.58203-1.4473 0.11813-0.28346 0.24237-0.56357 0.36328-0.8457 0.19349-0.45152 0.38524-0.90348 0.58595-1.3516 0.14903-0.33271 0.30601-0.6614 0.45897-0.99219 0.19964-0.43172 0.39723-0.86459 0.60352-1.293 0.11213-0.23296 0.2296-0.46335 0.34376-0.69531 0.24936-0.50677 0.49917-1.0137 0.7578-1.5156 0.12453-0.24153 0.25428-0.4803 0.38087-0.7207 0.25064-0.476 0.50085-0.95235 0.75977-1.4238 0.13993-0.25483 0.28539-0.50627 0.42772-0.75976 0.26276-0.46797 0.52604-0.93509 0.79688-1.3984 0.14955-0.2558 0.30309-0.50931 0.45508-0.76367 0.25807-0.43194 0.51619-0.86326 0.78124-1.291 0.18391-0.29675 0.37332-0.59004 0.56056-0.88476 0.25871-0.40726 0.51623-0.81544 0.78124-1.2188 0.18179-0.27661 0.36997-0.54949 0.55469-0.82421 0.26415-0.39288 0.52675-0.7868 0.79687-1.1758 0.19628-0.28265 0.39827-0.56125 0.59767-0.8418-0.18851-0.78878-1.1835-4.9503-2.1563-9.0215zm131.02 4.5078-7.9551 24.051c8.1686 3.9125 15.425 9.0366 21.387 15.115 0.65002 0.6628 1.2736 1.3446 1.8926 2.0293l13.908-19.145c-7.6681-9.0194-17.644-16.574-29.232-22.051zm-89.057 0.25585c-10.874 5.2215-20.32 12.269-27.729 20.652l12.275 17.709c6.2187-6.1992 13.777-11.401 22.301-15.275zm-37.885 8.9785c-0.10066 0.15109-0.20298 0.30144-0.30273 0.45312-0.26235 0.39892-0.51761 0.80217-0.77344 1.2051-0.16297 0.25668-0.32992 0.51124-0.49024 0.76953-0.26431 0.42585-0.52033 0.85695-0.77733 1.2871-0.14347 0.24014-0.28852 0.47924-0.42969 0.7207-0.24937 0.42652-0.49223 0.85652-0.73437 1.2871-0.13801 0.24543-0.27841 0.48959-0.41405 0.73633-0.27028 0.4916-0.53219 0.98766-0.79297 1.4844-0.09853 0.18781-0.19964 0.37396-0.29688 0.56249-0.24431 0.47367-0.48117 0.95155-0.71679 1.4297-0.11533 0.23407-0.23444 0.46604-0.34767 0.70118-0.19275 0.40018-0.37783 0.8038-0.56445 1.207-0.14721 0.31811-0.29803 0.63512-0.4414 0.95508-0.19059 0.42526-0.37291 0.85471-0.55664 1.2832-0.1176 0.27424-0.23876 0.54674-0.35352 0.82227-0.16535 0.39695-0.32103 0.79765-0.48047 1.1973-0.14147 0.35454-0.28509 0.70784-0.42188 1.0644-0.11387 0.29681-0.22144 0.59631-0.33203 0.89453-0.15857 0.42764-0.31889 0.85466-0.47071 1.2852-0.12467 0.35363-0.2412 0.71089-0.36132 1.0664-0.12933 0.38278-0.26277 0.76351-0.38672 1.1484-0.14809 0.45984-0.28736 0.92386-0.42775 1.3867-0.08413 0.27747-0.17255 0.55348-0.25389 0.83203-0.13916 0.47641-0.26752 0.95607-0.39844 1.4356-0.07893 0.2892-0.16235 0.57689-0.23828 0.86718-0.12413 0.47459-0.23941 0.95222-0.35548 1.4297-0.06907 0.28408-0.14283 0.56648-0.20897 0.85156-0.11933 0.51444-0.22799 1.0331-0.33789 1.5508-0.05547 0.26072-0.11507 0.51975-0.16797 0.78125-0.09787 0.48382-0.1858 0.97054-0.27539 1.457l3.8652 5.9863c0.153-0.54918 0.30827-1.0979 0.47461-1.6426 2.8271-9.2563 7.5786-17.845 13.857-25.463zm167.52 0.9414-6.0898 11.527c6.5464 8.3228 11.298 17.747 13.762 27.893 0.0951 0.39149 0.17931 0.78609 0.26759 1.1797l5.0019-6.7207c-0.0917-0.60696-0.18441-1.2134-0.28906-1.8164-0.0511-0.29418-0.11-0.58568-0.16406-0.8789-0.0879-0.47647-0.17362-0.95386-0.26953-1.4277-0.066-0.32616-0.14117-0.6497-0.21093-0.97461-0.10134-0.47172-0.19942-0.94501-0.3086-1.414-3e-3 -0.0143-7e-3 -0.0285-9e-3 -0.0429-0.1782-0.76374-0.36754-1.5229-0.56641-2.2793-3e-3 -0.0107-5e-3 -0.0223-8e-3 -0.0332-0.19517-0.74118-0.40049-1.479-0.61523-2.2129-0.0707-0.24134-0.148-0.48016-0.22072-0.7207-0.15669-0.51838-0.31408-1.0362-0.48046-1.5508-0.0583-0.18036-0.12014-0.35918-0.17968-0.53906-0.19118-0.57806-0.38462-1.1554-0.5879-1.7285-7e-3 -0.0155-0.0107-0.0315-0.0156-0.0469-0.25592-0.7202-0.52208-1.4363-0.79686-2.1484-0.0704-0.18246-0.14518-0.363-0.2168-0.54492-0.21126-0.53648-0.42268-1.0718-0.64454-1.6035-0.10813-0.25912-0.22338-0.51548-0.33398-0.77344-0.19714-0.45976-0.39264-0.92092-0.59766-1.377-0.0996-0.22149-0.20524-0.43953-0.30664-0.66014-0.23665-0.5148-0.47408-1.0292-0.7207-1.5391-0.0617-0.1276-0.12707-0.25351-0.18946-0.38087-0.27664-0.56488-0.55694-1.1288-0.84569-1.6875-0.0969-0.18775-0.19849-0.37351-0.29688-0.56055-0.26419-0.50216-0.52885-1.0031-0.80273-1.5-0.1028-0.18644-0.20842-0.37094-0.3125-0.55664-0.28416-0.50684-0.57108-1.0124-0.86524-1.5137-0.0903-0.15395-0.18412-0.30559-0.2754-0.45899-0.30868-0.51875-0.62013-1.0363-0.93944-1.5488-0.0868-0.13929-0.17612-0.2772-0.26368-0.41601-0.19956-0.31641-0.40384-0.6294-0.60741-0.94336zm-87.463 9.7305c-10.768 0.12853-20.945 2.2004-30.062 5.8222l7.3379 20.709c6.8732-2.4976 14.45-3.9043 22.396-3.9512zm4.2676 0.0449-0.32812 22.648c7.3167 0.40731 14.273 1.9516 20.586 4.4453l8.9805-20.771c-8.8516-3.7032-18.742-5.9413-29.238-6.3223zm-77 4.3633c-6.489 8.2516-11.101 17.617-13.316 27.672l12.799 11.885c2.5376-8.1007 6.8744-15.569 12.627-22.086zm151.62 1.1875-13.838 19.045c5.387 6.814 9.2992 14.539 11.32 22.865 0.0409 0.16836 0.0681 0.34089 0.10746 0.50976l15.426-12.818c-1.8143-10.751-6.359-20.784-13.016-29.602zm-112.87 1.9102c-8.1028 3.7422-15.254 8.7351-21.078 14.666l12.924 16.018c0.19409-0.17976 0.37876-0.36574 0.57617-0.54297 4.2605-3.8246 9.2904-7.0543 14.879-9.5312zm71.387 0.61913-8.9629 20.727c5.7436 2.7439 10.86 6.2866 15.09 10.469 0.56701 0.56056 1.1155 1.1341 1.6504 1.7168l14.359-16.342c-5.9161-6.7105-13.454-12.365-22.137-16.57zm70.553 8.7637-0.8711 2.2617-2.248 5.8301v3e-3c0.0733 0.54658 0.14959 1.0932 0.21289 1.6426 0.0403 0.35024 0.0712 0.70332 0.10747 1.0547 0.0516 0.49977 0.1072 0.99801 0.1504 1.5 2.3e-4 3e-3 -2.3e-4 5e-3 0 8e-3 0.0707 0.8228 0.12987 1.648 0.17773 2.4766 0.0297 0.51401 0.0475 1.0307 0.0684 1.5469 0.0141 0.35095 0.0349 0.70084 0.0449 1.0528 0.0244 0.85192 0.0371 1.7071 0.0371 2.5644 0 1.4883-0.0383 2.9696-0.11133 4.4414-0.0339 0.68172-0.0757 1.3611-0.12493 2.0391 1.6861-6.448 2.7604-13.142 3.1816-20.014-0.0707-1.0767-0.15168-2.1514-0.25586-3.2188-0.10426-1.068-0.23181-2.1293-0.36914-3.1875zm-207.21 0.67773c-0.12253 0.99687-0.24084 1.9945-0.33399 3-4.14e-4 5e-3 -0.0027 9e-3 -0.0027 0.0137-0.0856 0.92522-0.14469 1.8588-0.20508 2.791 0.13965 2.2515 0.3274 4.4907 0.60743 6.7012 0.12907 1.0184 0.29111 2.0261 0.44921 3.0352 0.04333-1.0412 0.1044-2.079 0.1836-3.1113 0.02093-0.2739 0.03507-0.54902 0.05853-0.82227 0.05947-0.69197 0.1316-1.3806 0.20703-2.0684 0.0156-0.14223 0.02853-0.28569 0.04493-0.42773 0.04947-0.43191 0.11027-0.86086 0.16601-1.291 0.05493-0.4241 0.10507-0.84912 0.16601-1.2715 0.02227-0.15425 0.0492-0.30692 0.07227-0.46094 0.0764-0.5103 0.15513-1.0197 0.24023-1.5273zm41.291 7.7988c-5.4753 6.3894-9.497 13.692-11.682 21.572l15.391 9.5801c0.16868-0.50336 0.33288-1.0078 0.52148-1.5039 1.9108-5.0259 4.8387-9.669 8.5723-13.781zm57.588 1.4824c-7.4045 0.0529-14.41 1.35-20.74 3.6309l10.123 22.311c3.2035-1.0875 6.6626-1.749 10.268-1.9004zm4.2656 0.11334-0.3457 23.912c3.0939 0.074 6.0864 0.52048 8.9102 1.293l10.303-21.158c-5.7614-2.2494-12.129-3.6566-18.867-4.0469zm-97.973 0.94921c-0.05667 0.53723-0.1156 1.0734-0.16212 1.6133-1e-3 0.012-0.0027 0.0235-4e-3 0.0352-0.13624 1.591-0.22897 3.1935-0.27539 4.8066-2.27e-4 8e-3 2.26e-4 0.0156 0 0.0233-0.02307 0.81038-0.0352 1.6239-0.0352 2.4395 0 6.6846 0.79259 13.192 2.2754 19.463 0.09427 0.2306 0.19128 0.45969 0.28712 0.68945 0.01067 0.0243 0.02107 0.0481 0.0312 0.0723l1.4297 1.8281c-0.20348-1.0415-0.38583-2.0896-0.54101-3.1445-0.47831-3.2515-0.72461-6.566-0.72461-9.9297 0-4.2743 0.40159-8.4657 1.166-12.553l-2.9414-4.5605zm156.36 0.13535-14.328 16.309c3.6763 4.8264 6.294 10.259 7.5938 16.092l17.156-9.6973c-0.1499-0.76052-0.30281-1.5205-0.48633-2.2715-1.8034-7.3798-5.2303-14.275-9.9356-20.432zm38.838 2.3086-4.668 6.2774c0.31715 2.3405 0.51972 4.7119 0.5918 7.1113 0.0205 0.6864 0.0312 1.3737 0.0312 2.0645 0 5.4413-0.6449 10.752-1.873 15.881-0.13067 0.54572-0.28588 1.0834-0.42968 1.625l2.3027-1.9688 0.88672-0.75781c2.2168-7.5727 3.4141-15.533 3.4141-23.758 0-2.1779-0.0929-4.3353-0.25586-6.4746zm-126.2 1.7129c-5.4072 2.4149-10.21 5.5851-14.215 9.3203l17.336 17.66c2.054-1.8126 4.4186-3.3756 7.0176-4.6367zm51.75 0.65038-5.8164 11.945-4.3281 8.8887c3.2037 1.3144 6.1028 3.069 8.5762 5.1777l10.273-8.8633 6.75-5.8262c-4.1418-4.5543-9.3971-8.4158-15.455-11.322zm-113.6 4.3574c-0.30936 2.238-0.50877 4.5035-0.57813 6.7949-0.01947 0.64412-0.02933 1.2896-0.02933 1.9375 0 6.8051 1.0953 13.402 3.1211 19.684h0.0013l9.4258 4.5762c-0.0984-0.57256-0.19865-1.1433-0.27929-1.7207-0.35236-2.5229-0.53516-5.0919-0.53516-7.6973 0-4.1094 0.47063-8.1189 1.3301-12.01zm179.49 3.1348-15.182 12.617c0.36361 2.5648 0.57227 5.1712 0.57227 7.8222 0 4.7919-0.61591 9.4571-1.7793 13.947l12.539-6.2871c2.655-7.1145 4.0976-14.671 4.0976-22.502 0-1.8823-0.0855-3.7488-0.24804-5.5977zm-134.84 4.2324c-3.7517 4.228-6.5589 9.0265-8.1699 14.193l21.654 9.9336c0.9245-2.3237 2.2285-4.4964 3.8594-6.4649zm87.119 2.8926-16.703 14.41c2.0595 2.3954 3.6383 5.0999 4.6133 8.0273l18.84-7.4082c-1.0488-5.4062-3.3822-10.49-6.75-15.029zm-115.52 3.9863c-0.3786 2.0437-0.63816 4.1193-0.76562 6.2227-0.0623 1.0288-0.0937 2.0644-0.0937 3.1055 0 3.9525 0.45824 7.8191 1.3242 11.566l14.775 4.6797c-0.0719-0.33792-0.14808-0.67515-0.21093-1.0156-0.42165-2.2838-0.64064-4.6244-0.64064-7.0098 0-2.7527 0.30781-5.4394 0.86328-8.0527l-1.0098-0.6289zm74.156 3.9024-0.20703 14.285-9e-3 0.68945c0.88961 0.0935 1.7622 0.23263 2.6133 0.42578l4.748-14.047c-2.2441-0.69689-4.6388-1.1624-7.1445-1.3535zm69.904 0.0431-8.0801 4.5664-9.0312 5.1035c0.0519 0.50897 0.10893 1.0174 0.14063 1.5312 0.0492 0.79565 0.0741 1.5958 0.0741 2.4024 0 3.86-0.57732 7.6024-1.6562 11.178l16.211-3.1641h3e-3c1.7148-5.1725 2.6387-10.616 2.6387-16.234 0-1.8142-0.1112-3.6074-0.29883-5.3828zm-74.174 0.0312c-2.9892 0.30173-5.8153 0.9887-8.3984 2l4.8398 13.377c0.51574-0.1228 1.0373-0.23573 1.5684-0.32225 0.58354-0.0951 1.1763-0.16547 1.7754-0.21484zm15.393 2.8301-4.6797 13.85c0.38094 0.17185 0.76172 0.34439 1.1269 0.53711 0.34136 0.1801 0.66564 0.38048 0.9922 0.57812l9.1426-10.572c-1.8799-1.725-4.0986-3.2122-6.582-4.3926zm-27.656 1.0273c-2.006 1.1538-3.8042 2.5181-5.3418 4.0528l7.8281 10.053c0.69518-0.43703 1.4288-0.82904 2.1914-1.1836zm-38.426 3.7012c-0.22814 1.2749-0.3945 2.5662-0.47656 3.8731-0.0445 0.70988-0.0664 1.4226-0.0664 2.1406 0 3.1538 0.43309 6.2314 1.2539 9.1953l20.586 1.3379c-0.11347-0.89417-0.18164-1.8005-0.18164-2.7207 0-1.3542 0.1264-2.6805 0.36524-3.9727zm75.553 2.8477-8.6543 10.012c0.2524 0.2506 0.5103 0.49763 0.74414 0.76172 0.27098 0.30607 0.51704 0.62981 0.76172 0.95312l10.312-5.3008c-0.62265-2.2879-1.6997-4.4549-3.164-6.4258zm-45.25 0.875c-1.1065 1.6603-1.9407 3.4466-2.4766 5.3144 2.2532 1.8279 5.2513 4.2604 7.8828 6.3946 0.54577-0.83355 1.1771-1.6164 1.8848-2.3457l-5.043-6.4766zm73.33 0.15039-18.443 7.2519c0.11013 0.88663 0.16796 1.7873 0.16796 2.7012 0 1.3759-0.13826 2.7236-0.38867 4.039h16.625c1.3698-3.7654 2.1055-7.7435 2.1055-11.852 0-0.71798-0.0217-1.4308-0.0664-2.1406zm42.824 2.0215-2.7734 2.3711c-0.89961 2.2682-1.9245 4.489-3.0527 6.6602 0.24346-0.33791 0.49877-0.66689 0.73828-1.0078 1.818-2.5878 3.5062-5.2703 5.0879-8.0234zm-177.22 2.5371c2.4135 5.6244 5.6031 10.94 9.4649 15.861 2.5999 2.8509 5.3558 5.5574 8.2539 8.1055l0.67775 0.18164c-0.3928-0.52189-0.78464-1.0442-1.1602-1.5762-3.4242-4.8506-6.1234-10.113-7.9668-15.684-0.26334-0.79573-0.51027-1.5983-0.73828-2.4062-0.0363-0.12853-0.0641-0.25979-0.0996-0.38867zm168.34 3.1035-11.736 5.8867c-2.3388 6.2362-5.7494 12.063-10.061 17.318-0.3872 0.47196-0.78806 0.93576-1.1895 1.3984l3.8164-0.30468c8.1502-6.9342 14.7-15.172 19.17-24.299zm-87.166 0.0449c-0.85269 0.0888-1.6823 0.22397-2.4766 0.42188v11.25c0.49542-0.0939 0.99368-0.18292 1.5-0.25 0.26714-0.0353 0.54064-0.0523 0.81054-0.0801l0.0527-3.6269zm4.2676 0.0449-0.1621 11.182c0.81433 0.0397 1.6206 0.0993 2.4121 0.20703 0.1828 0.0249 0.3596 0.0653 0.54102 0.0937l-0.50586-11.049c-0.73458-0.19214-1.499-0.33488-2.2852-0.4336zm-11.01 2.1074c-0.3892 0.22716-0.7634 0.46772-1.1211 0.72265l-0.67188 10.73c0.58322-0.26974 1.1809-0.51874 1.793-0.74608zm35.662 0.0215-6.5996 3.3926 6.1582 0.56445c0.28716-1.2626 0.44336-2.5596 0.44336-3.8848 0-0.0243-1e-3 -0.0481-1e-3 -0.0723zm-18.012 0.14063 0.30664 6.7051 0.16211 3.5527c0.72442 0.24152 1.438 0.50126 2.125 0.80078 0.0172 8e-3 0.0336 0.0159 0.0508 0.0235l-0.74219-4.5469-0.96289-5.9043-3e-3 -1e-3c-0.30181-0.21885-0.61265-0.42983-0.93749-0.62891zm-34.176 0.082c0.012 1.3597 0.18456 2.6898 0.49805 3.9824l6.0625 2.2402c4e-3 -0.0184 9e-3 -0.0363 0.0137-0.0547 0.0513-0.23502 0.10067-0.47043 0.16407-0.70118v-3e-3c-1.7482-1.4175-3.9639-3.2145-6.7383-5.4648zm-44.48 0.30079c2.2098 6.5546 5.6996 12.668 10.248 18.131 0.50303 0.60416 1.0204 1.2011 1.5488 1.7891l5.1641-0.3047 6.5781-0.38672c-3.8931-4.3266-6.8944-9.2369-8.7734-14.553zm138.05 4.4512-16.146 3.1484c-2.1032 4.7374-5.1213 9.1016-8.8633 12.961l12.791 1.6192c5.112-5.1574 9.2238-11.022 12.078-17.395 0.0493-0.11026 0.0919-0.22334 0.14061-0.33398zm-118.48 0.85742c0.0151 0.0356 0.0279 0.0719 0.0431 0.10747 2.0372 4.7748 5.1136 9.1725 9.0254 13.008 0.0632 0.062 0.12973 0.12186 0.19336 0.18358 0.95243-0.37437 3.9264-1.5458 7.8867-3.0664 2.2946-0.88105 4.597-1.7553 6.3594-2.3984 0.0149-5e-3 0.0221-8e-3 0.0371-0.0137-1.496-2.0016-2.6776-4.1888-3.4766-6.5176zm35.611 1.6231c-0.0917 0.44225-0.16331 0.88876-0.1875 1.3418l-0.1016-7e-3 -0.92577 5.9609c0.25836-0.21955 0.52641-0.43003 0.79688-0.63867zm33.342 0.0781c0.0353 0.27008 0.0843 0.53575 0.10347 0.81055l-0.0879 7e-3 1.5977 5.7676c1.9298-1.7882 3.4887-3.813 4.5957-6.0137zm12.508 0.84375c-1.0739 2.6165-2.6358 5.035-4.584 7.1856l11.436 4.6016c3.8264-3.4718 6.9369-7.4495 9.1719-11.787zm-53.787 1.2148c0.25163 0.40737 0.51978 0.80819 0.80274 1.2012 0.0863-0.084 0.14989-0.13993 0.23632-0.22461 0.21752-0.21309 0.22024-0.22393 0.43164-0.43359zm24.729 3.7305 0.86718 12.709c1.4077 9.6e-4 2.7966 0.0705 4.1621 0.20508 0.40488 0.0399 0.80251 0.0972 1.2031 0.14844l-2.9258-12.613c-1.0653-0.22572-2.171-0.3769-3.3066-0.44922zm-4.2754 0.12106c-0.89791 0.10667-1.77 0.26683-2.6192 0.47071l-0.91014 13.012c0.31225-0.0656 0.62402-0.1328 0.93945-0.1914 1.1278-0.2094 2.2771-0.36939 3.4414-0.48633zm12.336 1.9356 2.332 10.051 0.41796 1.7988c1.3715 0.3368 2.7095 0.73643 4.0059 1.2051 0.0845 0.0307 0.16577 0.0665 0.25 0.0977l-4.6484-11.836c-0.5154-0.33732-1.0452-0.66084-1.6055-0.95507-0.24374-0.128-0.50026-0.24205-0.75196-0.36133zm-19.34 0.0957c-0.69192 0.33752-1.3507 0.70987-1.9785 1.1113l-3 13.133c1.3143-0.61052 2.6809-1.1518 4.0918-1.6192l0.0763-1.0859zm-14.504 1.6191c-0.45639 0.1554-0.95921 0.32856-1.6484 0.58008-1.718 0.627-4.0094 1.4963-6.293 2.373-2.9049 1.1154-4.0713 1.5776-5.793 2.252 3.498 2.7613 7.481 5.1353 11.852 7.0273 0.43045 0.18635 0.86882 0.36408 1.3066 0.54103l2.8574-7.5215 0.45898-2.957c-0.96935-0.71303-1.8813-1.4831-2.7402-2.2949zm46.812 1.6797c-0.42544 0.33544-0.85789 0.66432-1.3047 0.97852l0.57617 2.082 3.4727 6.459c3.0061-1.4598 5.8085-3.1532 8.3711-5.0469l-0.97656-0.39257zm-40.1 4.0918c-0.13226 0.27117-0.26365 0.54308-0.375 0.82032l-1e-3 1e-3v1e-3l-3.9688 10.443c0.68507-0.54902 1.3955-1.0738 2.1328-1.5742zm-25.291 0.91992-11.838 0.69923c5.1799 4.8356 11.275 8.9834 18.078 12.238 0.65421 0.31297 1.3174 0.61373 1.9844 0.91014l6.5039-4.5156c-2.8627-1.2581-5.5837-2.7137-8.1309-4.3496-0.52528-0.33738-1.0443-0.6809-1.5547-1.0332-1.7788-1.2279-3.4591-2.5502-5.043-3.9492zm81.336 1.0781c-3.3421 2.7688-7.0949 5.1929-11.178 7.1934l3.1738 5.9004 1.334 0.38281c7.2862-3.0414 13.862-7.0604 19.482-11.854zm20.629 1.9883-2.0742 0.16603c-1.5088 1.4426-3.0826 2.835-4.7344 4.1582-0.0748 0.0599-0.1534 0.11613-0.22851 0.17577 2.4377-1.4046 4.7825-2.9077 7.0371-4.5zm-56.445 3.4531 1.0586 15.496c2.9708 0.0107 5.8849 0.21818 8.7207 0.6211 0.2176 0.0309 0.4298 0.0743 0.64648 0.10746l-4.2578-15.664c-1.9897-0.34748-4.0506-0.54284-6.168-0.56055zm-4.2988 0.20118c-1.7663 0.1853-3.4721 0.50916-5.125 0.92577l-2.1074 15.498c2.6677-0.50444 5.4273-0.83297 8.2578-1zm15.203 1.5156 4.1856 15.402c1.9961 0.46564 3.9481 1.019 5.8398 1.6699 0.83815 0.2884 1.6631 0.5988 2.4785 0.92188l-0.54883-1.207-6.6113-14.572c-1.674-0.8702-3.4604-1.6152-5.3438-2.2148zm-24.834 0.86523c-1.7043 0.68648-3.3081 1.5007-4.8086 2.418l-4.1992 14.998c2.2245-0.92238 4.5526-1.697 6.959-2.3437zm-16.773 5.3613-1.7383 1.207c0.37917 0.12413 0.76347 0.23559 1.1445 0.35548zm53.867 0.90235 6.1914 13.646c0.51872 0.2802 1.0411 0.55458 1.5469 0.84961 0.41468 0.24191 0.81308 0.50224 1.2187 0.75391l-7.4687-13.309-0.50392-0.93749c-0.3178-0.34094-0.64448-0.67646-0.98436-1.0039zm-47.596 0.6582c-2.9981 3.0966-5.083 6.761-5.9434 10.705l-0.42188-0.0917-2.5293 5.6816c1.6666-1.2141 3.423-2.3334 5.2676-3.3457zm104.29 1.502c1.3209 0 2.6432 0.87804 2.668 2.6308 0 7.3684 5.9233 13.289 13.297 13.289 3.5056 0.0496 3.5056 5.2824 0 5.332-7.373 0-13.297 5.9239-13.297 13.297-0.0208 1.5032-1.2793 2.6935-2.7812 2.6289-1.4128-0.0608-2.5332-1.215-2.5527-2.6289 0-7.3738-5.9187-13.297-13.287-13.297-3.5056-0.0496-3.5056-5.2824 0-5.332 7.3689 0 13.287-5.9199 13.287-13.289 0.0248-1.7528 1.3451-2.6308 2.666-2.6308zm-78.512 8.7637 0.79296 11.609c0.0893-2e-4 0.1762-4e-3 0.26563-4e-3 4.8752 0 9.5824 0.30032 14.07 0.84569l-4.541-11.16-0.11133-0.27344c-3.3653-0.6416-6.8729-0.98628-10.477-1.0176zm-4.3398 0.12307c-3.1616 0.20295-6.2312 0.6584-9.1855 1.334l-1.6992 11.268c0.12374-0.0177 0.25286-0.0296 0.37695-0.0469 0.0288-4e-3 0.0591-7e-3 0.0879-9e-3 1.2094-0.16753 2.4334-0.3188 3.6777-0.44726 0.4899-0.0508 0.99331-0.0843 1.4883-0.12894 0.79936-0.0717 1.5925-0.15153 2.4043-0.20702 1.0733-0.0737 2.1643-0.12134 3.2578-0.16602 0.122-5e-3 0.24108-0.0149 0.36328-0.0195zm19.922 2.1191 4.4473 10.918c3.8977 0.66696 7.5808 1.5384 10.984 2.6035l-6.1445-9.8652c-2.8661-1.4556-5.9338-2.6816-9.1738-3.627-0.0372-0.0107-0.076-0.0185-0.11333-0.0293zm-33.605 0.42968c-2.8104 0.89604-5.484 2.0042-8 3.291l-4.4512 10.324c2.6155-0.88792 5.3988-1.6633 8.3418-2.3086 3e-3 -5.8e-4 5e-3 -1e-3 8e-3 -3e-3 0.81064-0.17767 1.6342-0.34348 2.4668-0.50195zm-14.566 7.3242c-2.3927 1.7523-4.5494 3.698-6.4531 5.7969l-2.8574 5.8359c0.51496-0.33282 1.0609-0.65065 1.6074-0.96874 0.0639-0.0371 0.13107-0.0725 0.19531-0.10934 0.7634-0.439 1.5517-0.86552 2.373-1.2754 0.0567-0.0283 0.1168-0.0539 0.17382-0.082 0.31012-0.15326 0.6254-0.30408 0.94336-0.45314zm65.906 1.3457 4.3066 6.873c0.66202 0.2916 1.2878 0.6032 1.918 0.9121l-0.87696-1.3613-2.5117-3.8965c-0.90215-0.87263-1.8408-1.7212-2.8359-2.5273zm-32.232 4.5312 0.52344 7.6719-0.11134 8e-3 0.21484 3.2324h19.252l-3.9434-9.6915c-3.7797-0.58872-7.765-0.98781-11.9-1.1445-7e-3 -2.2e-4 -0.012 2.1e-4 -0.0176 0-1.3252-0.05-2.6647-0.0759-4.0176-0.0763zm-4.3691 0.0957c-0.22544 9e-3 -0.44537 0.0247-0.66992 0.0352-0.99628 0.0469-1.9911 0.0943-2.9688 0.16796-0.27425 0.0205-0.5398 0.0536-0.81249 0.0761-1.0225 0.0852-2.0418 0.17586-3.041 0.28906-0.21462 0.0243-0.42125 0.0567-0.63475 0.082-1.5329 0.18356-3.028 0.40284-4.498 0.64844l-1.1348 7.5234-8e-3 -1e-3 -0.30273 1.9961h14.789zm25.295 2.0508 2.3008 5.6484-8e-3 4e-3 1.2246 3.0058-0.26367 0.10747h12.617l-3.0488-4.8926c-3.7513-1.546-8.0731-2.8654-12.822-3.8731zm-42.371 0.10547c-4.6577 1.0163-8.894 2.3316-12.572 3.8672l-2.0645 4.793h13.326zm-18.471 6.7754c-0.66955 0.39696-1.3045 0.8023-1.9063 1.2148-0.0929 0.064-0.18013 0.12907-0.27148 0.19336-0.22318 0.15667-0.42166 0.31792-0.63477 0.47658h2zm81.064 0.80079 0.67578 1.084h0.87304c-0.3137-0.23375-0.60786-0.47182-0.94334-0.70119-5e-3 -3e-3 -9e-3 -7e-3 -0.0137-0.0107-0.18585-0.12693-0.39938-0.24756-0.59178-0.37304zm-92.059 6.418-0.47656 1.0625-3.1348 7.0156h106.8l-4.0137-8.0781zm132.94 17.551c1.3209 0 2.6412 0.87609 2.666 2.6289 0 2.85 2.2547 5.1035 5.1094 5.1035 3.5056 0.0496 3.5056 5.2844 0 5.334-2.8536 0-5.1094 2.2576-5.1094 5.1094-0.0223 1.5022-1.2803 2.6896-2.7812 2.625-1.4118-0.0607-2.5299-1.2121-2.5508-2.625 0-2.8523-2.2572-5.1094-5.1055-5.1094-3.5056-0.0496-3.5056-5.2844 0-5.334 2.8493 0 5.1055-2.2529 5.1055-5.1035 0.0248-1.7528 1.3451-2.6289 2.666-2.6289zm31.822 11.783c1.321 0 2.6432 0.87608 2.668 2.6289 0 14.517 11.717 26.24 26.246 26.24 3.5056 0.0496 3.5056 5.2844 0 5.334-14.53 0-26.246 11.719-26.246 26.252-0.0221 1.5032-1.2832 2.6911-2.7852 2.625-1.4108-0.062-2.528-1.213-2.5488-2.625 0-14.532-11.724-26.252-26.242-26.252-3.5056-0.0496-3.5056-5.2844 0-5.334 14.518 0 26.242-11.724 26.242-26.24 0.0248-1.7528 1.3451-2.6289 2.666-2.6289zm-259.79 61.305c1.3209 0 2.6432 0.8761 2.668 2.6289 0 4.8143 3.8453 8.6602 8.6641 8.6601 3.5056 0.0496 3.5056 5.2825 0 5.332-4.8168 0-8.6641 3.8537-8.6641 8.668-0.02067 1.5043-1.2822 2.6931-2.7852 2.627-1.4118-0.0621-2.5294-1.214-2.5488-2.627 0-4.8147-3.8479-8.668-8.6582-8.668-3.5056-0.0496-3.5056-5.2824 0-5.332 4.8121 0 8.6582-3.8455 8.6582-8.6601 0.0248-1.7528 1.3451-2.6289 2.666-2.6289zm292.82 4.9434c1.321 0 2.6432 0.87609 2.668 2.6289 0 2.8506 2.2547 5.1035 5.1094 5.1035 3.5056 0.0496 3.5056 5.2844 0 5.334-2.853 0-5.1094 2.2569-5.1094 5.1074-0.0208 1.5032-1.2793 2.6915-2.7812 2.6269-1.4128-0.0608-2.5332-1.213-2.5527-2.6269 0-2.8506-2.2539-5.1074-5.1016-5.1074-3.5056-0.0496-3.5056-5.2844 0-5.334 2.8493 0 5.1016-2.2529 5.1016-5.1035 0.0248-1.7528 1.3451-2.6289 2.666-2.6289zm-222.22 1.5234c1.3209 0 2.6432 0.87609 2.668 2.6289 0 8.2444 6.6324 14.869 14.883 14.869 3.5056 0.0496 3.5056 5.2844 0 5.334-8.2485 0-14.883 6.6369-14.883 14.883-0.0208 1.5032-1.2793 2.6916-2.7812 2.627-1.4128-0.0608-2.5332-1.213-2.5527-2.627 0-8.2464-6.6314-14.883-14.869-14.883-3.5056-0.0496-3.5056-5.2844 0-5.334 8.2397 0 14.869-6.6243 14.869-14.869 0.0248-1.7528 1.3451-2.6289 2.666-2.6289zm171.4 4.8476c1.3209 0 2.6412 0.87804 2.666 2.6309 0 6.302 5.0544 11.355 11.363 11.355 3.5056 0.0496 3.5056 5.2844 0 5.334-6.3077 0-11.363 5.0589-11.363 11.367-0.0221 1.5032-1.2812 2.6911-2.7832 2.625-1.4108-0.062-2.528-1.213-2.5488-2.625 0-6.308-5.0596-11.367-11.359-11.367-3.5056-0.0496-3.5056-5.2844 0-5.334 6.301 0 11.359-5.0538 11.359-11.355 0.0248-1.7528 1.3451-2.6309 2.666-2.6309z" fill="#8d3ed8"/><g fill="none" stroke-linecap="round" stroke-miterlimit="10"><g stroke="#000" stroke-width="5.3333"><path d="m33.613 176.73c-0.28-0.38666-0.56-0.78666-0.82667-1.1867-4.8-7.08-7.6133-15.64-7.6133-24.84 0-24.467 19.827-44.307 44.292-44.307"/><path d="m340.57 175.61c-1.2267 1.8267-2.6 3.5467-4.1067 5.16-0.25333 0.29334-0.52133 0.57334-0.80133 0.85334"/><path d="m303.95 106.4c24.468 0 44.308 19.84 44.308 44.307 0 9.2-2.8147 17.76-7.6267 24.84"/><path d="m69.465 106.4h234.48"/></g><path d="m313.65 172.01c-0.0413 0.0533-0.0947 0.12-0.148 0.17334" stroke="#fff" stroke-width="5.3333"/><g stroke="#000"><g stroke-width="5.3333"><path d="m59.76 171.89c0.57333 0.74667 1.5906 1.6875 13.777 17.208"/><path d="m313.65 172.01c-1.16 1.5067-5.7051 6.5306-18.637 23.131"/><path d="m196.6 27.212 102.01 78.068"/></g><path d="m53.132 471.64c-27.865 0-50.465-22.6-50.465-50.467 0-10.28 3.0667-19.827 8.3333-27.8" stroke-width="5.333"/><g stroke-width="5.3333"><path d="m180.55 471.64h-127.41"/><path d="m107.52 269.49h-8.56c-6.32 0-11.907 3.1467-15.267 7.96l-72.693 115.92"/><path d="m320.65 471.64c27.867 0 50.465-22.6 50.465-50.467 0-10.28-3.0667-19.827-8.3333-27.8"/><path d="m180.55 471.64h140.11"/><path d="m266.27 269.49h8.56c6.32 0 11.907 3.1467 15.267 7.96l72.692 115.92"/><path d="m77.867 105.64c4.9053-4.2667 90.387-78.533 90.387-78.533 4-2.8 8.8667-4.44 14.107-4.44 5.3067 0 10.227 1.68 14.24 4.5453 0.0133 0 0.04 0.01467 0.0533 0.028"/><path d="m244.47 296.39c7.0387-8.8533 14.319-17.987 21.56-27.093 30.12-37.867 59.773-75.12 70.44-88.52 2.3867-3 3.8267-4.8 4.1067-5.16 0.0387-0.04 0.0533-0.0667 0.0533-0.0667"/><path d="m32.787 175.55s37.027 46.52 74.747 93.933c6.3467 7.9733 12.707 15.973 18.92 23.773"/></g></g></g><g transform="matrix(1.3333 0 0 -1.3333 -158.31 1016.4)"/><g fill="none" stroke-linecap="round"><g stroke="#000" stroke-miterlimit="10"><path d="m127.37 348.94h-26.149" stroke-width="4.9088"/><path d="m87.197 323.82c6.2216 0 17.308 0.13689 26.801 0.27076 5.2349 0.0752 9.9951 0.13538 13.174 0.18202 0.15089 0.0136 0.30294 0.0136 0.45268 0.0136" stroke-width="5.2855"/><g stroke-width="5.3333"><path d="m177.88 453.02-29.08-19.413-9.2533-6.1733c-6.0533-4.0147-7.6933-12.175-3.6813-18.213 1.3213-1.9733 3.068-3.4947 5.0533-4.48 0.0147 0 0.0147-0.0147 0.0267-0.0147"/><path d="m101.64 348.94c11.973 7.9467 21.813 14 21.813 14 6.0413 4.012 7.6933 12.16 3.6813 18.212-0.32133 0.48133-0.65466 0.92133-1.0267 1.348-4.2533 4.9187-11.613 6.0267-17.2 2.3187 0 0-7.3867-4.492-18.44-11.745"/><path d="m85.664 401.66c-3.44-2.2147-8-5.1747-13.505-8.8147"/><path d="m86.917 370.73c1.2147 0.81333 2.4 1.6013 3.548 2.348 10.092 6.7053 17.053 11.345 17.053 11.345 6.0387 4.0147 7.6933 12.161 3.6787 18.2-4.012 6.0533-12.173 7.6933-18.239 3.6667 0 0-2.5747-1.5867-7.2413-4.5867"/><path d="m84.891 401.13c0.268 0.15867 0.52 0.34534 0.77333 0.53334 0.01333 0.012 0.04 0.0267 0.05333 0.0387 5.5067 4.0533 8.4947 12.947 4.68 18.708-4.0133 6.0387-12.173 7.6933-18.239 3.6667 0 0-10.908-6.5613-23.92-15.187 0 0-23.107-12.84-7.8813-35.64l22.108-32.548"/><path d="m62.465 340.7c4.9187-7.7587 14.467-16.827 24.345-16.853h0.05333 0.36"/><path d="m185.93 471.78c-5.3867 0-10.413-1.532-14.681-4.1867-11.507-7.9853-20.187-13.787-20.187-13.787-6.04-4.012-7.6933-12.172-3.68-18.213 0.25334-0.38666 0.53334-0.75866 0.828-1.1067"/><path d="m243.4 460.22c-5.0133 6.9587-13.173 11.505-22.4 11.559"/><path d="m244.3 356.71c7.2547 0.0147 9.6692 5.5468 9.6692 12.827 0 0 0.35867 10.148 0.34667 33.068 5.5187 5.092 9.4653 12.372 9.4653 20.467 0 4.7453-1.1853 9.2267-3.292 13.132-0.028 0.0533-0.0533 0.10666-0.0813 0.16"/><path d="m185.93 471.78h34.893"/><path d="m243.4 460.22 17.095-24.015 0.0653-0.0933"/><path d="m151.01 379.94c-6-4.0147-7.6267-12.135-3.6267-18.161 4.0133-6.0533 12.161-7.6933 18.227-3.6667l62.361 41.988 7.9853 5.372"/><path d="m192.73 407.63-2.3467-1.56"/><path d="m183.21 432.58-42.295-27.84-6.72-4.428c-5.48-3.64-7.3453-10.693-4.64-16.479 0.268-0.58667 0.58666-1.1613 0.96133-1.7213 2.3187-3.5053 6.0387-5.532 9.92-5.8267 2.8387-0.22667 5.7587 0.46667 8.3187 2.16l2.2533 1.4947 39.373 26.133"/></g></g><path d="m86.772 322.39c5.4133-8.0533 11.467-18 11.467-18 4.012-6.0387 12.159-7.6933 18.2-3.6787 6.0533 4.012 7.6933 12.173 3.6667 18.239 0 0-1.7747 3.6667-2.0813 4.1333" stroke="#100" stroke-linejoin="round" stroke-width="5.3333"/></g></svg>
