<?xml version="1.0" encoding="UTF-8"?>
<svg width="488" height="114" fill="#111111" version="1.1" viewBox="0 0 129.12 30.162" xmlns="http://www.w3.org/2000/svg">
 <g transform="matrix(1.1509 0 0 1.1509 1.1233 1.1233)">
  <path d="m18.777 19.267c-0.84149-0.23758-1.5619-0.48815-1.6009-0.55683-0.13389-0.23576 1.1752-6.6443 1.3811-6.7613 0.1714-0.0973 2.1829 1.8392 2.5873 2.491 0.13901 0.22399-0.53248 5.0858-0.71688 5.1906-0.0664 0.0377-0.80914-0.12586-1.6506-0.36343zm-7.7141 3.6497c-0.11943-0.10151-0.46471-0.76441-0.76727-1.4731l-0.55013-1.2886 3.0905-1.8226c1.6998-1.0024 3.1322-1.7493 3.183-1.6597 0.16047 0.28255-0.35523 3.62-0.60662 3.9259-0.46822 0.56974-4.118 2.5148-4.3495 2.3181zm-6.3649-3.7063c-1.258-0.50119-2.3243-0.97659-2.3696-1.0564-0.0913-0.16071 1.2654-2.7564 1.5146-2.898 0.1698-0.0964 5.9883 2.3274 6.4008 2.6665 0.2054 0.1688-0.0672 0.38679-1.5039 1.2027l-1.7547 0.99652zm16.182-7.2164c-0.50323-0.2754-4.1643-5.0338-3.9615-5.1489 0.032-0.0182 0.92215-0.0526 1.9782-0.0766l1.92-0.0436 1.4794 1.6671c1.0512 1.1846 1.4544 1.7576 1.3932 1.9797-0.10705 0.38842-2.5189 1.7813-2.8093 1.6224zm-16.767 1.688-1.628-0.72226-0.59788-2.2453c-0.32883-1.2349-0.58199-2.3029-0.56258-2.3734 0.0194-0.0705 0.75331-0.23119 1.6309-0.35719 1.7501-0.25126 1.8071-0.21501 2.1632 1.3755 0.12108 0.54084 0.41232 1.844 0.64718 2.896s0.32538 1.9658 0.20115 2.0308c-0.12423 0.065-0.95848-0.20686-1.8539-0.6041zm10.304-8.1897c-1.6735-0.0303-3.0995-0.15056-3.169-0.26719-0.0694-0.11662 0.30683-0.87455 0.83608-1.6843l0.96229-1.4723 2.0611-0.0348c3.3185-0.0561 3.0972-0.18375 2.9188 1.684-0.084 0.87994-0.24591 1.6516-0.35972 1.7148-0.11384 0.0632-1.5762 0.0901-3.2497 0.0598zm-7.7793 3.3121c-0.25432-0.48092-1.2349-3.2951-1.1932-3.4244 0.15114-0.46861 2.472-4.0209 2.65-4.056 0.21024-0.0415 2.3377 1.6074 2.5451 1.9725 0.079 0.13916-3.4647 5.6338-3.731 5.785-0.0526 0.0299-0.17449-0.0949-0.2709-0.27718z"/>
  <path d="m45.244 12.213q0 0.0489-0.01967 0.0782l-2.0618 2.0618h-5.0713q-0.0293 0-0.07816-0.0293-0.03908-0.0293-0.03908-0.0684v-2.1106q0-0.0197 0.03908-0.0586 0.03908-0.0391 0.05864-0.0391h7.0745q0.04886 0 0.06842 0.0586 0.0293 0.0586 0.0293 0.1075zm-4.6707-2.8142q-0.02931 0-0.07817-0.0391-0.03908-0.0391-0.03908-0.0684v-2.1106q0-0.0197 0.03908-0.0586 0.03908-0.0391 0.05864-0.0391h2.6285l2.0618 2.0618v2.609q0 0.0293-0.04886 0.0782-0.03908 0.0391-0.06839 0.0391h-2.0715q-0.01967 0-0.07816-0.0293-0.04886-0.0391-0.04886-0.0684v-2.3744zm-0.53742-4.7977h5.1104q0.03908 0 0.06842 0.0489 0.0293 0.0391 0.0293 0.0684v2.0715q0 0.0197-0.04886 0.0782-0.04886 0.0489-0.06839 0.0489h-4.8368v2.3549q0 0.0197-0.05864 0.0684-0.04886 0.0489-0.06839 0.0489h-2.0715q-0.02931 0-0.07816-0.0293-0.03908-0.0293-0.03908-0.0684v-2.6285z"/>
  <path d="m45.495 14.334q-0.0097-0.01-0.03908-0.0293-0.01967-0.0293-0.01967-0.0489v-2.1106q0-0.0197 0.03908-0.0586 0.03908-0.0391 0.05864-0.0391h7.0745q0.0391 0 0.0684 0.0489 0.0293 0.0391 0.0293 0.0684v2.0715q0 0.0293-0.0489 0.0782-0.0391 0.0391-0.0684 0.0391h-7.0353q-0.03908 0-0.05864-0.0197zm4.7098-5.2081q0.0197 0.0197 0.0197 0.0586 0 0.0293 0 0.0489 0 0.0391-0.0391 0.1075-0.0293 0.0586-0.0782 0.0586h-2.355v2.3549q0 0.0197-0.05864 0.0684-0.04886 0.0489-0.06842 0.0489h-2.0715q-0.02931 0-0.07816-0.0293-0.03908-0.0293-0.03908-0.0684v-4.5926q0-0.0197 0.03908-0.0586 0.03908-0.0391 0.05864-0.0391h2.6187zm-4.7684-2.3842q0-0.0197 0-0.0489 0-0.0293 0.01967-0.0489l2.0422-2.0422h5.1104q0.0391 0 0.0684 0.0489 0.0293 0.0391 0.0293 0.0684v2.0715q0 0.0293-0.0489 0.0782-0.0391 0.0391-0.0684 0.0391h-7.0355q-0.06842 0-0.09772-0.0489-0.01967-0.0586-0.01967-0.11725z"/>
  <path d="m55.439 14.334q-0.01-0.01-0.0391-0.0293-0.0197-0.0293-0.0197-0.0489v-7.0745q0-0.0197 0.0391-0.0586 0.0391-0.0391 0.0586-0.0391h2.1106q0.0391 0 0.0684 0.0489 0.0293 0.0391 0.0293 0.0684v7.0354q0 0.0293-0.0489 0.0782-0.0391 0.0391-0.0684 0.0391h-2.0714q-0.0391 0-0.0586-0.0197zm4.7098-7.6901q0.0197 0.0197 0.0197 0.0586 0 0.0293 0 0.0489 0 0.0489-0.0391 0.10749-0.0293 0.0489-0.0782 0.0489h-7.0354q-0.0293 0-0.0782-0.0293-0.0391-0.0293-0.0391-0.0684v-2.1106q0-0.0197 0.0391-0.0586 0.0391-0.0391 0.0586-0.0391h5.1104z"/>
  <path d="m62.901 14.334q-0.01-0.01-0.0391-0.0293-0.0197-0.0293-0.0197-0.0489v-7.0745q0-0.0197 0.0391-0.0586 0.0391-0.0391 0.0586-0.0391h2.1106q0.0391 0 0.0684 0.0489 0.0293 0.0391 0.0293 0.0684v7.0354q0 0.0293-0.0489 0.0782-0.0391 0.0391-0.0684 0.0391h-2.0715q-0.0391 0-0.0586-0.0197zm4.7098-7.6901q0.0197 0.0197 0.0197 0.0586 0 0.0293 0 0.0489 0 0.0489-0.0391 0.10749-0.0293 0.0489-0.0782 0.0489h-7.0354q-0.0293 0-0.0782-0.0293-0.0391-0.0293-0.0391-0.0684v-2.1106q0-0.0197 0.0391-0.0586 0.0391-0.0391 0.0586-0.0391h5.1104z"/>
  <path d="m74.995 12.037q0.0489 0 0.0684 0.0684 0.0293 0.0684 0.0293 0.1075 0 0.0489-0.0197 0.0782l-2.0618 2.0618h-5.0713q-0.0293 0-0.0782-0.0293-0.0391-0.0293-0.0391-0.0684v-7.0745q0-0.0197 0.0391-0.0586 0.0391-0.0391 0.0586-0.0391h2.1106q0.0293 0 0.0684 0.0489 0.0391 0.0391 0.0391 0.0684v4.8368zm-7.0549-5.1202q-0.0684 0-0.0977-0.0586-0.0197-0.0684-0.0197-0.11725 0-0.0197 0-0.0489 0-0.0293 0.0197-0.0489l2.0422-2.0422h5.1104q0.0391 0 0.0684 0.0489 0.0293 0.0391 0.0293 0.0684v7.0354q0 0.0293-0.0489 0.0782-0.0391 0.0391-0.0684 0.0391h-2.0715q-0.0197 0-0.0782-0.0293-0.0489-0.0391-0.0489-0.0684v-4.8564z"/>
  <path d="m31.961 2.9922c-0.11638 0.011681-0.20501 0.1096-0.20508 0.22656v1.3887h-2.5176c-0.12636-3.795e-4 -0.2289 0.10215-0.22852 0.22852v0.78906c-3.8e-4 0.12636 0.10215 0.2289 0.22852 0.22852h2.5176v1.2324h-3.1504c-0.12636-3.801e-4 -0.2289 0.10215-0.22852 0.22852v0.8125c-3.8e-4 0.12636 0.10215 0.2289 0.22852 0.22852h3.2344v4.2344c-0.585-0.31935-1.0738-0.81256-1.4082-1.7324 0.09241-0.52829 0.17554-1.077 0.22266-1.666 0.01054-0.12505-0.08202-0.23508-0.20703-0.24609l-0.88672-0.072266c-0.12646-0.010489-0.23712 0.084361-0.24609 0.21094-0.13502 1.8904-0.5582 3.3449-1.4297 4.3145v-5.7617c0.37388-0.5048 0.74143-1.023 1.0293-1.5508 0.06735-0.12349 0.0078-0.2779-0.125-0.32422l-0.80078-0.2793c-0.10419-0.03624-0.21937 0.00737-0.27344 0.10352-0.69661 1.2397-1.8492 2.4886-2.9258 3.2812-0.10519 0.077402-0.12392 0.22721-0.04102 0.32812 0.13472 0.1658 0.41534 0.61435 0.48047 0.75391 0.06233 0.13304 0.23243 0.17318 0.34766 0.082031 0.34174-0.2698 0.67224-0.60967 1.0039-0.94141v5.2578c-3.79e-4 0.1256 0.10096 0.22782 0.22656 0.22852h0.85156c0.1256-6.99e-4 0.22694-0.10292 0.22656-0.22852v-0.26562c0.19492 0.14408 0.46483 0.35048 0.54102 0.43359 0.08868 0.09543 0.23917 0.0972 0.33008 0.0039 0.55183-0.56309 0.90506-1.2961 1.2051-2.0918 0.45263 0.69306 0.96788 1.257 1.625 1.541 0.7605 0.32869 1.6342 0.42578 2.6094 0.42578h1.9316c0.10786-2.1e-4 0.20079-0.07602 0.22266-0.18164 0.04503-0.21391 0.16383-0.60226 0.26367-0.76562 0.09576-0.15464-0.01938-0.35362-0.20117-0.34766-0.39754 0.01155-1.8647 0.01172-2.1562 0.01172-0.38745 0-0.75089-0.03168-1.0977-0.08008v-2.0625h2.5664c0.12636 3.8e-4 0.2289-0.10215 0.22852-0.22852v-0.80273c-6.99e-4 -0.1256-0.10291-0.22694-0.22851-0.22656h-2.5664v-1.3555h3.0781c0.1256-6.989e-4 0.22694-0.10291 0.22656-0.22852v-0.8125c3.79e-4 -0.1256-0.10096-0.22782-0.22656-0.22852h-3.1621v-1.2324h2.5898c0.12636 3.801e-4 0.2289-0.10215 0.22852-0.22852v-0.78906c3.8e-4 -0.12636-0.10215-0.2289-0.22852-0.22852h-2.5898v-1.3887c-6.99e-4 -0.1256-0.10292-0.22694-0.22852-0.22656h-0.86328c-0.0072-3.377e-4 -0.01432-3.377e-4 -0.02148 0zm-4.3496 0.023437c-0.07518 0.00329-0.14389 0.043491-0.18359 0.10742-0.50568 0.80447-1.5779 1.8468-2.4844 2.459-0.11893 0.079624-0.13585 0.2479-0.03516 0.34961 0.1249 0.12489 0.3518 0.44273 0.47071 0.62109 0.07154 0.10712 0.2176 0.13368 0.32227 0.058594 1.0458-0.74698 2.1968-1.8846 2.9336-2.9336 0.08496-0.12274 0.0309-0.29267-0.10938-0.34375l-0.82617-0.30469c-0.02811-0.010287-0.05798-0.014933-0.08789-0.013672z"/>
  <path d="m79.543 4.4355c-0.13146 0.013346-0.22395 0.13547-0.20117 0.26562 0.05751 0.33342 0.08203 0.72414 0.08203 1.0781v1.8848c-1.1879 0.22276-2.2885 0.41984-2.7871 0.48633-0.12999 0.016339-0.21937 0.13879-0.19531 0.26758l0.19531 1.0195c0.02395 0.12643 0.14788 0.20788 0.27344 0.17969 0.43485-0.097842 1.4384-0.30971 2.5137-0.52539v3.3867c0 0.62675 0.12076 1.1704 0.57812 1.5215s1.1702 0.48828 2.3184 0.48828c1.5266 0 2.7526-0.09729 3.8418-0.24414 0.10904-0.01452 0.19208-0.10496 0.19727-0.21484l0.04883-1.043c0.0072-0.14782-0.12631-0.26312-0.27148-0.23438-1.2017 0.22833-2.3476 0.34766-3.7422 0.34766-0.71422 0-1.1196-0.07877-1.3008-0.19922-0.0906-0.06022-0.13835-0.12412-0.17578-0.22852-0.03743-0.1044-0.05664-0.25362-0.05664-0.44922v-3.418c1.0108-0.20544 2.0385-0.41362 2.8398-0.57617 0.53376-0.10827 0.70492-0.14347 0.98438-0.20117-0.42473 0.73062-1.041 1.7094-1.7773 2.377-0.11282 0.10234-0.09519 0.28447 0.03516 0.36328l0.84961 0.50977c0.09093 0.05473 0.20762 0.03933 0.28125-0.03711 0.99877-1.0362 1.9476-2.5622 2.5117-3.5801 3e-6 -6.5e-4 3e-6 -0.0013 0-0.00195 0.07695-0.14299 0.21131-0.34902 0.29102-0.46289 0.06976-0.099439 0.04912-0.23614-0.04688-0.31055l-0.7168-0.55664c-0.07314-0.057065-0.1736-0.06402-0.25391-0.017578-0.10424 0.060781-0.32387 0.13513-0.58008 0.19336-0.47768 0.10233-2.4759 0.51108-4.418 0.89062v-1.6152c0-0.34141 0.02474-0.74544 0.08203-1.0781 0.02358-0.139-0.08362-0.26578-0.22461-0.26562h-1.1523c-0.0078-4.027e-4 -0.01563-4.027e-4 -0.02344 0z"/>
  <path d="m93.928 6.8262c-0.0226 5.865e-4 -0.04498 0.00454-0.06641 0.011719l-0.88672 0.30273c-0.12869 0.043621-0.19072 0.18957-0.13281 0.3125 0.2393 0.51282 0.80945 2.09 0.93164 2.5898 0.03122 0.13145 0.16941 0.20691 0.29687 0.16211l0.89844-0.31641c0.11432-0.040271 0.17702-0.16308 0.14258-0.2793-0.16674-0.56439-0.75158-2.1381-0.9668-2.6445-0.036679-0.086572-0.12282-0.14167-0.2168-0.13867zm3.334 0.35156c-0.10664 0.010851-0.19124 0.094645-0.20312 0.20117-0.177 1.5103-0.79756 3.0193-1.625 4.0332-6.71e-4 6.63e-4 -0.0013 0.0013-2e-3 2e-3 -0.95778 1.2031-2.4668 2.1069-3.8281 2.4941-0.16725 0.04626-0.22325 0.25519-0.10156 0.37891l0.80078 0.82422c0.06316 0.06534 0.15914 0.08684 0.24414 0.05469 1.3928-0.53473 2.9064-1.5022 4.0527-2.959 0.89845-1.1231 1.4306-2.4489 1.7637-3.8008 0.05136-0.16708 0.09748-0.3549 0.17969-0.60156 0.040363-0.12035-0.025536-0.25045-0.14644-0.28911l-1.0449-0.32812c-0.02899-0.00923-0.05954-0.012552-0.08984-0.00977zm-6.1348 0.25391c-0.03069-9.065e-4 -0.06125 0.00441-0.08984 0.015625l-0.89844 0.35352c-0.12916 0.050404-0.18361 0.20361-0.11523 0.32422 0.20241 0.35426 0.88715 2.0854 1.0586 2.6797 0.03658 0.12778 0.17441 0.19714 0.29883 0.15039l0.92188-0.33984c0.11726-0.043492 0.17744-0.17346 0.13477-0.29102-0.23424-0.64103-0.85768-2.2144-1.1113-2.7598-0.035867-0.078451-0.11301-0.12988-0.19922-0.13281z"/>
  <path d="m102.38 4.4219c-0.14305 3.925e-4 -0.25027 0.13112-0.22266 0.27148 0.0668 0.34515 0.0918 0.8898 0.0918 1.2188v7.0625c0 0.44077-0.0243 1.0349-0.0703 1.4043-0.0171 0.13615 0.0893 0.25632 0.22656 0.25586h1.1641c0.13722 4.66e-4 0.24363-0.11971 0.22657-0.25586-0.0461-0.38062-0.0723-1.0255-0.0723-1.4043l-0.01-3.666c1.3332 0.43825 3.2155 1.1581 4.4316 1.8164 0.12029 0.06517 0.27048 0.01022 0.32032-0.11719l0.41211-1.0312c0.0434-0.10952-4e-3 -0.23409-0.10913-0.28711-1.2687-0.63437-3.4511-1.4579-5.0566-1.9551v-1.8223c0-0.34386 0.0476-0.86488 0.084-1.2402 0.0133-0.13394-0.092-0.25007-0.22657-0.25z"/>
  <path d="m26.653 17.874c0.0093-0.12957 0.06016-0.24526 0.12031-0.32392 0.12031-0.15271 0.27302-0.17585 0.39796-0.17585 0.37945 0 0.52753 0.25451 0.52753 0.52753 0 0.27765-0.16196 0.40722-0.25914 0.45812-0.09718 0.0509-0.23137 0.074-0.35169 0.0648v0.30542c0.12031-5e-3 0.25451 0.0185 0.35169 0.0648 0.236 0.10643 0.30541 0.34243 0.30541 0.51827 0 0.34244-0.26376 0.62471-0.6062 0.62471-0.19435 0-0.37482-0.0833-0.47663-0.23137-0.06016-0.0833-0.09718-0.19898-0.11106-0.31004h-0.34243c0.0046 0.11106 0.02314 0.21286 0.06941 0.32392 0.16659 0.39796 0.54141 0.53216 0.86071 0.53216 0.52753 0 0.94863-0.35169 0.94863-0.93012 0-0.53216-0.3378-0.70337-0.44424-0.74502 0.31467-0.15733 0.39796-0.46275 0.39796-0.68486 0-0.42573-0.2869-0.83294-0.86996-0.83294-0.1851 0-0.51365 0.0416-0.71726 0.36094-0.07867 0.12494-0.1342 0.28227-0.14345 0.45349z"/>
  <path d="m30.972 20.253c0.24526 0 0.55529-0.12032 0.79129-0.46275 0.20361-0.29616 0.31004-0.69412 0.31004-1.1337 0-0.43961-0.10643-0.83757-0.31004-1.1337-0.236-0.34243-0.54604-0.46274-0.79129-0.46274s-0.55529 0.12031-0.79129 0.46274c-0.20361 0.29616-0.31004 0.69412-0.31004 1.1337 0 0.4396 0.10643 0.83756 0.31004 1.1337 0.236 0.34243 0.54604 0.46275 0.79129 0.46275zm0-2.8783c0.15733 0 0.3702 0.0833 0.53216 0.34243 0.16659 0.26377 0.22674 0.61545 0.22674 0.93938 0 0.32392-0.06016 0.6756-0.22674 0.93937-0.16196 0.25914-0.37482 0.34243-0.53216 0.34243s-0.3702-0.0833-0.53216-0.34243c-0.16659-0.26377-0.22674-0.61545-0.22674-0.93937 0-0.32393 0.06016-0.67561 0.22674-0.93938 0.16196-0.25913 0.37482-0.34243 0.53216-0.34243z"/>
  <path d="m34.173 20.197h0.34243v-3.0865h-0.68024l-0.18047 0.32392h0.51827z"/>
  <path d="m37.246 20.271 1.0504-1.453c0.23137-0.3193 0.25451-0.59232 0.25451-0.708 0-0.48589-0.34243-1.0504-1.0689-1.0504-0.61545 0-1.0597 0.44423-1.0597 1.0597 0 0.57381 0.40722 1.018 0.99953 1.018 0.09718 0 0.1851-0.0139 0.27302-0.0416l-0.708 0.98565zm0.24063-2.8968c0.43035 0 0.72188 0.32392 0.72188 0.73577 0 0.40259-0.29616 0.71262-0.71726 0.71262s-0.72651-0.30078-0.72651-0.71262c0-0.41647 0.29616-0.73577 0.72188-0.73577z"/>
  <path d="m43.928 18.416c-0.09255-0.0648-0.29153-0.1851-0.59694-0.1851-0.59231 0-1.0273 0.43035-1.0273 1.018 0 0.57843 0.43035 1.0042 1.0273 1.0042 0.18047 0 0.40259-0.0463 0.61082-0.19898v-0.39796c-0.17584 0.21286-0.4211 0.30078-0.62008 0.30078-0.34243 0-0.67561-0.24526-0.67561-0.71263s0.32392-0.71725 0.68024-0.71725c0.17122 0 0.42572 0.0648 0.60157 0.2869z"/>
  <path d="m45.56 21.262h0.3702l1.4114-2.9847h-0.3702l-0.62471 1.3744-0.68024-1.3744h-0.37945l0.88384 1.7399z"/>
  <path d="m49.146 19.929c0.14345 0.1851 0.36094 0.32393 0.67098 0.32393 0.58306 0 0.92087-0.47663 0.92087-1.0042 0-0.51827-0.33318-1.018-0.93475-1.018-0.13882 0-0.43035 0.0324-0.6571 0.31467v-1.7214h-0.33317v3.3734h0.33317zm0.62471 0.0278c-0.39333 0-0.64322-0.31929-0.64322-0.71263 0-0.46274 0.32855-0.71725 0.63859-0.71725s0.62934 0.24988 0.62934 0.72188c0 0.38408-0.236 0.708-0.62471 0.708z"/>
  <path d="m53.785 19.554c-0.0417 0.0926-0.11106 0.18973-0.19898 0.26377-0.11106 0.0925-0.236 0.13882-0.39334 0.13882-0.33317 0-0.60619-0.25451-0.61082-0.65247h1.4947c9e-3 -0.25451-0.0602-0.55067-0.18048-0.72188-0.11568-0.16659-0.35168-0.35169-0.7265-0.35169-0.57844 0-0.93012 0.44424-0.93012 1.018 0 0.71263 0.48588 1.0042 0.94863 1.0042 0.24525 0 0.46274-0.0787 0.63858-0.236 0.0972-0.0879 0.18047-0.20361 0.236-0.31004zm-1.18-0.52753c0.0509-0.2869 0.28227-0.49976 0.56455-0.49976 0.28227 0 0.50901 0.19898 0.56454 0.49976z"/>
  <path d="m55.698 20.197h0.33318v-1.0134c0-0.31467 0.0555-0.44424 0.11106-0.51828 0.0509-0.0648 0.13419-0.12031 0.26839-0.12031 0.0509 0 0.12031 0.0139 0.19435 0.0648l0.15734-0.30078c-0.0833-0.0417-0.19436-0.0787-0.29616-0.0787-0.25914 0-0.40259 0.20361-0.43498 0.25451v-0.20823h-0.33318z"/>
  <path d="m59.198 18.578c-0.15271-0.32855-0.42573-0.34706-0.52753-0.34706-0.32392 0-0.55992 0.19898-0.55992 0.53678 0 0.0972 0.0139 0.18973 0.0879 0.28228 0.0879 0.10643 0.236 0.18047 0.46737 0.28227 0.18047 0.0787 0.31004 0.13883 0.31004 0.3193 0 0.14345-0.0972 0.30541-0.31467 0.30541-0.24062 0-0.35168-0.21286-0.3887-0.31467l-0.2869 0.12032c0.16196 0.48125 0.59231 0.49051 0.67098 0.49051 0.37019 0 0.66172-0.22675 0.66172-0.62934 0-0.10643-0.0185-0.20823-0.1018-0.31004-0.074-0.0925-0.20361-0.18047-0.48126-0.29615-0.21749-0.0925-0.31004-0.1342-0.31004-0.27302 0-0.14808 0.11106-0.21749 0.23138-0.21749 0.12494 0 0.22211 0.0833 0.26839 0.19435z"/>
  <path d="m61.774 20.253c0.58306 0 1.018-0.42573 1.018-1.0088s-0.43035-1.0134-1.018-1.0134c-0.58768 0-1.018 0.43035-1.018 1.0134s0.43499 1.0088 1.018 1.0088zm0-1.726c0.35169 0 0.67561 0.24525 0.67561 0.71725 0 0.46737-0.32855 0.71263-0.67561 0.71263-0.34243 0-0.6756-0.24063-0.6756-0.71263 0-0.46737 0.32392-0.71725 0.6756-0.71725z"/>
  <path d="m64.747 18.277h-0.33317v1.1569c0 0.236 0.0231 0.41184 0.17584 0.57843 0.17121 0.18047 0.39796 0.24063 0.58769 0.24063 0.18972 0 0.41647-0.0602 0.58768-0.24063 0.15271-0.16659 0.17584-0.34243 0.17584-0.57843v-1.1569h-0.33317v1.1198c0 0.13419 0 0.29153-0.0926 0.41184-0.0509 0.0648-0.15271 0.14808-0.3378 0.14808-0.1851 0-0.28691-0.0833-0.33781-0.14808-0.0926-0.12031-0.0926-0.27765-0.0926-0.41184z"/>
  <path d="m67.689 16.824v3.3734h0.33318v-3.3734z"/>
  <path d="m75.188 16.468-0.24526 0.10643c0.12495 0.17122 0.27765 0.44424 0.3702 0.62934l-0.0787-0.0463c-0.074 0.0278-0.18047 0.0417-0.30541 0.0417h-1.2494c0.0324-0.0555 0.0648-0.11106 0.0925-0.16196 0.0463-0.0879 0.12957-0.24526 0.20824-0.36557l-0.4211-0.1342c-0.0278 0.12032-0.10181 0.28228-0.14808 0.36557-0.21286 0.4211-0.68949 1.1198-1.4854 1.615l0.31004 0.236c0.51827-0.35631 0.93011-0.8098 1.2263-1.2216h1.5641c-0.0926 0.37945-0.32855 0.87458-0.62933 1.2818-0.32393-0.22675-0.67098-0.45349-0.9764-0.62933l-0.24988 0.25913c0.29616 0.1851 0.65247 0.42573 0.98102 0.66636-0.41184 0.44886-1.0088 0.87458-1.7908 1.1106l0.33317 0.29153c0.78204-0.29615 1.3512-0.71725 1.7631-1.1754 0.19436 0.14808 0.36557 0.29153 0.50439 0.41647l0.27302-0.31929c-0.14807-0.12032-0.32854-0.25914-0.52753-0.40259 0.34706-0.472 0.60157-1.018 0.72651-1.4438 0.0231-0.074 0.0694-0.18048 0.10644-0.24526l-0.21749-0.12957 0.24525-0.11106c-0.0972-0.18972-0.26376-0.46737-0.37945-0.63396zm0.50902-0.1851-0.24526 0.10181c0.12957 0.17584 0.28228 0.43498 0.38408 0.63859l0.24988-0.11106c-0.0879-0.17122-0.26839-0.46275-0.3887-0.62934z"/>
  <path d="m77.863 18.194v0.45349c0.14345-0.0139 0.3887-0.0231 0.64321-0.0231h2.5405c0.20824 0 0.40259 0.0185 0.49514 0.0231v-0.45349c-0.1018 9e-3 -0.26839 0.0231-0.49977 0.0231h-2.5358c-0.25914 0-0.50439-0.0139-0.64321-0.0231z"/>
  <path d="m85.619 16.602-0.43035-0.13883c-0.0278 0.12032-0.0972 0.28691-0.14345 0.36557-0.19898 0.41647-0.6571 1.0874-1.453 1.5641l0.31929 0.24063c0.5044-0.3378 0.8931-0.74965 1.1754-1.1384h1.5641c-0.0972 0.42109-0.37945 1.018-0.74039 1.4438-0.4211 0.49051-0.99953 0.91161-1.8464 1.1615l0.33318 0.30078c0.86996-0.31929 1.4206-0.74501 1.8417-1.2587 0.41184-0.49977 0.69875-1.1245 0.82369-1.5918 0.0231-0.074 0.0694-0.18047 0.10643-0.24526l-0.31004-0.18972c-0.074 0.0324-0.17584 0.0463-0.30078 0.0463h-1.254c0.0416-0.0648 0.0787-0.12957 0.11106-0.19435 0.0416-0.0879 0.12494-0.24526 0.2036-0.36557z"/>
  <path d="m91.381 16.491h-0.44424c0.0185 0.14345 0.0231 0.24988 0.0231 0.34706v0.43035h-1.0227c-0.16197 0-0.29616-5e-3 -0.43036-0.0185 0.0139 0.10181 0.0139 0.25914 0.0139 0.35631v0.81444c0 0.0879-5e-3 0.21286-0.0139 0.29615h0.40259c-0.0139-0.074-0.0185-0.19435-0.0185-0.27764v-0.82832h2.5868c-0.0417 0.39796-0.18973 0.95788-0.43961 1.3512-0.28228 0.43498-0.7913 0.78204-1.254 0.93012-0.14808 0.0555-0.32392 0.10643-0.48126 0.12956l0.30079 0.34706c0.84682-0.23137 1.4854-0.70337 1.8325-1.3096 0.25914-0.44423 0.39333-1.0227 0.45349-1.3929 0.0185-0.0879 0.0463-0.20823 0.0694-0.27765l-0.24988-0.15733c-0.0602 0.0231-0.14808 0.037-0.3193 0.037h-1.0366v-0.43035c0-0.0972 5e-3 -0.20361 0.0278-0.34706z"/>
  <path d="m95.564 17.805v0.37019c0.0972-9e-3 0.24525-0.0139 0.31929-0.0139h0.85145v1.7029h-1.0643c-0.10643 0-0.22675-9e-3 -0.33318-0.0231v0.38871c0.11106-9e-3 0.23137-0.0139 0.33318-0.0139h2.559c0.074 0 0.21749 5e-3 0.31004 0.0139v-0.38871c-0.0925 0.0139-0.19898 0.0231-0.31004 0.0231h-1.1198v-1.7029h0.90236c0.10643 0 0.22674 5e-3 0.32855 0.0139v-0.37019c-0.0972 9e-3 -0.21287 0.0185-0.32855 0.0185h-2.1286c-0.074 0-0.22212-5e-3 -0.31929-0.0185z"/>
  <path d="m103.86 16.352-0.25451 0.10643c0.10644 0.14808 0.24063 0.37482 0.33781 0.55529-0.0694 0.0139-0.13883 0.0139-0.19898 0.0139h-2.3184c-0.15271 0-0.33781-0.0139-0.46275-0.0324v0.41184c0.11569-5e-3 0.27765-0.0139 0.45812-0.0139h2.3692c-0.0648 0.44424-0.27765 1.0874-0.60619 1.5086-0.38871 0.49514-0.90698 0.88847-1.8047 1.1106l0.31467 0.34706c0.84682-0.26377 1.3975-0.69412 1.8232-1.2355 0.36557-0.47663 0.58769-1.2216 0.68949-1.7075 0.0185-0.0925 0.037-0.16659 0.0694-0.23137l-0.22674-0.14345 0.17584-0.0787c-0.0925-0.17584-0.25913-0.45349-0.36557-0.61082zm0.59232-0.12032-0.25451 0.10643c0.12494 0.16196 0.27764 0.42573 0.37945 0.61545l0.25451-0.11105c-0.0972-0.17585-0.26377-0.45349-0.37945-0.61083z"/>
 </g>
</svg>
