<svg xmlns:svg="http://www.w3.org/2000/svg" xmlns="http://www.w3.org/2000/svg" id="svg927" fill="#ebdbf8" version="1.1" width="416.57043" height="91.665543" viewBox="0 0 110.21759 24.253175">

  <g id="g1355">
    <path id="path825" d="m 18.776752,19.26664 c -0.84149,-0.23758 -1.5619,-0.48815 -1.6009,-0.55683 -0.13389,-0.23576 1.17519,-6.64433 1.38113,-6.76129 0.1714,-0.0973 2.18286,1.83925 2.58728,2.49098 0.13901,0.22399 -0.53248,5.08585 -0.71688,5.19057 -0.0664,0.0377 -0.80914,-0.12586 -1.65063,-0.36343 z m -7.71412,3.6497 c -0.11943,-0.10151 -0.46471,-0.76441 -0.76727,-1.47311 l -0.55013,-1.28856 3.0905,-1.82263 c 1.69978,-1.00245 3.13215,-1.7493 3.18305,-1.65966 0.16047,0.28255 -0.35523,3.62001 -0.60662,3.9259 -0.46822,0.56974 -4.11797,2.51485 -4.34953,2.31806 z m -6.3649,-3.70632 c -1.25796,-0.50119 -2.32429,-0.97659 -2.36964,-1.05643 -0.0913,-0.16071 1.26536,-2.75645 1.5146,-2.89799 0.1698,-0.0964 5.98831,2.32745 6.40084,2.66648 0.2054,0.1688 -0.0672,0.38679 -1.50386,1.20269 l -1.75474,0.99652 z m 16.18215,-7.2164 c -0.50323,-0.2754 -4.16428,-5.03379 -3.96153,-5.14894 0.032,-0.0182 0.92215,-0.0526 1.97817,-0.0766 l 1.92003,-0.0436 1.47937,1.66712 c 1.05116,1.18456 1.45442,1.75759 1.39322,1.97969 -0.10705,0.38842 -2.51888,1.78126 -2.80926,1.62235 z M 4.112442,13.68166 2.484422,12.9594 1.886542,10.71411 C 1.557712,9.4792 1.304552,8.41117 1.323962,8.34071 c 0.0194,-0.0705 0.75331,-0.23119 1.63087,-0.35719 1.75007,-0.25126 1.80708,-0.21501 2.16317,1.37546 0.12108,0.54084 0.41232,1.84403 0.64718,2.89598 0.23486,1.05195 0.32538,1.96581 0.20115,2.0308 -0.12423,0.065 -0.95848,-0.20686 -1.85389,-0.6041 z m 10.30409,-8.18967 c -1.67351,-0.0303 -3.09954,-0.15056 -3.16895,-0.26719 -0.0694,-0.11662 0.30683,-0.87455 0.83608,-1.68429 l 0.96229,-1.47226 2.06111,-0.0348 c 3.31853,-0.0561 3.09724,-0.18375 2.91885,1.68397 -0.084,0.87994 -0.24591,1.6516 -0.35972,1.71482 -0.11384,0.0632 -1.57615,0.0901 -3.24966,0.0598 z m -7.77928,3.31209 c -0.25432,-0.48092 -1.2349,-3.29514 -1.1932,-3.42443 0.15114,-0.46861 2.47205,-4.02087 2.65002,-4.05596 0.21024,-0.0415 2.33773,1.6074 2.54508,1.97252 0.079,0.13916 -3.46469,5.63381 -3.731,5.78505 -0.0526,0.0299 -0.17449,-0.0949 -0.2709,-0.27718 z"></path>
    <path id="path927" d="m 45.243829,12.21324 q 0,0.0489 -0.01967,0.0782 L 43.1624,14.3532 h -5.071341 q -0.0293,0 -0.07816,-0.0293 -0.03908,-0.0293 -0.03908,-0.0684 v -2.11062 q 0,-0.0197 0.03908,-0.0586 0.03908,-0.0391 0.05864,-0.0391 h 7.07447 q 0.04886,0 0.06842,0.0586 0.0293,0.0586 0.0293,0.1075 z M 40.573114,9.39908 q -0.02931,0 -0.07817,-0.0391 -0.03908,-0.0391 -0.03908,-0.0684 V 7.18097 q 0,-0.0197 0.03908,-0.0586 0.03908,-0.0391 0.05864,-0.0391 h 2.628497 l 2.061759,2.06176 v 2.60895 q 0,0.0293 -0.04886,0.0782 -0.03908,0.0391 -0.06839,0.0391 h -2.07153 q -0.01967,0 -0.07816,-0.0293 -0.04886,-0.0391 -0.04886,-0.0684 V 9.39913 Z M 40.035691,4.60134 h 5.110423 q 0.03908,0 0.06842,0.0489 0.0293,0.0391 0.0293,0.0684 v 2.07153 q 0,0.0197 -0.04886,0.0782 -0.04886,0.0489 -0.06839,0.0489 h -4.836827 v 2.3549 q 0,0.0197 -0.05864,0.0684 -0.04886,0.0489 -0.06839,0.0489 h -2.07153 q -0.02931,0 -0.07816,-0.0293 -0.03908,-0.0293 -0.03908,-0.0684 V 6.66328 Z"></path>
    <path id="path929" d="m 45.494679,14.33362 q -0.0097,-0.01 -0.03908,-0.0293 -0.01967,-0.0293 -0.01967,-0.0489 V 12.1448 q 0,-0.0197 0.03908,-0.0586 0.03908,-0.0391 0.05864,-0.0391 h 7.074467 q 0.0391,0 0.0684,0.0489 0.0293,0.0391 0.0293,0.0684 v 2.07153 q 0,0.0293 -0.0489,0.0782 -0.0391,0.0391 -0.0684,0.0391 h -7.03526 q -0.03908,0 -0.05864,-0.0197 z m 4.709797,-5.20813 q 0.0197,0.0197 0.0197,0.0586 0,0.0293 0,0.0489 0,0.0391 -0.0391,0.1075 -0.0293,0.0586 -0.0782,0.0586 h -2.35501 v 2.3549 q 0,0.0197 -0.05864,0.0684 -0.04886,0.0489 -0.06842,0.0489 H 45.5533 q -0.02931,0 -0.07816,-0.0293 -0.03908,-0.0293 -0.03908,-0.0684 V 7.18104 q 0,-0.0197 0.03908,-0.0586 0.03908,-0.0391 0.05864,-0.0391 h 2.618725 z M 45.43605,6.74127 q 0,-0.0197 0,-0.0489 0,-0.0293 0.01967,-0.0489 l 2.042214,-2.04221 h 5.110422 q 0.0391,0 0.0684,0.0489 0.0293,0.0391 0.0293,0.0684 v 2.07153 q 0,0.0293 -0.0489,0.0782 -0.0391,0.0391 -0.0684,0.0391 h -7.035494 q -0.06842,0 -0.09772,-0.0489 -0.01967,-0.0586 -0.01967,-0.11725 z"></path>
    <path id="path931" d="m 55.438726,14.33362 q -0.01,-0.01 -0.0391,-0.0293 -0.0197,-0.0293 -0.0197,-0.0489 V 7.18095 q 0,-0.0197 0.0391,-0.0586 0.0391,-0.0391 0.0586,-0.0391 h 2.11062 q 0.0391,0 0.0684,0.0489 0.0293,0.0391 0.0293,0.0684 v 7.03538 q 0,0.0293 -0.0489,0.0782 -0.0391,0.0391 -0.0684,0.0391 h -2.0714 q -0.0391,0 -0.0586,-0.0197 z m 4.7098,-7.69006 q 0.0197,0.0197 0.0197,0.0586 0,0.0293 0,0.0489 0,0.0489 -0.0391,0.10749 -0.0293,0.0489 -0.0782,0.0489 h -7.03539 q -0.0293,0 -0.0782,-0.0293 -0.0391,-0.0293 -0.0391,-0.0684 V 4.69914 q 0,-0.0197 0.0391,-0.0586 0.0391,-0.0391 0.0586,-0.0391 h 5.11042 z"></path>
    <path id="path933" d="m 62.900846,14.33362 q -0.01,-0.01 -0.0391,-0.0293 -0.0197,-0.0293 -0.0197,-0.0489 V 7.18095 q 0,-0.0197 0.0391,-0.0586 0.0391,-0.0391 0.0586,-0.0391 h 2.11062 q 0.0391,0 0.0684,0.0489 0.0293,0.0391 0.0293,0.0684 v 7.03538 q 0,0.0293 -0.0489,0.0782 -0.0391,0.0391 -0.0684,0.0391 h -2.07153 q -0.0391,0 -0.0586,-0.0197 z m 4.7098,-7.69006 q 0.0197,0.0197 0.0197,0.0586 0,0.0293 0,0.0489 0,0.0489 -0.0391,0.10749 -0.0293,0.0489 -0.0782,0.0489 h -7.03538 q -0.0293,0 -0.0782,-0.0293 -0.0391,-0.0293 -0.0391,-0.0684 V 4.69914 q 0,-0.0197 0.0391,-0.0586 0.0391,-0.0391 0.0586,-0.0391 h 5.11043 z"></path>
    <path id="path935" d="m 74.994586,12.03735 q 0.0489,0 0.0684,0.0684 0.0293,0.0684 0.0293,0.1075 0,0.0489 -0.0197,0.0782 l -2.06176,2.06176 h -5.07134 q -0.0293,0 -0.0782,-0.0293 -0.0391,-0.0293 -0.0391,-0.0684 V 7.18104 q 0,-0.0197 0.0391,-0.0586 0.0391,-0.0391 0.0586,-0.0391 h 2.11062 q 0.0293,0 0.0684,0.0489 0.0391,0.0391 0.0391,0.0684 v 4.83683 z m -7.05492,-5.12019 q -0.0684,0 -0.0977,-0.0586 -0.0197,-0.0684 -0.0197,-0.11725 0,-0.0197 0,-0.0489 0,-0.0293 0.0197,-0.0489 l 2.04221,-2.04221 h 5.11043 q 0.0391,0 0.0684,0.0489 0.0293,0.0391 0.0293,0.0684 v 7.03539 q 0,0.0293 -0.0489,0.0782 -0.0391,0.0391 -0.0684,0.0391 h -2.07153 q -0.0197,0 -0.0782,-0.0293 -0.0489,-0.0391 -0.0489,-0.0684 V 6.91722 Z"></path>
    <path d="M 31.960938,2.9921875 C 31.844555,3.0038686 31.755926,3.1017828 31.755859,3.21875 V 4.6074219 H 29.238281 C 29.111919,4.6070424 29.009386,4.709575 29.009766,4.8359375 V 5.625 c -3.8e-4,0.1263625 0.102153,0.2288951 0.228515,0.2285156 h 2.517578 v 1.2324219 h -3.15039 c -0.126363,-3.801e-4 -0.228896,0.1021527 -0.228516,0.2285156 v 0.8125 c -3.8e-4,0.1263629 0.102153,0.2288958 0.228516,0.2285157 h 3.234375 v 4.2343752 c -0.584997,-0.319354 -1.073779,-0.812555 -1.408203,-1.732422 0.09241,-0.52829 0.175541,-1.0770292 0.222656,-1.6660158 0.01054,-0.1250496 -0.08202,-0.23508 -0.207031,-0.2460937 l -0.886719,-0.072266 c -0.12646,-0.010489 -0.237119,0.084361 -0.246094,0.2109375 -0.135017,1.89039 -0.558199,3.344885 -1.429687,4.314454 V 7.6367188 c 0.373879,-0.5048007 0.741434,-1.023037 1.029296,-1.5507813 0.06735,-0.123488 0.0078,-0.2779045 -0.125,-0.3242187 L 27.988281,5.4824219 c -0.104187,-0.03624 -0.21937,0.00737 -0.273437,0.1035156 -0.696612,1.2397318 -1.849185,2.4885894 -2.925782,3.28125 -0.105191,0.077402 -0.123919,0.2272092 -0.04102,0.328125 0.134722,0.1658015 0.415341,0.6143464 0.480469,0.7539063 0.06233,0.1330422 0.232428,0.1731772 0.347656,0.082031 0.34174,-0.2698009 0.672235,-0.6096667 1.003906,-0.9414072 v 5.2578132 c -3.79e-4,0.125601 0.100963,0.227817 0.226563,0.228516 h 0.851562 c 0.1256,-6.99e-4 0.226942,-0.102915 0.226563,-0.228516 v -0.265625 c 0.194918,0.144078 0.464827,0.350485 0.541015,0.433594 0.08868,0.09543 0.23917,0.0972 0.330078,0.0039 0.551829,-0.56309 0.905062,-1.296129 1.205079,-2.091797 0.452628,0.693062 0.967875,1.257003 1.625,1.541016 0.760499,0.328692 1.63416,0.425781 2.609374,0.425781 h 1.931641 c 0.107857,-2.1e-4 0.200789,-0.07602 0.222656,-0.18164 0.04503,-0.213909 0.163827,-0.602259 0.263672,-0.765625 0.09576,-0.154642 -0.01938,-0.353622 -0.201172,-0.347657 -0.397544,0.01155 -1.864653,0.01172 -2.15625,0.01172 -0.387448,0 -0.750891,-0.03168 -1.097656,-0.08008 v -2.0625 h 2.566406 c 0.126363,3.8e-4 0.228896,-0.102153 0.228516,-0.228516 V 9.9375 C 35.952421,9.8119025 35.850208,9.7105611 35.724609,9.7109375 H 33.158203 V 8.3554688 h 3.078125 c 0.1256,-6.989e-4 0.226942,-0.1029148 0.226563,-0.2285157 v -0.8125 C 36.46327,7.1888522 36.361927,7.0866364 36.236328,7.0859375 H 33.074219 V 5.8535156 h 2.589843 C 35.790425,5.8538957 35.892958,5.7513629 35.892578,5.625 V 4.8359375 C 35.892958,4.7095746 35.790425,4.6070418 35.664062,4.6074219 H 33.074219 V 3.21875 C 33.07352,3.0931506 32.971304,2.9918083 32.845703,2.9921875 h -0.863281 c -0.0072,-3.377e-4 -0.01432,-3.377e-4 -0.02148,0 z m -4.34961,0.023437 c -0.07518,0.00329 -0.143893,0.043491 -0.183594,0.1074219 -0.505675,0.8044738 -1.57791,1.8468269 -2.484375,2.4589843 -0.118931,0.079624 -0.135854,0.2478982 -0.03516,0.3496094 0.124901,0.1248938 0.351801,0.4427333 0.470707,0.6210943 0.07154,0.1071241 0.217596,0.1336796 0.322266,0.058594 1.045776,-0.7469829 2.196798,-1.8845904 2.933594,-2.933594 0.08496,-0.1227448 0.0309,-0.2926709 -0.109375,-0.34375 L 27.699219,3.0292969 c -0.02811,-0.010287 -0.05798,-0.014933 -0.08789,-0.013672 z" id="path925"></path>
    <path d="m 79.542969,4.4355469 c -0.131457,0.013346 -0.223948,0.1354704 -0.201172,0.265625 0.05751,0.3334207 0.08203,0.7241382 0.08203,1.078125 v 1.8847656 c -1.187925,0.2227552 -2.288455,0.4198441 -2.787108,0.4863281 -0.129992,0.016339 -0.219374,0.1387916 -0.195313,0.2675782 L 76.636719,9.4375 c 0.02395,0.1264335 0.147881,0.2078758 0.273437,0.1796875 0.434852,-0.097842 1.438423,-0.3097079 2.513672,-0.5253906 v 3.3867191 c 0,0.626753 0.120756,1.170353 0.578125,1.521484 0.457369,0.351131 1.170186,0.488281 2.318359,0.488281 1.526641,0 2.752644,-0.09729 3.841797,-0.24414 0.10904,-0.01452 0.19208,-0.104964 0.197266,-0.214844 l 0.04883,-1.042969 c 0.0072,-0.147818 -0.126306,-0.263116 -0.271484,-0.234375 -1.201697,0.228328 -2.347554,0.347656 -3.742188,0.347656 -0.714225,0 -1.119575,-0.07877 -1.300781,-0.199218 -0.0906,-0.06022 -0.138348,-0.124119 -0.175781,-0.228516 -0.03743,-0.104397 -0.05664,-0.253619 -0.05664,-0.449219 V 8.8046875 c 1.010764,-0.2054422 2.03848,-0.4136185 2.839844,-0.5761719 0.53376,-0.108271 0.704917,-0.1434696 0.984375,-0.2011718 -0.424729,0.7306214 -1.041021,1.7093552 -1.777344,2.3769532 -0.112815,0.102343 -0.09519,0.284472 0.03516,0.363281 l 0.84961,0.509766 c 0.09093,0.05473 0.207624,0.03933 0.28125,-0.03711 0.998771,-1.036228 1.947567,-2.5621607 2.511719,-3.5800778 3e-6,-6.5e-4 3e-6,-0.0013 0,-0.00195 0.07695,-0.1429856 0.211309,-0.3490179 0.291015,-0.4628906 0.06976,-0.099439 0.04912,-0.2361357 -0.04688,-0.31055 L 86.113281,6.328125 C 86.040141,6.27106 85.939682,6.264105 85.859375,6.310547 85.755131,6.371328 85.535503,6.4456752 85.279297,6.5039063 84.80162,6.6062362 82.803364,7.0149861 80.861328,7.3945313 V 5.7792969 c 0,-0.3414128 0.02474,-0.7454399 0.08203,-1.078125 0.02358,-0.139003 -0.08362,-0.2657801 -0.224608,-0.265625 h -1.152344 c -0.0078,-4.027e-4 -0.01563,-4.027e-4 -0.02344,0 z" id="path937"></path>
    <path d="m 93.927734,6.8261719 c -0.0226,5.865e-4 -0.04498,0.00454 -0.06641,0.011719 L 92.974609,7.140625 c -0.128693,0.043621 -0.190722,0.1895728 -0.132812,0.3125 0.239305,0.5128205 0.809448,2.0899602 0.931641,2.589844 0.03122,0.13145 0.169414,0.206914 0.296874,0.162109 L 94.96875,9.8886719 C 95.083074,9.8484013 95.145769,9.7255882 95.111328,9.609375 94.944591,9.0449828 94.359749,7.4712472 94.144531,6.9648438 94.107852,6.8782717 94.021708,6.8231706 93.927734,6.8261719 Z m 3.333985,0.3515625 c -0.106637,0.010851 -0.191245,0.094645 -0.203125,0.2011718 -0.177,1.5102565 -0.797555,3.0192998 -1.625,4.0332028 -6.71e-4,6.63e-4 -0.0013,0.0013 -0.002,0.002 -0.957777,1.203066 -2.4668,2.10687 -3.828125,2.494141 -0.167251,0.04626 -0.223253,0.255193 -0.101563,0.378906 l 0.800781,0.824219 c 0.06316,0.06534 0.159141,0.08684 0.244141,0.05469 1.392796,-0.534726 2.906436,-1.502185 4.052734,-2.958985 0.898452,-1.123067 1.430629,-2.4488726 1.763672,-3.800781 0.05136,-0.1670755 0.09748,-0.354903 0.179688,-0.6015625 C 98.583285,7.6843909 98.517386,7.554288 98.396484,7.515625 L 97.351562,7.1875 c -0.02899,-0.00923 -0.05954,-0.012552 -0.08984,-0.00977 z m -6.134766,0.2539064 c -0.03069,-9.065e-4 -0.06125,0.00441 -0.08984,0.015625 L 90.138672,7.8007812 C 90.009515,7.8511856 89.955063,8.0043887 90.023438,8.125 c 0.202412,0.3542574 0.887146,2.085369 1.058593,2.679688 0.03658,0.127777 0.174414,0.197145 0.298828,0.15039 l 0.921875,-0.339844 C 92.419992,10.571742 92.480178,10.441776 92.4375,10.324219 92.203262,9.6831847 91.579821,8.1097694 91.326172,7.5644531 91.290305,7.4860021 91.213164,7.434575 91.126953,7.4316408 Z" id="path939"></path>
    <path d="m 102.38086,4.421875 c -0.14305,3.925e-4 -0.25027,0.1311197 -0.22266,0.2714844 0.0668,0.3451475 0.0918,0.889798 0.0918,1.21875 v 7.0624996 c 0,0.440767 -0.0243,1.034932 -0.0703,1.404297 -0.0171,0.136149 0.0893,0.25632 0.22656,0.25586 h 1.16406 c 0.13722,4.66e-4 0.24363,-0.119707 0.22657,-0.25586 -0.0461,-0.380619 -0.0723,-1.025459 -0.0723,-1.404297 l -0.01,-3.6660152 c 1.33315,0.438253 3.21551,1.1581242 4.43164,1.8164062 0.12029,0.06517 0.27048,0.01022 0.32032,-0.117188 l 0.41211,-1.0312495 c 0.0434,-0.1095234 -0.004,-0.2340884 -0.10913,-0.2871094 C 107.50079,9.055083 105.31846,8.231509 103.71289,7.734375 V 5.9121094 c 0,-0.343862 0.0476,-0.8648807 0.084,-1.2402344 0.0133,-0.1339388 -0.092,-0.2500683 -0.22657,-0.25 z" id="path941"></path>
    <path d="m 26.652537,17.87435 c 0.0093,-0.12957 0.06016,-0.24526 0.120314,-0.32392 0.120313,-0.15271 0.273019,-0.17585 0.39796,-0.17585 0.379451,0 0.52753,0.25451 0.52753,0.52753 0,0.27765 -0.161961,0.40722 -0.259138,0.45812 -0.09718,0.0509 -0.231372,0.074 -0.351686,0.0648 v 0.30542 c 0.120314,-0.005 0.25451,0.0185 0.351686,0.0648 0.236,0.10643 0.305412,0.34243 0.305412,0.51827 0,0.34244 -0.263765,0.62471 -0.606196,0.62471 -0.194353,0 -0.374823,-0.0833 -0.476627,-0.23137 -0.06016,-0.0833 -0.09718,-0.19898 -0.111059,-0.31004 h -0.342431 c 0.0046,0.11106 0.02314,0.21286 0.06941,0.32392 0.166589,0.39796 0.541412,0.53216 0.860706,0.53216 0.527529,0 0.948627,-0.35169 0.948627,-0.93012 0,-0.53216 -0.337804,-0.70337 -0.444235,-0.74502 0.314667,-0.15733 0.397961,-0.46275 0.397961,-0.68486 0,-0.42573 -0.286902,-0.83294 -0.869961,-0.83294 -0.185098,0 -0.513647,0.0416 -0.717255,0.36094 -0.07867,0.12494 -0.134196,0.28227 -0.14345,0.45349 z" id="path1019"></path>
    <path d="m 30.971941,20.25286 c 0.245255,0 0.555294,-0.12032 0.791294,-0.46275 0.203608,-0.29616 0.310039,-0.69412 0.310039,-1.13372 0,-0.43961 -0.106431,-0.83757 -0.310039,-1.13373 -0.236,-0.34243 -0.546039,-0.46274 -0.791294,-0.46274 -0.245255,0 -0.555294,0.12031 -0.791294,0.46274 -0.203608,0.29616 -0.310039,0.69412 -0.310039,1.13373 0,0.4396 0.106431,0.83756 0.310039,1.13372 0.236,0.34243 0.546039,0.46275 0.791294,0.46275 z m 0,-2.87828 c 0.157333,0 0.370196,0.0833 0.532157,0.34243 0.166588,0.26377 0.226745,0.61545 0.226745,0.93938 0,0.32392 -0.06016,0.6756 -0.226745,0.93937 -0.161961,0.25914 -0.374824,0.34243 -0.532157,0.34243 -0.157333,0 -0.370196,-0.0833 -0.532157,-0.34243 -0.166588,-0.26377 -0.226745,-0.61545 -0.226745,-0.93937 0,-0.32393 0.06016,-0.67561 0.226745,-0.93938 0.161961,-0.25913 0.374824,-0.34243 0.532157,-0.34243 z" id="path1021"></path>
    <path d="m 34.17331,20.19733 h 0.342431 v -3.08651 h -0.680235 l -0.18047,0.32392 h 0.518274 z" id="path1023"></path>
    <path d="m 37.246412,20.27137 1.050431,-1.45302 c 0.231372,-0.3193 0.254509,-0.59232 0.254509,-0.708 0,-0.48589 -0.342431,-1.05043 -1.068941,-1.05043 -0.61545,0 -1.059686,0.44423 -1.059686,1.05968 0,0.57381 0.407216,1.01804 0.99953,1.01804 0.09718,0 0.185098,-0.0139 0.273019,-0.0416 l -0.708,0.98565 z m 0.240627,-2.89679 c 0.430353,0 0.721882,0.32392 0.721882,0.73577 0,0.40259 -0.296157,0.71262 -0.717255,0.71262 -0.421098,0 -0.726509,-0.30078 -0.726509,-0.71262 0,-0.41647 0.296157,-0.73577 0.721882,-0.73577 z" id="path1025"></path>
    <path d="m 43.928097,18.41576 c -0.09255,-0.0648 -0.291529,-0.1851 -0.596941,-0.1851 -0.592313,0 -1.027293,0.43035 -1.027293,1.01804 0,0.57843 0.430352,1.00416 1.027293,1.00416 0.180471,0 0.402589,-0.0463 0.610824,-0.19898 v -0.39796 c -0.175843,0.21286 -0.421098,0.30078 -0.620078,0.30078 -0.342432,0 -0.675608,-0.24526 -0.675608,-0.71263 0,-0.46737 0.323921,-0.71725 0.680235,-0.71725 0.171216,0 0.425725,0.0648 0.601568,0.2869 z" id="path1027"></path>
    <path d="m 45.559605,21.26164 h 0.370196 l 1.411373,-2.9847 h -0.370196 l -0.624706,1.37435 -0.680235,-1.37435 h -0.379451 l 0.883843,1.73992 z" id="path1029"></path>
    <path d="m 49.145916,19.92893 c 0.14345,0.1851 0.36094,0.32393 0.67098,0.32393 0.58306,0 0.92087,-0.47663 0.92087,-1.00416 0,-0.51827 -0.33318,-1.01804 -0.93475,-1.01804 -0.13882,0 -0.43035,0.0324 -0.6571,0.31467 v -1.72141 h -0.333173 v 3.37341 h 0.333173 z m 0.62471,0.0278 c -0.39333,0 -0.64322,-0.31929 -0.64322,-0.71263 0,-0.46274 0.32855,-0.71725 0.63859,-0.71725 0.31004,0 0.62934,0.24988 0.62934,0.72188 0,0.38408 -0.236,0.708 -0.62471,0.708 z" id="path1031"></path>
    <path d="m 53.784766,19.55411 c -0.0417,0.0926 -0.11106,0.18973 -0.19898,0.26377 -0.11106,0.0925 -0.236,0.13882 -0.39334,0.13882 -0.33317,0 -0.60619,-0.25451 -0.61082,-0.65247 h 1.49467 c 0.009,-0.25451 -0.0602,-0.55067 -0.18048,-0.72188 -0.11568,-0.16659 -0.35168,-0.35169 -0.7265,-0.35169 -0.57844,0 -0.93012,0.44424 -0.93012,1.01804 0,0.71263 0.48588,1.00416 0.94863,1.00416 0.24525,0 0.46274,-0.0787 0.63858,-0.236 0.0972,-0.0879 0.18047,-0.20361 0.236,-0.31004 z m -1.18,-0.52753 c 0.0509,-0.2869 0.28227,-0.49976 0.56455,-0.49976 0.28227,0 0.50901,0.19898 0.56454,0.49976 z" id="path1033"></path>
    <path d="m 55.698396,20.19733 h 0.33318 v -1.01341 c 0,-0.31467 0.0555,-0.44424 0.11106,-0.51828 0.0509,-0.0648 0.13419,-0.12031 0.26839,-0.12031 0.0509,0 0.12031,0.0139 0.19435,0.0648 l 0.15734,-0.30078 c -0.0833,-0.0417 -0.19436,-0.0787 -0.29616,-0.0787 -0.25914,0 -0.40259,0.20361 -0.43498,0.25451 v -0.20823 h -0.33318 z" id="path1035"></path>
    <path d="m 59.197806,18.57772 c -0.15271,-0.32855 -0.42573,-0.34706 -0.52753,-0.34706 -0.32392,0 -0.55992,0.19898 -0.55992,0.53678 0,0.0972 0.0139,0.18973 0.0879,0.28228 0.0879,0.10643 0.236,0.18047 0.46737,0.28227 0.18047,0.0787 0.31004,0.13883 0.31004,0.3193 0,0.14345 -0.0972,0.30541 -0.31467,0.30541 -0.24062,0 -0.35168,-0.21286 -0.3887,-0.31467 l -0.2869,0.12032 c 0.16196,0.48125 0.59231,0.49051 0.67098,0.49051 0.37019,0 0.66172,-0.22675 0.66172,-0.62934 0,-0.10643 -0.0185,-0.20823 -0.1018,-0.31004 -0.074,-0.0925 -0.20361,-0.18047 -0.48126,-0.29615 -0.21749,-0.0925 -0.31004,-0.1342 -0.31004,-0.27302 0,-0.14808 0.11106,-0.21749 0.23138,-0.21749 0.12494,0 0.22211,0.0833 0.26839,0.19435 z" id="path1037"></path>
    <path d="m 61.773596,20.25286 c 0.58306,0 1.01804,-0.42573 1.01804,-1.00879 0,-0.58306 -0.43035,-1.01341 -1.01804,-1.01341 -0.58768,0 -1.01804,0.43035 -1.01804,1.01341 0,0.58306 0.43499,1.00879 1.01804,1.00879 z m 0,-1.72604 c 0.35169,0 0.67561,0.24525 0.67561,0.71725 0,0.46737 -0.32855,0.71263 -0.67561,0.71263 -0.34243,0 -0.6756,-0.24063 -0.6756,-0.71263 0,-0.46737 0.32392,-0.71725 0.6756,-0.71725 z" id="path1039"></path>
    <path d="m 64.746776,18.27694 h -0.33317 v 1.15686 c 0,0.236 0.0231,0.41184 0.17584,0.57843 0.17121,0.18047 0.39796,0.24063 0.58769,0.24063 0.18972,0 0.41647,-0.0602 0.58768,-0.24063 0.15271,-0.16659 0.17584,-0.34243 0.17584,-0.57843 v -1.15686 h -0.33317 v 1.11984 c 0,0.13419 0,0.29153 -0.0926,0.41184 -0.0509,0.0648 -0.15271,0.14808 -0.3378,0.14808 -0.1851,0 -0.28691,-0.0833 -0.33781,-0.14808 -0.0926,-0.12031 -0.0926,-0.27765 -0.0926,-0.41184 z" id="path1041"></path>
    <path d="m 67.689226,16.82392 v 3.37341 h 0.33318 v -3.37341 z" id="path1043"></path>
    <path d="m 75.188236,16.4676 -0.24526,0.10643 c 0.12495,0.17122 0.27765,0.44424 0.3702,0.62934 l -0.0787,-0.0463 c -0.074,0.0278 -0.18047,0.0417 -0.30541,0.0417 h -1.24941 c 0.0324,-0.0555 0.0648,-0.11106 0.0925,-0.16196 0.0463,-0.0879 0.12957,-0.24526 0.20824,-0.36557 l -0.4211,-0.1342 c -0.0278,0.12032 -0.10181,0.28228 -0.14808,0.36557 -0.21286,0.4211 -0.68949,1.11985 -1.48541,1.61498 l 0.31004,0.236 c 0.51827,-0.35631 0.93011,-0.8098 1.22627,-1.22164 h 1.56408 c -0.0926,0.37945 -0.32855,0.87458 -0.62933,1.2818 -0.32393,-0.22675 -0.67098,-0.45349 -0.9764,-0.62933 l -0.24988,0.25913 c 0.29616,0.1851 0.65247,0.42573 0.98102,0.66636 -0.41184,0.44886 -1.00878,0.87458 -1.79082,1.11058 l 0.33317,0.29153 c 0.78204,-0.29615 1.35122,-0.71725 1.76306,-1.17537 0.19436,0.14808 0.36557,0.29153 0.50439,0.41647 l 0.27302,-0.31929 c -0.14807,-0.12032 -0.32854,-0.25914 -0.52753,-0.40259 0.34706,-0.472 0.60157,-1.01804 0.72651,-1.44376 0.0231,-0.074 0.0694,-0.18048 0.10644,-0.24526 l -0.21749,-0.12957 0.24525,-0.11106 c -0.0972,-0.18972 -0.26376,-0.46737 -0.37945,-0.63396 z m 0.50902,-0.1851 -0.24526,0.10181 c 0.12957,0.17584 0.28228,0.43498 0.38408,0.63859 l 0.24988,-0.11106 c -0.0879,-0.17122 -0.26839,-0.46275 -0.3887,-0.62934 z" id="path1045"></path>
    <path d="m 77.863236,18.19364 v 0.45349 c 0.14345,-0.0139 0.3887,-0.0231 0.64321,-0.0231 h 2.54047 c 0.20824,0 0.40259,0.0185 0.49514,0.0231 v -0.45349 c -0.1018,0.009 -0.26839,0.0231 -0.49977,0.0231 h -2.53584 c -0.25914,0 -0.50439,-0.0139 -0.64321,-0.0231 z" id="path1047"></path>
    <path d="m 85.619166,16.6018 -0.43035,-0.13883 c -0.0278,0.12032 -0.0972,0.28691 -0.14345,0.36557 -0.19898,0.41647 -0.6571,1.08745 -1.45302,1.56408 l 0.31929,0.24063 c 0.5044,-0.3378 0.8931,-0.74965 1.17538,-1.13835 h 1.56407 c -0.0972,0.42109 -0.37945,1.01804 -0.74039,1.44376 -0.4211,0.49051 -0.99953,0.91161 -1.84635,1.16149 l 0.33318,0.30078 c 0.86996,-0.31929 1.42062,-0.74501 1.84172,-1.25866 0.41184,-0.49977 0.69875,-1.12447 0.82369,-1.59184 0.0231,-0.074 0.0694,-0.18047 0.10643,-0.24526 l -0.31004,-0.18972 c -0.074,0.0324 -0.17584,0.0463 -0.30078,0.0463 h -1.25404 c 0.0416,-0.0648 0.0787,-0.12957 0.11106,-0.19435 0.0416,-0.0879 0.12494,-0.24526 0.2036,-0.36557 z" id="path1049"></path>
    <path d="m 91.380676,16.49074 h -0.44424 c 0.0185,0.14345 0.0231,0.24988 0.0231,0.34706 v 0.43035 h -1.02266 c -0.16197,0 -0.29616,-0.005 -0.43036,-0.0185 0.0139,0.10181 0.0139,0.25914 0.0139,0.35631 v 0.81444 c 0,0.0879 -0.005,0.21286 -0.0139,0.29615 h 0.40259 c -0.0139,-0.074 -0.0185,-0.19435 -0.0185,-0.27764 v -0.82832 h 2.58675 c -0.0417,0.39796 -0.18973,0.95788 -0.43961,1.35122 -0.28228,0.43498 -0.7913,0.78204 -1.25404,0.93012 -0.14808,0.0555 -0.32392,0.10643 -0.48126,0.12956 l 0.30079,0.34706 c 0.84682,-0.23137 1.48541,-0.70337 1.83247,-1.30957 0.25914,-0.44423 0.39333,-1.02266 0.45349,-1.39286 0.0185,-0.0879 0.0463,-0.20823 0.0694,-0.27765 l -0.24988,-0.15733 c -0.0602,0.0231 -0.14808,0.037 -0.3193,0.037 h -1.03655 v -0.43035 c 0,-0.0972 0.005,-0.20361 0.0278,-0.34706 z" id="path1051"></path>
    <path d="m 95.564226,17.80494 v 0.37019 c 0.0972,-0.009 0.24525,-0.0139 0.31929,-0.0139 h 0.85145 v 1.7029 h -1.06431 c -0.10643,0 -0.22675,-0.009 -0.33318,-0.0231 v 0.38871 c 0.11106,-0.009 0.23137,-0.0139 0.33318,-0.0139 h 2.55898 c 0.074,0 0.21749,0.005 0.31004,0.0139 v -0.38871 c -0.0925,0.0139 -0.19898,0.0231 -0.31004,0.0231 h -1.11985 v -1.7029 h 0.90236 c 0.10643,0 0.22674,0.005 0.32855,0.0139 v -0.37019 c -0.0972,0.009 -0.21287,0.0185 -0.32855,0.0185 h -2.12863 c -0.074,0 -0.22212,-0.005 -0.31929,-0.0185 z" id="path1053"></path>
    <path d="m 103.86157,16.35192 -0.25451,0.10643 c 0.10644,0.14808 0.24063,0.37482 0.33781,0.55529 -0.0694,0.0139 -0.13883,0.0139 -0.19898,0.0139 h -2.31835 c -0.15271,0 -0.33781,-0.0139 -0.46275,-0.0324 v 0.41184 c 0.11569,-0.005 0.27765,-0.0139 0.45812,-0.0139 h 2.36925 c -0.0648,0.44424 -0.27765,1.08745 -0.60619,1.50855 -0.38871,0.49514 -0.90698,0.88847 -1.80471,1.11059 l 0.31467,0.34706 c 0.84682,-0.26377 1.39749,-0.69412 1.82321,-1.23553 0.36557,-0.47663 0.58769,-1.22165 0.68949,-1.70753 0.0185,-0.0925 0.037,-0.16659 0.0694,-0.23137 l -0.22674,-0.14345 0.17584,-0.0787 c -0.0925,-0.17584 -0.25913,-0.45349 -0.36557,-0.61082 z m 0.59232,-0.12032 -0.25451,0.10643 c 0.12494,0.16196 0.27764,0.42573 0.37945,0.61545 l 0.25451,-0.11105 c -0.0972,-0.17585 -0.26377,-0.45349 -0.37945,-0.61083 z" id="path1055"></path>
  </g>
</svg>